<?xml version="1.0" encoding="utf-8"?>
<!-- Generator: Adobe Illustrator 26.0.1, SVG Export Plug-In . SVG Version: 6.00 Build 0)  -->
<svg version="1.1" id="Layer_1" xmlns="http://www.w3.org/2000/svg" xmlns:xlink="http://www.w3.org/1999/xlink" x="0px" y="0px"
	 viewBox="0 0 510.2 235.3" style="enable-background:new 0 0 510.2 235.3;" xml:space="preserve">
<style type="text/css">
	.st0{fill:#00B6DA;stroke:#00B6DA;stroke-width:0.28;stroke-miterlimit:10;}
	.st1{fill:#FFFFFF;}
</style>
<path class="st0" d="M252.5,188.4h3.1v29.8h-3.1V188.4z"/>
<path class="st0" d="M281.2,189.3c0.6,0.5,0.9,1.3,0.9,2.1h-9.9v26.9H269v-26.9h-7c-0.8,0-1.5-0.3-2.1-0.9c-0.5-0.5-0.9-1.3-0.9-2.1
	h20C279.9,188.4,280.6,188.7,281.2,189.3z"/>
<path class="st0" d="M307.9,208.6c0.3,0.7,0.5,1.5,0.5,2.3c0,1.4-0.4,2.8-1.1,4c-0.8,1.1-1.8,2.1-3.1,2.6c-1.4,0.6-2.9,0.9-4.4,0.9
	c-1.5,0-3-0.3-4.4-1.1c-1.3-0.6-2.4-1.6-3.2-2.7c-0.8-1-1.3-2.2-1.4-3.5c0.3-0.1,0.5-0.1,0.8-0.1c0.5,0,1,0.1,1.5,0.4
	c0.5,0.3,0.8,0.7,1.1,1.1c0.6,1,1.4,1.8,2.4,2.4c1,0.6,2.1,0.9,3.3,0.9c1.5,0,2.9-0.4,4.1-1.2c1.1-0.8,1.8-2.1,1.7-3.5
	c0.1-1.2-0.5-2.4-1.4-3.1c-0.9-0.7-2-1.2-3.2-1.4l-3.4-0.7c-0.8-0.2-1.5-0.4-2.3-0.8c-0.8-0.3-1.5-0.8-2.1-1.4
	c-1.2-1.2-1.9-2.8-1.8-4.5c0-1.3,0.4-2.7,1.1-3.8c0.8-1.1,1.8-2,3-2.5c1.2-0.6,2.6-0.9,4-0.9c1.5,0,3.1,0.3,4.4,0.9
	c1.1,0.5,2.1,1.3,2.8,2.3c0.6,0.9,1.1,1.9,1.3,2.9h-0.2c-0.2,0-0.5,0.1-0.7,0.1c-0.5,0-0.9-0.1-1.4-0.3c-0.4-0.2-0.8-0.5-1-0.9
	c-1.2-1.7-3.2-2.7-5.2-2.6c-0.2,0-0.6,0-1.1,0.1c-1.2,0.1-2.3,0.6-3.1,1.5c-0.8,0.8-1.3,1.9-1.3,3.1c0,0.9,0.3,1.9,0.9,2.6
	c0.7,0.8,1.7,1.3,2.8,1.4l3.3,0.6c1,0.2,1.9,0.4,2.8,0.8c0.8,0.3,1.6,0.8,2.2,1.4C307,206.8,307.6,207.7,307.9,208.6z"/>
<path class="st0" d="M331.7,194c1.9,1.1,3.5,2.8,4.6,4.7c1.1,2,1.7,4.3,1.7,6.6c0,2.3-0.6,4.6-1.7,6.7c-1.1,2-2.7,3.6-4.7,4.8
	c-2,1.2-4.3,1.8-6.6,1.8c-4.6,0.1-8.9-2.4-11.2-6.4c-1.1-2-1.7-4.3-1.7-6.6c0-2.3,0.6-4.6,1.7-6.7c1.1-2,2.7-3.6,4.7-4.8
	c2-1.2,4.3-1.8,6.6-1.8C327.4,192.2,329.7,192.8,331.7,194z M330.3,214.6c1.5-0.9,2.8-2.2,3.6-3.8c0.9-1.6,1.3-3.4,1.3-5.3
	c0-1.9-0.4-3.7-1.3-5.3c-0.8-1.6-2.1-3-3.6-3.9c-3.2-1.9-7.2-1.9-10.5,0c-1.5,0.9-2.8,2.3-3.6,3.8c-0.9,1.6-1.3,3.4-1.3,5.3
	c0,1.9,0.4,3.7,1.3,5.4c0.8,1.6,2.1,2.9,3.6,3.9c1.6,1,3.4,1.5,5.3,1.4C327,216,328.8,215.5,330.3,214.6L330.3,214.6z"/>
<path class="st0" d="M357.6,218.2h-14.9v-25.8c1.5,0,2.7,1.2,2.7,2.7v20.5h12.2L357.6,218.2z"/>
<path class="st0" d="M378.8,193.3c0.5-0.5,1.2-0.8,1.9-0.8v15.7c0,3.3-0.9,5.8-2.5,7.6c-1.9,1.9-4.5,2.9-7.1,2.7
	c-2.7,0.2-5.3-0.8-7.1-2.8c-1.8-2-2.7-4.7-2.5-7.4v-15.8c1.5,0,2.7,1.2,2.7,2.7v13c0,2.7,0.6,4.6,1.9,5.9c1.4,1.3,3.2,2,5.1,1.9
	c1.9,0.1,3.8-0.6,5.1-2c1.3-1.6,1.9-3.6,1.8-5.6v-13.1C378,194.5,378.2,193.8,378.8,193.3z"/>
<path class="st0" d="M401.9,193.2c0.5,0.5,0.8,1.1,0.7,1.8h-8.6v23.2h-2.7V195h-6.1c-0.7,0-1.3-0.3-1.8-0.8
	c-0.5-0.5-0.7-1.1-0.7-1.8h17.4C400.8,192.5,401.4,192.7,401.9,193.2z"/>
<path class="st0" d="M406.1,192.5h2.7v25.8h-2.7V192.5z"/>
<path class="st0" d="M433.1,194c1.9,1.1,3.5,2.8,4.6,4.7c1.1,2,1.7,4.3,1.7,6.6c0,2.3-0.6,4.6-1.7,6.7c-1.1,2-2.7,3.6-4.7,4.8
	c-2,1.2-4.3,1.8-6.6,1.8c-4.6,0.1-8.9-2.4-11.2-6.4c-1.1-2-1.7-4.3-1.7-6.6c0-2.3,0.6-4.6,1.7-6.7c1.1-2,2.7-3.6,4.7-4.8
	c2-1.2,4.3-1.8,6.6-1.8C428.8,192.2,431.1,192.8,433.1,194z M431.7,214.6c1.5-0.9,2.8-2.2,3.6-3.8c0.9-1.6,1.3-3.4,1.3-5.3
	c0-1.9-0.4-3.7-1.3-5.3c-0.8-1.6-2.1-3-3.6-3.9c-4.7-2.9-10.8-1.4-13.7,3.2c-0.1,0.2-0.2,0.4-0.3,0.6c-0.9,1.6-1.3,3.4-1.3,5.3
	c0,1.9,0.4,3.7,1.3,5.4c0.8,1.6,2.1,2.9,3.6,3.9c1.6,1,3.4,1.5,5.3,1.4C428.4,216,430.1,215.5,431.7,214.6L431.7,214.6z"/>
<path class="st0" d="M464.1,193.3c0.5,0.5,0.8,1.2,0.8,1.9v23.1c-0.9,0-1.8-0.2-2.6-0.6c-0.8-0.4-1.5-1-2-1.7l-13.8-19.6v22
	c-1.5,0-2.6-1.2-2.7-2.6c0,0,0,0,0,0v-23.1c1,0,1.9,0.2,2.8,0.7c0.9,0.4,1.6,1.1,2.1,1.9l13.4,19v-21.5
	C462.9,192.5,463.6,192.8,464.1,193.3z"/>
<path class="st0" d="M486.4,208.6c0.3,0.7,0.5,1.5,0.5,2.3c0,1.4-0.4,2.8-1.1,4c-0.8,1.1-1.8,2.1-3.1,2.6c-1.4,0.6-2.9,0.9-4.4,0.9
	c-3,0-5.8-1.4-7.6-3.8c-0.8-1-1.3-2.2-1.4-3.5c0.3-0.1,0.5-0.1,0.8-0.1c0.5,0,1,0.2,1.5,0.4c0.5,0.3,0.8,0.7,1.1,1.1
	c0.6,1,1.4,1.8,2.4,2.4c1,0.6,2.1,0.9,3.3,0.9c1.5,0,2.9-0.4,4.1-1.2c1.1-0.8,1.8-2.1,1.7-3.5c0.1-1.2-0.5-2.4-1.4-3.1
	c-0.9-0.7-2-1.2-3.2-1.4l-3.4-0.7c-0.8-0.2-1.5-0.4-2.3-0.8c-0.8-0.4-1.5-0.8-2.1-1.4c-1.2-1.2-1.9-2.8-1.8-4.5
	c0-1.3,0.4-2.7,1.1-3.8c0.8-1.1,1.8-2,3-2.5c1.2-0.6,2.6-0.9,4-0.9c1.5,0,3.1,0.3,4.4,0.9c1.1,0.5,2.1,1.3,2.8,2.3
	c0.6,0.9,1.1,1.9,1.3,2.9h-0.2c-0.2,0-0.5,0.1-0.7,0.1c-0.5,0-0.9-0.1-1.4-0.3c-0.4-0.2-0.7-0.5-1-0.9c-1.2-1.7-3.2-2.7-5.2-2.6
	c-0.2,0-0.6,0-1.1,0.1c-1.2,0.1-2.3,0.6-3.1,1.5c-0.8,0.8-1.3,1.9-1.3,3.1c0,0.9,0.3,1.9,0.9,2.6c0.7,0.8,1.7,1.3,2.8,1.4l3.3,0.6
	c1,0.2,1.9,0.4,2.8,0.8c0.8,0.3,1.6,0.8,2.2,1.4C485.5,206.8,486,207.7,486.4,208.6z"/>
<path class="st1" d="M176.5,167.2h-28.4l-53.7-119l-30.5,67.4h24.6c8.8,0,16.9,5.2,20.5,13.2l5.7,12.6H52.3l-11.6,25.8H12.4
	L80.2,16.8h28.3L176.5,167.2z"/>
<path class="st1" d="M361.6,59.8c5.5-2.2,11.4-3.3,17.3-3.2v25.8c-8.2-0.2-16.2,3.1-21.9,9c-5.8,5.8-9,13.7-9,21.9v39.2
	c0,8.1-6.6,14.7-14.7,14.7h-11V59.5H348v8.4C352.1,64.6,356.7,61.8,361.6,59.8z"/>
<path class="st1" d="M300.9,91.3c-2.6-6.7-6.5-12.8-11.4-18c-4.9-5.2-10.8-9.3-17.3-12.2c-6.9-3-14.3-4.5-21.8-4.4
	c-6.4-0.1-12.7,1-18.7,3.3c-5.2,2-10,4.7-14.4,8.2v-8.6h-25.8v158.1h11c8.1,0,14.8-6.6,14.8-14.8l0,0v-89.5
	c-0.1-17,13.7-30.9,30.7-30.9c0.1,0,0.2,0,0.3,0c8.2,0,16.1,3.2,21.9,9c12,12.1,12,31.6,0,43.6c-2.9,2.9-6.3,5.2-10.1,6.8
	c-3.8,1.5-7.8,2.3-11.8,2.2c-1.3,0-2.6-0.1-3.8-0.2c-2.6-0.2-5,1.3-6,3.7l-7.6,18.9c6.3,2.4,12.9,3.6,19.6,3.5
	c7.5,0.1,14.9-1.4,21.8-4.4c6.5-2.8,12.4-7,17.3-12.1c4.9-5.2,8.8-11.3,11.4-18C306.3,121.2,306.3,105.6,300.9,91.3L300.9,91.3z"/>
<path class="st1" d="M441.2,56.7c7.6-0.1,15.1,1.4,22.1,4.4c13.6,5.7,24.4,16.6,30.2,30.2c5.9,14.1,5.9,29.9,0,44
	c-5.7,13.6-16.6,24.4-30.2,30.2c-14.2,5.9-30.1,5.9-44.3,0c-13.6-5.7-24.4-16.6-30.2-30.2c-5.9-14.1-5.9-29.9,0-44
	c5.7-13.6,16.5-24.4,30.1-30.2C426,58.2,433.6,56.7,441.2,56.7z M441.2,82.5c-17-0.1-30.9,13.7-30.9,30.7c0,0.1,0,0.2,0,0.3
	c-0.1,8.2,3.1,16,9,21.7c2.8,3,6.2,5.3,10,6.8c3.8,1.5,7.8,2.3,11.9,2.2c4.1,0,8.1-0.7,11.8-2.3c3.8-1.5,7.2-3.8,10.1-6.8
	c12-12,12-31.6,0-43.6C457.3,85.7,449.4,82.5,441.2,82.5z"/>
</svg>
