<?xml version="1.0" encoding="utf-8"?>
<!-- Generator: Adobe Illustrator 26.0.1, SVG Export Plug-In . SVG Version: 6.00 Build 0)  -->
<svg version="1.1" id="Layer_1" xmlns="http://www.w3.org/2000/svg" xmlns:xlink="http://www.w3.org/1999/xlink" x="0px" y="0px"
	 viewBox="0 0 510.2 235.3" style="enable-background:new 0 0 510.2 235.3;" xml:space="preserve">
<style type="text/css">
	.st0{fill:#00B6DA;}
	.st1{fill:#FFFFFF;}
</style>
<path class="st0" d="M444.5,164.1h-23.4l0.3-1.6c0.6-3.4-1.6-6.6-5-7.2c-0.4-0.1-0.7-0.1-1.1-0.1H220.3c-4.3,0-7.8,3.2-8.4,7.4
	l-4.4,35.8c-0.3,2.7,1.7,5.2,4.4,5.5c0.2,0,0.3,0,0.5,0h231.2c1.2,0.1,2.3-0.8,2.4-2.1s-0.8-2.3-2.1-2.4c-0.1,0-0.2,0-0.3,0h-40.1
	l0.8-4.4h11.2l1.3-7h-11.2l0.8-4.4h24.3c1.2,0,2.2-0.9,2.3-2.1c0.1-1.2-0.9-2.3-2.1-2.3c0,0-0.1,0-0.1,0h-12.3l1.1-6.2h-11.3
	l0.8-4.4h35.5c1.2,0,2.2-1,2.2-2.2l0,0l0,0C446.7,165.1,445.7,164.1,444.5,164.1z"/>
<path class="st0" d="M450.3,199.6h3.1c1.2,0,2.2,1,2.2,2.2v0c0,1.2-1,2.2-2.2,2.2h-3.1c-1.2,0-2.2-1-2.2-2.2v0
	C448,200.6,449,199.6,450.3,199.6z"/>
<path class="st0" d="M438.1,179.2c-1.2,0.1-2.2,1.1-2.1,2.4c0.1,1.1,1,2,2.1,2.1h3.2c1.2,0.1,2.3-0.8,2.4-2.1s-0.8-2.3-2.1-2.4
	c-0.1,0-0.2,0-0.3,0H438.1z"/>
<path class="st0" d="M452.6,164.1h12.6c1.2,0,2.2,1,2.2,2.2v0c0,1.2-1,2.2-2.2,2.2h-12.6c-1.2,0-2.2-1-2.2-2.2v0
	C450.4,165.1,451.4,164.1,452.6,164.1z"/>
<path class="st1" d="M167.3,144.1h-21.6l-40.9-90.7l-23.2,51.4h18.7c6.7,0,12.8,4,15.6,10.1l4.3,9.6H72.6l-8.8,19.6H42.2L93.9,29.5
	h21.6L167.3,144.1z"/>
<path class="st1" d="M308.3,62.3c4.2-1.7,8.7-2.5,13.2-2.5v19.6c-6.3-0.1-12.3,2.4-16.7,6.9c-4.4,4.4-6.9,10.4-6.9,16.7v29.9
	c0,6.2-5,11.2-11.2,11.2h-8.4v-82h19.6v6.4C301.1,65.9,304.6,63.8,308.3,62.3z"/>
<path class="st1" d="M262,86.3c-2-5.1-4.9-9.8-8.7-13.8c-7.7-8.2-18.5-12.7-29.8-12.6c-4.9-0.1-9.7,0.7-14.2,2.5
	c-4,1.5-7.7,3.6-11,6.2v-6.6h-19.6v120.5h8.4c6.2,0,11.2-5,11.2-11.2c0,0,0,0,0,0v-68.2c-0.1-13,10.4-23.5,23.4-23.6
	c0.1,0,0.1,0,0.2,0c6.3,0,12.3,2.4,16.7,6.9c9.2,9.2,9.2,24.1,0,33.2c-2.2,2.2-4.8,4-7.7,5.2c-2.9,1.2-5.9,1.7-9,1.7
	c-1,0-2-0.1-2.9-0.2c-2-0.2-3.9,1-4.6,2.8l-5.8,14.4c4.8,1.8,9.8,2.7,14.9,2.6c5.7,0.1,11.4-1.1,16.6-3.4c5-2.2,9.5-5.3,13.2-9.2
	c3.7-4,6.7-8.7,8.7-13.8c2.1-5.3,3.1-11,3.1-16.7C265.2,97.4,264.2,91.7,262,86.3z"/>
<path class="st1" d="M369,60c5.8,0,11.5,1.1,16.9,3.4c10.4,4.4,18.6,12.6,23,23c2.3,5.3,3.4,11.1,3.4,16.9c0,5.7-1.1,11.4-3.4,16.7
	c-4.4,10.4-12.6,18.6-23,23c-10.8,4.5-22.9,4.5-33.7,0c-10.4-4.4-18.6-12.6-23-23c-2.2-5.3-3.4-11-3.4-16.7c0-5.8,1.1-11.5,3.4-16.9
	c4.4-10.4,12.6-18.6,23-23C357.5,61.1,363.2,60,369,60z M369,79.7c-13-0.1-23.5,10.4-23.6,23.4c0,0.1,0,0.1,0,0.2
	c-0.1,6.2,2.4,12.2,6.9,16.5c2.1,2.3,4.7,4,7.6,5.2c2.9,1.1,6,1.7,9.1,1.7c3.1,0,6.1-0.6,9-1.7c2.9-1.2,5.5-2.9,7.7-5.2
	c9.2-9.2,9.2-24.1,0-33.2C381.3,82.1,375.3,79.6,369,79.7L369,79.7z"/>
<path class="st1" d="M251.1,161.1l-3.6,34.4h-6.3l1.5-14.4h-15.3l-1.5,14.4h-6.3l3.6-34.4h6.3l-1.5,13.8h15.3l1.5-13.8H251.1z"/>
<path class="st1" d="M268.4,169c1.8,0,3.6,0.3,5.3,1.1c3.2,1.3,5.6,4,6.6,7.2c0.5,1.7,0.7,3.5,0.5,5.3c-0.2,1.8-0.7,3.6-1.6,5.3
	c-0.9,1.6-2,3.1-3.4,4.3c-1.4,1.2-3,2.2-4.7,2.9c-1.8,0.7-3.6,1.1-5.5,1.1c-1.8,0-3.6-0.3-5.3-1.1c-1.6-0.7-3-1.7-4.1-2.9
	c-1.1-1.3-2-2.7-2.5-4.3c-0.5-1.7-0.7-3.5-0.5-5.3c0.2-1.9,0.7-3.7,1.6-5.3c1.8-3.3,4.7-5.9,8.1-7.2
	C264.6,169.4,266.5,169,268.4,169z M267.7,175.2c-2.1,0-4.1,0.8-5.6,2.2c-1.6,1.3-2.6,3.2-2.8,5.3c-0.3,1.9,0.4,3.8,1.7,5.2
	c0.6,0.7,1.4,1.3,2.3,1.6c0.9,0.4,1.9,0.5,2.9,0.5c1,0,2-0.2,2.9-0.5c1-0.4,1.9-0.9,2.6-1.6c1.6-1.3,2.5-3.2,2.8-5.2
	c0.3-1.9-0.3-3.9-1.7-5.3C271.5,175.9,269.7,175.1,267.7,175.2L267.7,175.2z"/>
<path class="st1" d="M294,179.5c0.7,0.2,1.3,0.4,2,0.7c1,0.4,2,1,2.9,1.6c1,0.7,1.8,1.5,2.4,2.5c0.7,1.1,1,2.3,0.8,3.6
	c-0.1,1.2-0.4,2.3-1,3.3c-0.5,1-1.2,1.9-2,2.6c-0.9,0.8-1.9,1.4-3,1.8c-1.2,0.4-2.5,0.6-3.9,0.6c-2,0-4-0.4-5.8-1.1
	c-1.6-0.6-3-1.6-4.1-2.8l4.8-4.3c0.7,1,1.6,1.7,2.7,2.1c0.8,0.3,1.7,0.4,2.5,0.5c0.9,0.1,1.7-0.2,2.5-0.6c0.5-0.3,0.9-0.9,1-1.5
	c0-0.4-0.1-0.8-0.4-1.1c-0.3-0.3-0.7-0.6-1.1-0.8c-0.4-0.2-0.9-0.4-1.4-0.5c-0.5-0.1-0.9-0.2-1.2-0.3l-2-0.7c-1-0.4-2-0.9-2.9-1.5
	c-1-0.6-1.9-1.5-2.6-2.5c-0.7-1.1-1-2.4-0.8-3.6c0.1-1.3,0.5-2.6,1.1-3.8c0.6-1,1.4-1.9,2.3-2.6c0.9-0.7,2-1.2,3-1.5
	c1.1-0.3,2.3-0.5,3.4-0.5c2.6-0.1,5.2,0.6,7.4,2c0.8,0.6,1.5,1.2,2.1,2l-4.9,4.3c-0.5-0.8-1.2-1.5-2.1-2c-0.8-0.4-1.7-0.6-2.6-0.6
	c-0.8,0-1.5,0.2-2.2,0.5c-0.7,0.3-1.2,0.9-1.2,1.7c0,0.4,0.1,0.8,0.4,1.1c0.3,0.3,0.7,0.5,1.1,0.7c0.5,0.2,0.9,0.4,1.4,0.5
	L294,179.5z"/>
<path class="st1" d="M319.6,195.5h-5.8c-1.1,0-2.3-0.2-3.3-0.7c-1-0.4-1.9-1-2.6-1.9c-0.7-0.8-1.2-1.7-1.6-2.7
	c-0.4-1.1-0.5-2.2-0.3-3.3l2.7-25.9h6.3l-1,8.6h5.2l-0.5,6.2h-5.3l-1.1,11.1c-0.2,1.1,0.6,2.1,1.7,2.3c0.1,0,0.3,0,0.4,0h4.2
	L319.6,195.5z"/>
<path class="st1" d="M323,195.5l2.7-25.8h6.3l-2.7,25.8H323z M326.6,161h6.3l-0.6,6H326L326.6,161z"/>
<path class="st1" d="M350.4,169c1.6,0,3.1,0.3,4.6,0.9c1.3,0.6,2.4,1.5,3.3,2.6c0.9,1.2,1.5,2.5,1.9,3.9c0.4,1.6,0.5,3.2,0.3,4.8
	l-1.5,14.3h-6.3l1.5-14.3c0.2-1.6-0.3-3.2-1.4-4.3c-1.1-1.2-2.6-1.8-4.1-1.8c-1.7,0-3.3,0.6-4.5,1.8c-1.3,1.1-2.1,2.6-2.2,4.3
	l-1.5,14.3h-6.3l2.7-25.8h6.3l-0.2,2c1-0.8,2.2-1.4,3.4-1.9C347.6,169.3,349,169,350.4,169z"/>
<path class="st1" d="M390.7,192.9c-0.2,1.8-0.7,3.6-1.6,5.3c-0.9,1.6-2,3.1-3.4,4.3c-1.4,1.2-3,2.2-4.7,2.9
	c-1.8,0.7-3.6,1.1-5.5,1.1c-1.5,0-3-0.2-4.4-0.7c-1.3-0.5-2.6-1.2-3.7-2.1l5-4.4c1.1,0.7,2.4,1,3.7,1c4.2-0.1,7.8-3.2,8.3-7.4
	l1.1-10.4c0.5-3.6-2.1-6.9-5.7-7.4c-0.4,0-0.7-0.1-1.1,0c-2.1,0-4.1,0.8-5.6,2.2c-1.5,1.4-2.5,3.2-2.8,5.3c-0.3,1.9,0.3,3.8,1.7,5.3
	c1.3,1.4,3.2,2.2,5.1,2.2c1,0,2-0.2,2.9-0.5l1.8,5.8c-1.7,0.6-3.4,0.9-5.2,0.9h-0.1c-1.8,0-3.6-0.3-5.2-1.1c-3.2-1.4-5.6-4-6.6-7.3
	c-0.6-1.7-0.8-3.5-0.5-5.3c0.2-1.8,0.7-3.6,1.5-5.3c0.8-1.6,1.8-3.1,3.1-4.3c1.3-1.2,2.8-2.2,4.4-2.9c1.7-0.7,3.5-1.1,5.3-1.1
	c1.6,0,3.2,0.2,4.8,0.8c1.3,0.5,2.4,1.2,3.5,2l0.2-2h6.3L390.7,192.9z"/>
</svg>
