<?xml version="1.0" encoding="utf-8"?>
<!-- Generator: Adobe Illustrator 26.0.1, SVG Export Plug-In . SVG Version: 6.00 Build 0)  -->
<svg version="1.1" id="Layer_1" xmlns="http://www.w3.org/2000/svg" xmlns:xlink="http://www.w3.org/1999/xlink" x="0px" y="0px"
	 viewBox="0 0 510.2 235.3" style="enable-background:new 0 0 510.2 235.3;" xml:space="preserve">
<style type="text/css">
	.st0{fill:#FFFFFF;}
	.st1{fill:#04B5D8;}
	.st2{fill:#FCFCFC;}
</style>
<path class="st0" d="M183.5,120.2c2.7-1.1,5.6-1.6,8.5-1.6l-1.5,12.4c-4.1,0-8.1,1.5-11.1,4.4c-3.1,2.7-5.1,6.5-5.6,10.6l-2.4,19.9
	c-0.5,3.4-3.4,6-6.9,6.1h-6.3l3.1-26l3.1-25.9H177l-0.5,4.1C178.7,122.5,181.1,121.2,183.5,120.2"/>
<path class="st0" d="M199.8,101.6h12.4l-1.5,12.4h-12.4L199.8,101.6z M191.3,172l6.3-51.8H210l-6.3,51.8H191.3z"/>
<path class="st0" d="M264.8,166.8c-0.4,3.7-1.6,7.3-3.4,10.6c-1.8,3.3-4.1,6.2-6.9,8.7c-2.8,2.5-6,4.5-9.5,5.9
	c-3.5,1.4-7.2,2.2-10.9,2.2c-2.9,0-5.9-0.5-8.6-1.4c-2.6-0.9-5-2.4-7.2-4.1l6-5.3c2-1.9,4.8-2.6,7.4-2.1c1.3,0.4,2.6,0.5,3.9,0.5
	c4.1,0,8.1-1.6,11.1-4.5c3.1-2.7,5.1-6.4,5.6-10.5l2.6-20.8c0.5-3.8-0.6-7.7-3.1-10.6c-2.5-2.9-6.2-4.5-10-4.4
	c-4.1,0-8.1,1.6-11.1,4.4c-3.1,2.7-5.1,6.5-5.7,10.6c-0.6,3.8,0.5,7.7,3.1,10.6c2.5,2.8,6.2,4.4,10,4.4h3.4c1.5,0,2.9,1,3.3,2.4
	l2.3,8.1c-3.3,1.2-6.8,1.9-10.3,1.9h-0.2c-3.6,0-7.1-0.7-10.3-2.1c-3.1-1.4-5.8-3.4-8-5.9c-2.2-2.5-3.9-5.5-4.9-8.7
	c-1.1-3.5-1.4-7.1-0.9-10.7c0.4-3.7,1.5-7.3,3.2-10.7c1.6-3.3,3.7-6.2,6.3-8.7c2.5-2.5,5.5-4.5,8.8-5.8c3.3-1.4,6.9-2.2,10.6-2.1
	c5.9-0.2,11.6,1.8,16.1,5.6l0.5-4h12.4L264.8,166.8z"/>
<path class="st0" d="M294.5,139.9c1.4,0.4,2.7,0.9,4,1.4c2,0.8,3.8,1.9,5.6,3.2c1.9,1.4,3.5,3,4.7,5c1.3,2.1,1.8,4.7,1.4,7.1
	c-0.3,2.3-0.9,4.6-2,6.6c-2.1,4.2-5.8,7.3-10.2,8.8c-2.4,0.9-5,1.3-7.6,1.2c-3.9,0.1-7.9-0.7-11.5-2.3c-3.1-1.3-5.8-3.2-8.1-5.6
	l5.4-4.8c2-1.9,4.9-2.2,7.2-0.8c0.7,0.5,1.5,0.9,2.2,1.1c1.6,0.6,3.3,0.9,5,0.9c1.7,0.1,3.5-0.3,4.9-1.2c1-0.7,1.7-1.8,1.9-3
	c0.1-0.8-0.2-1.6-0.8-2.2c-0.6-0.6-1.4-1.2-2.2-1.6c-0.9-0.4-1.8-0.8-2.7-1c-0.9-0.2-1.7-0.5-2.3-0.7c-0.8-0.3-2.1-0.8-4-1.4
	c-2-0.8-3.9-1.8-5.6-3c-1.9-1.3-3.5-3-4.7-5c-1.3-2.2-1.8-4.8-1.4-7.3c0.3-2.6,1.1-5.2,2.4-7.5c1.2-2,2.8-3.8,4.6-5.2
	c1.8-1.4,3.9-2.4,6.1-3.1c2.2-0.7,4.5-1,6.8-1c3-0.1,6,0.3,8.8,1.2c2,0.7,3.9,1.6,5.7,2.7c1.6,1.1,2.9,2.4,4.1,3.9l-5.4,4.8
	c-2,1.9-5.1,2.2-7.4,0.6c-0.3-0.2-0.7-0.5-1-0.6c-1.6-0.8-3.4-1.3-5.1-1.2c-1.5,0-3,0.3-4.4,1c-1.4,0.5-2.4,1.8-2.5,3.3
	c-0.1,0.8,0.1,1.6,0.7,2.1c0.6,0.6,1.3,1.1,2.1,1.4c0.9,0.4,1.8,0.7,2.7,1C292.8,139.4,293.7,139.6,294.5,139.9"/>
<path class="st0" d="M115.4,13.6l-8.8,72.3H89.3l4.4-36.1c0.8-5.3-0.7-10.7-4.3-14.7c-3.5-4-8.7-6.3-14-6.1c-2.8,0-5.6,0.5-8.2,1.6
	c-2.6,1.1-5.1,2.6-7.2,4.5c-4.4,3.7-7.2,9-7.8,14.7c-0.8,5.3,0.8,10.6,4.3,14.6c1.6,2,3.8,3.6,6.2,4.6c2.5,1,5.1,1.5,7.8,1.5h4.8
	c2.1-0.1,4,1.3,4.5,3.3l3,10.7c-5,2.3-10.4,3.4-15.8,3.3c-4.9,0.1-9.8-1-14.3-3c-4.1-1.9-7.7-4.7-10.6-8.1c-2.9-3.6-5-7.7-6.2-12.1
	c-1.3-4.8-1.6-9.8-1-14.7c0.6-5.2,2.2-10.2,4.5-14.8c2.3-4.5,5.4-8.6,9.1-12.1c3.7-3.5,8-6.2,12.6-8.1c4.8-2,9.9-3,15-2.9
	c4.2-0.1,8.4,0.6,12.3,2.2c3.3,1.3,6.3,3.2,9,5.5l0.7-5.8L115.4,13.6z"/>
<path class="st0" d="M165.3,11.7c4.9-0.1,9.8,0.9,14.3,2.9c4.1,1.9,7.7,4.7,10.6,8.2c2.9,3.6,5,7.7,6.2,12.2
	c1.3,4.8,1.6,9.9,0.9,14.9c-0.6,5.1-2.1,10.1-4.5,14.7c-2.3,4.5-5.4,8.6-9.1,12.1c-3.7,3.5-7.9,6.2-12.6,8.2c-4.7,2-9.8,3-15,3
	c-5.2,0.1-10.3-1-15-3.3l5.5-10.6c1.3-2.5,4-4,6.8-3.7c1.1,0.2,2.3,0.3,3.4,0.2c2.8,0,5.5-0.5,8.1-1.5c2.7-1.1,5.2-2.6,7.3-4.6
	c4.4-3.7,7.1-9,7.8-14.7c0.8-5.3-0.7-10.7-4.3-14.7c-3.6-4-8.7-6.2-14-6.1c-5.7,0-11.3,2.2-15.4,6.1c-4.4,3.7-7.2,9-7.9,14.7
	l-3.7,30.3l-3.2,26.6c-0.6,4.5-4.4,7.9-9,8h-9.3l12.3-101.2h17.3l-0.7,5.8c3.2-2.3,6.7-4.1,10.3-5.5
	C156.6,12.4,160.9,11.7,165.3,11.7"/>
<path class="st0" d="M236.1,13.7c3.8-1.5,7.8-2.2,11.9-2.2l-2.1,17.3c-5.7,0-11.3,2.2-15.5,6.1c-4.3,3.8-7.1,9-7.9,14.7l-3.4,27.7
	c-0.7,4.8-4.7,8.4-9.5,8.5h-8.8l4.4-36.2l4.4-36.1H227l-0.7,5.6C229.3,17,232.7,15.2,236.1,13.7"/>
<path class="st0" d="M286.2,11.7c5-0.1,9.9,0.9,14.5,2.9c8.6,3.8,15.2,11.2,17.8,20.3c1.4,4.8,1.8,9.9,1.2,14.9
	c-0.6,5.2-2.2,10.2-4.7,14.7c-5,9.2-13,16.3-22.7,20.3c-4.8,2-10,3-15.2,3c-5,0.1-9.9-1-14.5-3c-8.6-3.8-15.2-11.2-17.8-20.3
	c-1.4-4.8-1.8-9.8-1.2-14.7c0.6-5.2,2.2-10.3,4.8-14.9c5-9.2,13-16.4,22.8-20.3C275.8,12.7,281,11.7,286.2,11.7 M284.1,29
	c-5.7,0-11.3,2.2-15.5,6.1c-4.4,3.7-7.2,9-7.8,14.7c-0.8,5.3,0.8,10.6,4.3,14.6c1.6,2,3.8,3.6,6.2,4.6c2.5,1,5.1,1.5,7.8,1.5
	c2.8,0,5.5-0.5,8.1-1.5c2.7-1.1,5.2-2.6,7.3-4.6c4.3-3.7,7.1-8.9,7.8-14.6c0.8-5.3-0.7-10.7-4.3-14.7
	C294.5,31.1,289.4,28.9,284.1,29"/>
<path class="st1" d="M462.4,136.7c-5.7,0-10.8,3.7-12.6,9.1h-63.5c-2.3,0.1-4.1,2.1-4,4.4c0.1,2.2,1.8,3.9,4,4h63.5
	c2.3,7,9.9,10.8,16.8,8.5c7-2.3,10.8-9.9,8.5-16.8C473.2,140.4,468.1,136.7,462.4,136.7 M462.4,157.1c-3.9,0-7-3.1-7-7s3.1-7,7-7
	s7,3.1,7,7S466.3,157.1,462.4,157.1"/>
<path class="st1" d="M421.5,164.1c-5.9,0-11.1,3.9-12.8,9.6h-49.4c-2.3-0.1-4.3,1.7-4.4,4s1.7,4.3,4,4.4c0.1,0,0.3,0,0.4,0H409
	c2.6,6.9,10.2,10.4,17.1,7.9c6.9-2.6,10.4-10.2,7.9-17.1C432,167.5,427.1,164,421.5,164.1 M421.5,184.4c-3.6,0-6.6-2.7-7-6.3
	c0-0.1,0-0.2,0-0.2c0-0.2,0-0.5-0.1-0.7c0.1-3.9,3.4-6.9,7.3-6.7c3.9,0.1,6.9,3.4,6.7,7.3C428.3,181.4,425.2,184.4,421.5,184.4"/>
<path class="st1" d="M415.6,105c-6,0-11.1,4.1-12.6,9.8h-44.6l0.8-4.6c1.3-7.3-3.5-14.2-10.8-15.6c-0.8-0.1-1.6-0.2-2.4-0.2H177.4
	c-12.4,0-22.9,9.3-24.4,21.6l-10.2,84.1h246.4c2.7,0.1,4.9-1.9,5-4.6c0.1-2.7-1.9-4.9-4.6-5c-0.1,0-0.3,0-0.4,0h-68.9l1.8-9.6h24.3
	l2.8-15.1h-24.3l1.8-10.6h42.7c2.5,0.1,4.6-1.7,5-4.1c0.5-3.1-2.1-4.7-5-4.7h-16.8l2.7-14.3h-24.6l1.7-8.7h71.4
	c2.9,6.5,10.6,9.5,17.2,6.5c6.5-2.9,9.5-10.6,6.5-17.2C425.3,108,420.7,105,415.6,105 M179.4,135.4c-3.1,2.7-5.1,6.5-5.6,10.6
	l-2.4,19.9c-0.5,3.4-3.4,6-6.9,6.1h-6.3l3.1-26l3.1-25.9H177l-0.5,4.1c2.2-1.6,4.5-2.9,7.1-3.9c2.7-1.1,5.6-1.6,8.5-1.6l-1.5,12.4
	C186.5,131.1,182.5,132.6,179.4,135.4 M203.7,172h-12.4l6.3-51.8H210L203.7,172z M210.7,114.1h-12.4l1.5-12.4h12.4L210.7,114.1z
	 M264.7,166.8c-0.5,3.7-1.6,7.3-3.4,10.6c-1.8,3.3-4.1,6.2-6.9,8.7c-2.8,2.5-6,4.5-9.4,5.9c-3.5,1.4-7.2,2.2-10.9,2.2
	c-2.9,0-5.9-0.5-8.6-1.4c-2.6-0.9-5-2.4-7.2-4.1l6-5.3c2-1.9,4.8-2.6,7.4-2.1c1.3,0.4,2.6,0.5,3.9,0.5c4.1,0,8.1-1.6,11.1-4.5
	c3.1-2.7,5.1-6.4,5.6-10.5l2.6-20.8c0.5-3.8-0.6-7.7-3.1-10.6c-2.5-2.9-6.2-4.5-10-4.4c-4.1,0-8.1,1.6-11.1,4.4
	c-3.1,2.7-5.1,6.5-5.7,10.6c-0.6,3.8,0.5,7.7,3.1,10.6c2.5,2.8,6.2,4.4,10,4.4h3.4c1.5,0,2.9,1,3.3,2.4l2.3,8.1
	c-3.3,1.2-6.8,1.9-10.3,1.9h-0.2c-3.5,0-7.1-0.7-10.3-2.1c-3.1-1.4-5.8-3.4-8-5.9c-2.2-2.5-3.9-5.5-4.9-8.7
	c-1.1-3.5-1.4-7.1-0.9-10.7c0.4-3.7,1.5-7.3,3.2-10.7c1.6-3.3,3.7-6.2,6.3-8.7c2.5-2.5,5.5-4.5,8.8-5.8c3.3-1.4,6.9-2.2,10.6-2.1
	c5.9-0.2,11.6,1.8,16.1,5.6l0.5-4h12.4L264.7,166.8z M287,136.7c0.6,0.6,1.3,1.1,2.1,1.4c0.9,0.4,1.8,0.7,2.7,1l2.7,0.7
	c1.4,0.4,2.7,0.9,4,1.4c2,0.8,3.8,1.9,5.6,3.2c1.9,1.3,3.5,3,4.7,5c1.3,2.1,1.8,4.7,1.4,7.1c-0.3,2.3-0.9,4.6-2,6.6
	c-2.1,4.2-5.8,7.3-10.2,8.8c-2.4,0.9-5,1.3-7.6,1.2c-3.9,0.1-7.9-0.7-11.5-2.3c-3.1-1.2-5.8-3.2-8.1-5.6l5.4-4.8
	c2-1.9,4.9-2.2,7.2-0.8c0.7,0.5,1.5,0.9,2.2,1.1c1.6,0.6,3.3,0.9,5,0.9c1.7,0.1,3.5-0.3,4.9-1.2c1-0.7,1.7-1.8,1.9-3
	c0.1-0.8-0.2-1.6-0.8-2.2c-0.6-0.6-1.4-1.2-2.2-1.6c-0.9-0.4-1.8-0.8-2.7-1c-0.9-0.2-1.7-0.5-2.3-0.7l-4-1.4c-2-0.8-3.9-1.8-5.6-3
	c-1.9-1.3-3.5-3-4.7-5c-1.3-2.2-1.8-4.8-1.4-7.3c0.3-2.6,1.1-5.2,2.4-7.5c1.2-2,2.8-3.8,4.6-5.2c1.8-1.4,3.9-2.4,6.1-3.1
	c2.2-0.7,4.5-1,6.8-1c3-0.1,6,0.3,8.8,1.2c2,0.7,3.9,1.6,5.7,2.7c1.6,1.1,2.9,2.4,4.1,3.9l-5.4,4.8c-2,1.9-5.1,2.2-7.4,0.6
	c-0.3-0.2-0.7-0.5-1-0.6c-1.6-0.8-3.3-1.3-5.1-1.2c-1.5,0-3,0.3-4.4,1c-1.4,0.5-2.4,1.8-2.5,3.3C286.2,135.3,286.4,136.1,287,136.7
	 M415.6,124.6c-3.7,0-6.7-3-6.7-6.7s3-6.7,6.7-6.7c3.7,0,6.7,3,6.7,6.7c0,0,0,0,0,0C422.3,121.6,419.3,124.6,415.6,124.6"/>
<path class="st0" d="M261.2,218l-0.6-3.2h5.7c1.3,0,2-0.4,2.1-1.1v-0.2c0.1-0.6,0-0.9-0.3-1c-0.5-0.2-1-0.2-1.5-0.2h-11.8l0.6-3.2
	h14c2.5,0,3.6,1.5,3.3,3.2l-0.5,2.6c-0.2,0.8-0.8,1.4-1.6,1.6c0.5,0.1,1.1,0.6,0.9,2l-0.4,2.1c-0.6,2-2.5,3.3-4.6,3.2h-13.9l2-9.8h4
	l-1.4,6.6h7.9c0.5,0,1.1,0,1.6-0.2c0.4-0.2,0.7-0.7,0.7-1.2c0.1-0.3,0-0.7-0.3-0.9c-0.5-0.2-1-0.3-1.5-0.3L261.2,218z"/>
<polygon class="st0" points="308.6,209.1 302.3,209.1 292.5,223.7 297.1,223.7 304.8,212.3 307,220.5 301.2,220.5 302.8,223.7 
	312.4,223.7 "/>
<polygon class="st0" points="277.9,220.5 278.4,218 286.1,218 284.7,214.9 280.4,214.9 278.6,216.9 279.4,213.2 278.2,212.3 
	288.9,212.3 289.2,209.1 276.3,209.1 273.3,223.7 286.8,223.7 287.3,220.5 "/>
<path class="st0" d="M377.4,209.1h-12.1c-1,0-1.8,0.7-2,1.6l-2,9.8c-0.4,1.8,1,3.1,3.3,3.1h9.9c2.4,0,4.1-1.2,4.5-3.1l1.7-8.3
	C381.1,210.5,379.9,209.1,377.4,209.1 M376.5,214.1l-0.9,4.6c-0.2,1.1-1.2,1.9-2.3,1.7h-6.1c-1.3,0-1.8-0.6-1.5-1.7l1.1-5.4
	l-1.5-1.1h9.6C376.2,212.3,376.7,212.9,376.5,214.1"/>
<path class="st0" d="M336.1,209.1h-14l-3,14.6h3.9l2.2-10.6l-1.1-0.9h9.3c0.5,0,1,0.1,1.5,0.3c0.3,0.2,0.4,0.5,0.3,1.1
	c-0.2,0.8-0.9,1.2-2.2,1.2h-6.2l1.5,3.2h5.9c2.3,0,4.2-1.3,4.6-3.1l0.5-2.6C339.7,210.4,338.3,209.1,336.1,209.1"/>
<path class="st2" d="M356.8,209.1h-14.1l-3,14.6h4l2.1-10.6l-1.1-0.9h9.5c0.5,0,1,0.1,1.5,0.3c0.3,0.2,0.4,0.5,0.3,1.1
	c-0.2,0.8-0.9,1.2-2.2,1.2h-6.2l1.5,3.2h1.8l2.9,5.7h4.9l-2.9-5.7c1.8-0.1,3.4-1.3,3.9-3.1l0.5-2.6
	C360.5,210.4,359.1,209.1,356.8,209.1"/>
</svg>
