<?xml version="1.0" encoding="utf-8"?>
<!-- Generator: Adobe Illustrator 26.0.1, SVG Export Plug-In . SVG Version: 6.00 Build 0)  -->
<svg version="1.1" id="Layer_1" xmlns="http://www.w3.org/2000/svg" xmlns:xlink="http://www.w3.org/1999/xlink" x="0px" y="0px"
	 viewBox="0 0 368.5 48" style="enable-background:new 0 0 368.5 48;" xml:space="preserve">
<style type="text/css">
	.st0{fill:#EFEFEF;}
</style>
<g>
	<path class="st0" d="M135.4,36.3h-6.6L116.4,8.8l-7,15.6h5.7c2,0,3.9,1.2,4.7,3.1l1.3,2.9h-14.4l-2.7,6h-6.6l15.7-34.7h6.6
		L135.4,36.3z"/>
	<path class="st0" d="M178.1,11.5c1.2-0.5,2.5-0.7,4-0.7v6c-2,0-3.7,0.7-5.1,2.1c-1.4,1.5-2.1,3.1-2.1,5.1v9.1
		c0,1.9-1.5,3.4-3.4,3.4H169V11.5h6v1.9C175.9,12.6,177,12,178.1,11.5z"/>
	<path class="st0" d="M164.1,18.8c-0.6-1.6-1.5-3-2.6-4.2c-1.1-1.2-2.5-2.1-4-2.8c-1.5-0.7-3.2-1-5-1c-1.6,0-3.1,0.2-4.3,0.7
		c-1.3,0.5-2.4,1.1-3.3,1.9v-2h-6V48h2.5c1.9,0,3.4-1.5,3.4-3.4V23.9c0-2,0.7-3.7,2.1-5.1c1.4-1.4,3.1-2.1,5.1-2.1
		c1.9,0,3.6,0.7,5.1,2.1c1.4,1.4,2.1,3.1,2.1,5.1c0,2-0.7,3.6-2.1,5c-0.7,0.7-1.5,1.2-2.3,1.6c-0.9,0.3-1.8,0.5-2.7,0.5
		c-0.3,0-0.6,0-0.9,0c-0.6-0.1-1.2,0.3-1.4,0.9l-1.8,4.4c1.3,0.5,2.8,0.8,4.5,0.8c1.8,0,3.5-0.3,5-1c1.5-0.7,2.9-1.6,4-2.8
		c1.1-1.2,2-2.6,2.6-4.2c0.6-1.6,0.9-3.3,0.9-5.1C165.1,22.1,164.8,20.4,164.1,18.8z"/>
	<path class="st0" d="M196.5,10.8c1.8,0,3.5,0.3,5.1,1c1.6,0.7,3,1.6,4.2,2.8c1.2,1.2,2.1,2.6,2.8,4.2c0.7,1.6,1,3.3,1,5.1
		c0,1.8-0.3,3.5-1,5.1c-0.7,1.6-1.6,3-2.8,4.2c-1.2,1.2-2.6,2.1-4.2,2.8c-1.6,0.7-3.3,1-5.1,1s-3.5-0.3-5.1-1
		c-1.6-0.7-3-1.6-4.2-2.8c-1.2-1.2-2.1-2.6-2.8-4.2c-0.7-1.6-1-3.3-1-5.1c0-1.8,0.3-3.5,1-5.1c0.7-1.6,1.6-3,2.8-4.2
		c1.2-1.2,2.6-2.1,4.2-2.8C193,11.1,194.7,10.8,196.5,10.8z M196.5,16.8c-2,0-3.7,0.7-5.1,2.1c-1.4,1.4-2.1,3.1-2.1,5.1
		c0,2,0.7,3.6,2.1,5c0.7,0.7,1.4,1.2,2.3,1.6c0.9,0.3,1.8,0.5,2.8,0.5c1,0,1.9-0.2,2.7-0.5c0.9-0.3,1.6-0.9,2.3-1.6
		c1.4-1.4,2.1-3.1,2.1-5c0-2-0.7-3.7-2.1-5.1C200.1,17.5,198.5,16.8,196.5,16.8z"/>
</g>
</svg>
