<!--
  - Copyright (c) 2022. Lorem ipsum dolor sit amet, consectetur adipiscing elit.
  - Morbi non lorem porttitor neque feugiat blandit. Ut vitae ipsum eget quam lacinia accumsan.
  - Etiam sed turpis ac ipsum condimentum fringilla. Maecenas magna.
  - Proin dapibus sapien vel ante. Aliquam erat volutpat. Pellentesque sagittis ligula eget metus.
  - Vestibulum commodo. Ut rhoncus gravida arcu.
  -->

<svg id="Layer_1" data-name="Layer 1" xmlns="http://www.w3.org/2000/svg" viewBox="0 0 595.28 40.94"><defs><style>.cls-1{fill:#00b7db;}.cls-2{fill:#001a2f;}.cls-3{fill:none;stroke:#00b7db;stroke-miterlimit:10;stroke-width:0.75px;}.cls-4{fill:#0b3150;}</style></defs><rect class="cls-1" y="15.66" width="7.09" height="20.66"/><path class="cls-2" d="M44.92,3.05h1l3.49,8.14H48.12l-.82-2H43.43l-.81,2H41.33Zm2,5.16L45.38,4.47h0L43.82,8.21Z"/><path class="cls-2" d="M50,5.74h1v.78h0a2,2,0,0,1,.82-.68,2.56,2.56,0,0,1,1.07-.24,2.81,2.81,0,0,1,1.15.22,2.45,2.45,0,0,1,.87.61,2.73,2.73,0,0,1,.56.91,3.29,3.29,0,0,1,0,2.26,2.65,2.65,0,0,1-1.43,1.51,3,3,0,0,1-1.15.22,2.46,2.46,0,0,1-1.1-.25,1.87,1.87,0,0,1-.79-.67h0v4H50Zm2.83.83a1.79,1.79,0,0,0-.75.14,1.76,1.76,0,0,0-.56.39,1.58,1.58,0,0,0-.36.6,2.32,2.32,0,0,0,0,1.53,1.66,1.66,0,0,0,.36.6,1.76,1.76,0,0,0,.56.39,2,2,0,0,0,.75.14,2,2,0,0,0,.75-.14,1.76,1.76,0,0,0,.56-.39,1.79,1.79,0,0,0,.35-.6,2.32,2.32,0,0,0,0-1.53,1.7,1.7,0,0,0-.35-.6,1.76,1.76,0,0,0-.56-.39,1.86,1.86,0,0,0-.75-.14"/><path class="cls-2" d="M56.77,5.74h1v.84h0a1.38,1.38,0,0,1,.28-.4,1.57,1.57,0,0,1,.38-.3,1.63,1.63,0,0,1,.47-.2,1.81,1.81,0,0,1,.51-.08,1.39,1.39,0,0,1,.46.07l-.05,1.12a1.14,1.14,0,0,0-.25-.06,1.15,1.15,0,0,0-.26,0,1.55,1.55,0,0,0-1.16.43,1.85,1.85,0,0,0-.4,1.32v2.74h-1Z"/><path class="cls-2" d="M60.32,8.46a2.75,2.75,0,0,1,.22-1.11,2.88,2.88,0,0,1,.62-.91,2.93,2.93,0,0,1,.92-.62,2.86,2.86,0,0,1,1.14-.22,2.93,2.93,0,0,1,1.14.22,3,3,0,0,1,.92.62,2.85,2.85,0,0,1,.61.91,2.75,2.75,0,0,1,.22,1.11,2.8,2.8,0,0,1-.22,1.12,2.75,2.75,0,0,1-.61.91,3,3,0,0,1-.92.61,2.94,2.94,0,0,1-1.14.23,2.87,2.87,0,0,1-1.14-.23,2.9,2.9,0,0,1-.92-.61,2.79,2.79,0,0,1-.84-2m1.1,0a2.15,2.15,0,0,0,.13.77,1.66,1.66,0,0,0,.36.6,1.76,1.76,0,0,0,.56.39,2.05,2.05,0,0,0,1.49,0,1.58,1.58,0,0,0,.92-1A2.15,2.15,0,0,0,65,8.46a2.09,2.09,0,0,0-.13-.76,1.85,1.85,0,0,0-2.41-1,1.76,1.76,0,0,0-.56.39,1.66,1.66,0,0,0-.36.6,2.09,2.09,0,0,0-.13.76"/><rect class="cls-2" x="70.42" y="3.05" width="1.1" height="8.14"/><polygon class="cls-2" points="75.08 4.08 72.46 4.08 72.46 3.05 78.81 3.05 78.81 4.08 76.19 4.08 76.19 11.19 75.08 11.19 75.08 4.08"/><path class="cls-2" d="M83,9.49a1.81,1.81,0,0,0,.77.66,2.31,2.31,0,0,0,1,.21,2.23,2.23,0,0,0,.56-.08,1.81,1.81,0,0,0,.52-.26,1.45,1.45,0,0,0,.39-.43A1.11,1.11,0,0,0,86.31,9a.87.87,0,0,0-.3-.72,2.51,2.51,0,0,0-.74-.42c-.3-.11-.62-.22-1-.32a3.8,3.8,0,0,1-1-.43,2.41,2.41,0,0,1-.75-.74,2.3,2.3,0,0,1-.3-1.26,2.21,2.21,0,0,1,.16-.76,2.08,2.08,0,0,1,.49-.74,2.79,2.79,0,0,1,.85-.56,3.38,3.38,0,0,1,1.26-.22A4.5,4.5,0,0,1,86.33,3a2.29,2.29,0,0,1,1.07.75l-.9.82a1.4,1.4,0,0,0-.58-.52,1.89,1.89,0,0,0-.87-.19,2.09,2.09,0,0,0-.76.12,1.33,1.33,0,0,0-.49.31,1.06,1.06,0,0,0-.26.41,1.21,1.21,0,0,0-.07.4,1,1,0,0,0,.3.79,2.44,2.44,0,0,0,.74.45,9.86,9.86,0,0,0,1,.31,4.17,4.17,0,0,1,1,.38,2.26,2.26,0,0,1,.74.67,2,2,0,0,1,.3,1.16,2.38,2.38,0,0,1-.22,1,2.31,2.31,0,0,1-.61.8,2.65,2.65,0,0,1-.89.49,3.4,3.4,0,0,1-1.11.18,4.1,4.1,0,0,1-1.48-.28,2.45,2.45,0,0,1-1.12-.85Z"/><path class="cls-2" d="M88.36,8.46a2.75,2.75,0,0,1,.22-1.11,2.85,2.85,0,0,1,.61-.91,3,3,0,0,1,.92-.62,2.93,2.93,0,0,1,1.14-.22,2.86,2.86,0,0,1,1.14.22,2.93,2.93,0,0,1,.92.62,2.88,2.88,0,0,1,.62.91,2.75,2.75,0,0,1,.22,1.11,2.79,2.79,0,0,1-.84,2,2.9,2.9,0,0,1-.92.61,2.87,2.87,0,0,1-1.14.23,2.94,2.94,0,0,1-1.14-.23,3,3,0,0,1-.92-.61,2.75,2.75,0,0,1-.61-.91,2.8,2.8,0,0,1-.22-1.12m1.1,0a2.15,2.15,0,0,0,.13.77,1.58,1.58,0,0,0,.92,1,2.05,2.05,0,0,0,1.49,0,1.76,1.76,0,0,0,.56-.39,1.66,1.66,0,0,0,.36-.6,2.15,2.15,0,0,0,.13-.77,2.09,2.09,0,0,0-.13-.76,1.66,1.66,0,0,0-.36-.6A1.76,1.76,0,0,0,92,6.71a1.73,1.73,0,0,0-2.41,1,2.09,2.09,0,0,0-.13.76"/><rect class="cls-2" x="95.3" y="2.5" width="1.04" height="8.69"/><path class="cls-2" d="M102.58,11.19h-1v-.84h0a1.5,1.5,0,0,1-.68.71,2.23,2.23,0,0,1-1.11.27,2.37,2.37,0,0,1-.76-.12,1.69,1.69,0,0,1-.63-.38,1.8,1.8,0,0,1-.43-.65,2.38,2.38,0,0,1-.16-.93V5.74h1V9a1.81,1.81,0,0,0,.1.65,1.22,1.22,0,0,0,.27.43,1,1,0,0,0,.4.25,1.49,1.49,0,0,0,.47.07,1.72,1.72,0,0,0,.6-.1,1.29,1.29,0,0,0,.48-.33,1.57,1.57,0,0,0,.32-.57,2.49,2.49,0,0,0,.12-.82V5.74h1Z"/><path class="cls-2" d="M106.84,6.64h-1.49V9.11c0,.15,0,.3,0,.45a1.18,1.18,0,0,0,.09.4.66.66,0,0,0,.23.29.78.78,0,0,0,.45.11,2.43,2.43,0,0,0,.38,0,1.4,1.4,0,0,0,.36-.13v.94a1.36,1.36,0,0,1-.48.15l-.45,0a2.11,2.11,0,0,1-.93-.17,1.07,1.07,0,0,1-.48-.43,1.32,1.32,0,0,1-.18-.59q0-.33,0-.66V6.64h-1.2v-.9h1.2V4.21h1V5.74h1.49Z"/><path class="cls-2" d="M107.78,3.78a.73.73,0,0,1,.22-.53.74.74,0,0,1,.54-.23.72.72,0,0,1,.53.23.74.74,0,0,1,0,1.07.71.71,0,0,1-.53.22.75.75,0,0,1-.76-.76m.24,2h1v5.45h-1Z"/><path class="cls-2" d="M110.21,8.46a2.75,2.75,0,0,1,.22-1.11,2.85,2.85,0,0,1,.61-.91,3,3,0,0,1,.92-.62,2.93,2.93,0,0,1,1.14-.22,2.86,2.86,0,0,1,1.14.22,2.93,2.93,0,0,1,.92.62,2.88,2.88,0,0,1,.62.91A2.75,2.75,0,0,1,116,8.46a2.79,2.79,0,0,1-.84,2,2.9,2.9,0,0,1-.92.61,2.87,2.87,0,0,1-1.14.23A2.94,2.94,0,0,1,112,11.1a3,3,0,0,1-.92-.61,2.75,2.75,0,0,1-.61-.91,2.8,2.8,0,0,1-.22-1.12m1.1,0a2.15,2.15,0,0,0,.13.77,1.58,1.58,0,0,0,.92,1,2.05,2.05,0,0,0,1.49,0,1.76,1.76,0,0,0,.56-.39,1.66,1.66,0,0,0,.36-.6,2.15,2.15,0,0,0,.13-.77,2.09,2.09,0,0,0-.13-.76,1.66,1.66,0,0,0-.36-.6,1.76,1.76,0,0,0-.56-.39,1.73,1.73,0,0,0-2.41,1,2.09,2.09,0,0,0-.13.76"/><path class="cls-2" d="M117.07,5.74h1v.84h0a1.5,1.5,0,0,1,.68-.71,2.23,2.23,0,0,1,1.11-.27,2.46,2.46,0,0,1,.76.12,1.81,1.81,0,0,1,.63.37,1.84,1.84,0,0,1,.43.66,2.38,2.38,0,0,1,.16.93v3.51h-1V8a1.8,1.8,0,0,0-.11-.65,1.27,1.27,0,0,0-.27-.44,1.1,1.1,0,0,0-.4-.24,1.49,1.49,0,0,0-.47-.07,1.63,1.63,0,0,0-.59.1,1.25,1.25,0,0,0-.49.33,1.57,1.57,0,0,0-.32.57,2.48,2.48,0,0,0-.11.81v2.81h-1Z"/><path class="cls-2" d="M126.13,7.11a1.55,1.55,0,0,0-.45-.39,1.34,1.34,0,0,0-.66-.15,1.29,1.29,0,0,0-.64.15.51.51,0,0,0-.27.45.54.54,0,0,0,.15.4,1.31,1.31,0,0,0,.37.24,2.06,2.06,0,0,0,.46.14l.41.08a5.79,5.79,0,0,1,.63.19,1.9,1.9,0,0,1,.5.3A1.28,1.28,0,0,1,127,9a1.56,1.56,0,0,1,.12.64,1.52,1.52,0,0,1-.2.79,1.73,1.73,0,0,1-.5.54,2.66,2.66,0,0,1-.71.3,4.36,4.36,0,0,1-.8.09,3.12,3.12,0,0,1-1.19-.21,2.17,2.17,0,0,1-.92-.76l.79-.64a3.15,3.15,0,0,0,.56.45,1.41,1.41,0,0,0,.76.19,1.87,1.87,0,0,0,.4,0,1.21,1.21,0,0,0,.35-.13.65.65,0,0,0,.25-.21.48.48,0,0,0,.1-.31.56.56,0,0,0-.14-.38.93.93,0,0,0-.35-.23,1.88,1.88,0,0,0-.42-.14l-.4-.09a5.79,5.79,0,0,1-.63-.18,1.78,1.78,0,0,1-.53-.28,1.23,1.23,0,0,1-.37-.44,1.39,1.39,0,0,1-.14-.65,1.47,1.47,0,0,1,.18-.74,1.71,1.71,0,0,1,.47-.53,2.42,2.42,0,0,1,.67-.31,2.76,2.76,0,0,1,.75-.1,2.71,2.71,0,0,1,1.06.21,1.65,1.65,0,0,1,.81.69Z"/><path class="cls-2" d="M131.34,3.05h2.87a3.32,3.32,0,0,1,1.28.21,2.09,2.09,0,0,1,.8.54,1.8,1.8,0,0,1,.41.74,2.63,2.63,0,0,1,0,1.57,1.87,1.87,0,0,1-.41.74,2.09,2.09,0,0,1-.8.54,3.32,3.32,0,0,1-1.28.21h-1.76v3.59h-1.11Zm1.11,3.59h1.44a3.39,3.39,0,0,0,.64-.06,1.54,1.54,0,0,0,.57-.19,1,1,0,0,0,.39-.39,1.37,1.37,0,0,0,.15-.68,1.33,1.33,0,0,0-.15-.67,1.15,1.15,0,0,0-.39-.4,1.73,1.73,0,0,0-.57-.18,3.39,3.39,0,0,0-.64-.06h-1.44Z"/><polygon class="cls-2" points="137.01 5.74 138.21 5.74 139.84 9.91 141.4 5.74 142.51 5.74 140.37 11.19 139.23 11.19 137.01 5.74"/><path class="cls-2" d="M146.11,6.64h-1.49V9.11c0,.15,0,.3,0,.45a1,1,0,0,0,.08.4.66.66,0,0,0,.23.29.84.84,0,0,0,.46.11l.38,0a1.33,1.33,0,0,0,.35-.13v.94a1.36,1.36,0,0,1-.48.15l-.45,0a2.11,2.11,0,0,1-.93-.17,1.19,1.19,0,0,1-.48-.43,1.45,1.45,0,0,1-.18-.59q0-.33,0-.66V6.64h-1.2v-.9h1.2V4.21h1V5.74h1.49Z"/><path class="cls-2" d="M148,11.26a.74.74,0,0,1-.54-.23.76.76,0,0,1,0-1.07.77.77,0,0,1,.54-.22.75.75,0,0,1,.53.22.74.74,0,0,1,0,1.07.72.72,0,0,1-.53.23"/><polygon class="cls-2" points="153.41 3.05 154.51 3.05 154.51 10.15 158.25 10.15 158.25 11.19 153.41 11.19 153.41 3.05"/><path class="cls-2" d="M161.81,6.64h-1.49V9.11c0,.15,0,.3,0,.45a1.18,1.18,0,0,0,.09.4.66.66,0,0,0,.23.29.78.78,0,0,0,.45.11,2.43,2.43,0,0,0,.38,0,1.4,1.4,0,0,0,.36-.13v.94a1.36,1.36,0,0,1-.48.15l-.45,0a2.11,2.11,0,0,1-.93-.17,1.07,1.07,0,0,1-.48-.43,1.32,1.32,0,0,1-.18-.59q0-.33,0-.66V6.64h-1.2v-.9h1.2V4.21h1V5.74h1.49Z"/><path class="cls-2" d="M168.37,11.19h-1v-.78h0a2,2,0,0,1-.82.68,2.56,2.56,0,0,1-1.07.24,2.81,2.81,0,0,1-1.15-.22,2.58,2.58,0,0,1-.87-.61,2.83,2.83,0,0,1-.56-.91,3.15,3.15,0,0,1-.2-1.13,3.24,3.24,0,0,1,.2-1.13,2.58,2.58,0,0,1,1.43-1.51,2.81,2.81,0,0,1,1.15-.22,2.46,2.46,0,0,1,1.1.25,1.87,1.87,0,0,1,.79.67h0v-4h1Zm-2.83-.83a2,2,0,0,0,.75-.14,1.76,1.76,0,0,0,.56-.39,1.66,1.66,0,0,0,.36-.6,2.32,2.32,0,0,0,0-1.53,1.66,1.66,0,0,0-.36-.6,1.76,1.76,0,0,0-.56-.39,1.79,1.79,0,0,0-.75-.14,1.86,1.86,0,0,0-.75.14,1.76,1.76,0,0,0-.56.39,1.79,1.79,0,0,0-.35.6,2.32,2.32,0,0,0,0,1.53,1.79,1.79,0,0,0,.35.6,1.76,1.76,0,0,0,.56.39,2,2,0,0,0,.75.14"/><path class="cls-2" d="M170.52,11.26A.76.76,0,0,1,170,10a.76.76,0,0,1,1.07,0,.76.76,0,0,1,0,1.07.74.74,0,0,1-.54.23"/><path class="cls-2" d="M41.69,23.56,44.08,21c.11-.11.22-.22.33-.35a3.47,3.47,0,0,0,.29-.38,1.9,1.9,0,0,0,.21-.43,1.29,1.29,0,0,0,.08-.49,1.1,1.1,0,0,0-.36-.87,1.32,1.32,0,0,0-.91-.31,1.23,1.23,0,0,0-.83.28,1.28,1.28,0,0,0-.44.76l-.63-.06a1.69,1.69,0,0,1,.67-1.11,2.17,2.17,0,0,1,1.26-.36,2.28,2.28,0,0,1,.7.11,2,2,0,0,1,.59.32,1.51,1.51,0,0,1,.55,1.2,1.91,1.91,0,0,1-.12.68,2.77,2.77,0,0,1-.29.6,4.43,4.43,0,0,1-.43.54l-.48.5-2,2h3.35v.49H41.69Z"/><path class="cls-2" d="M46.38,19.45s0-.1,0-.16,0-.13,0-.2a1.15,1.15,0,0,0,0-.19v-.13h.31a2.35,2.35,0,0,1,0,.26.47.47,0,0,0,0,.16h0a.92.92,0,0,1,.83-.48,1,1,0,0,1,.46.09.63.63,0,0,1,.28.23.75.75,0,0,1,.14.33,1.72,1.72,0,0,1,0,.39v1.44h-.31V19.76a1.33,1.33,0,0,0,0-.28.92.92,0,0,0-.09-.25.52.52,0,0,0-.18-.18.68.68,0,0,0-.31-.06.88.88,0,0,0-.33.06.8.8,0,0,0-.27.18.92.92,0,0,0-.17.31,1.2,1.2,0,0,0-.07.44v1.21h-.31Z"/><path class="cls-2" d="M51.39,20.77h0a1,1,0,0,1-.19.22,1.4,1.4,0,0,1-.24.15,1.07,1.07,0,0,1-.27.09,1.23,1.23,0,0,1-.27,0,1.46,1.46,0,0,1-.52-.09,1.11,1.11,0,0,1-.4-.26,1.46,1.46,0,0,1-.27-.41,1.4,1.4,0,0,1-.09-.51,1.36,1.36,0,0,1,.09-.51,1.46,1.46,0,0,1,.27-.41,1.11,1.11,0,0,1,.4-.26,1.46,1.46,0,0,1,.52-.09,1.23,1.23,0,0,1,.27,0,1.07,1.07,0,0,1,.27.09,1,1,0,0,1,.43.37h0v-2h.31v4h-.31Zm0-.79a1,1,0,0,0-.08-.39,1,1,0,0,0-.22-.31.89.89,0,0,0-.32-.21.85.85,0,0,0-.39-.08.87.87,0,0,0-.4.08,1,1,0,0,0-.31.21.89.89,0,0,0-.19.31,1.12,1.12,0,0,0,0,.78.89.89,0,0,0,.19.31,1,1,0,0,0,.31.21.87.87,0,0,0,.4.08.85.85,0,0,0,.39-.08.89.89,0,0,0,.32-.21,1,1,0,0,0,.22-.31,1,1,0,0,0,.08-.39"/><polygon class="cls-2" points="55.19 17.82 59.01 17.82 59.01 18.36 55.79 18.36 55.79 20.63 58.78 20.63 58.78 21.16 55.79 21.16 55.79 24.19 55.19 24.19 55.19 17.82"/><rect class="cls-2" x="60.09" y="17.39" width="0.54" height="6.81"/><path class="cls-2" d="M61.88,22.11a2.5,2.5,0,0,1,.16-.88,2.17,2.17,0,0,1,.45-.69,1.92,1.92,0,0,1,.7-.45,2.36,2.36,0,0,1,1.76,0,2,2,0,0,1,.69.45,2,2,0,0,1,.45.69,2.36,2.36,0,0,1,0,1.76,1.92,1.92,0,0,1-.45.69,2,2,0,0,1-.69.45,2.36,2.36,0,0,1-1.76,0,1.92,1.92,0,0,1-.7-.45A2.06,2.06,0,0,1,62,23a2.5,2.5,0,0,1-.16-.88m.54,0a2,2,0,0,0,.11.66,1.63,1.63,0,0,0,.33.54,1.76,1.76,0,0,0,.52.37,1.73,1.73,0,0,0,.69.13,1.65,1.65,0,0,0,.68-.13,1.53,1.53,0,0,0,.52-.37,1.36,1.36,0,0,0,.33-.54,1.8,1.8,0,0,0,.12-.66,1.84,1.84,0,0,0-.12-.66,1.36,1.36,0,0,0-.33-.54,1.39,1.39,0,0,0-.52-.36,1.51,1.51,0,0,0-.68-.14,1.66,1.66,0,0,0-1.21.5,1.63,1.63,0,0,0-.33.54,2.08,2.08,0,0,0-.11.66"/><path class="cls-2" d="M67.18,22.11a2.5,2.5,0,0,1,.16-.88,2.17,2.17,0,0,1,.45-.69,1.92,1.92,0,0,1,.7-.45,2.36,2.36,0,0,1,1.76,0,2,2,0,0,1,.69.45,1.88,1.88,0,0,1,.45.69,2.36,2.36,0,0,1,0,1.76,1.8,1.8,0,0,1-.45.69,2,2,0,0,1-.69.45,2.36,2.36,0,0,1-1.76,0,1.92,1.92,0,0,1-.7-.45,2.06,2.06,0,0,1-.45-.69,2.5,2.5,0,0,1-.16-.88m.54,0a1.8,1.8,0,0,0,.12.66,1.46,1.46,0,0,0,.32.54,1.68,1.68,0,0,0,.53.37,1.84,1.84,0,0,0,1.36,0,1.68,1.68,0,0,0,.53-.37,1.46,1.46,0,0,0,.32-.54,1.8,1.8,0,0,0,.12-.66,1.84,1.84,0,0,0-.12-.66,1.46,1.46,0,0,0-.32-.54,1.71,1.71,0,0,0-2.42,0,1.46,1.46,0,0,0-.32.54,1.84,1.84,0,0,0-.12.66"/><path class="cls-2" d="M72.72,21.2c0-.08,0-.17,0-.28s0-.23,0-.34,0-.22,0-.32,0-.17,0-.23h.54c0,.16,0,.31,0,.45a1.35,1.35,0,0,0,0,.28,1.72,1.72,0,0,1,.53-.6,1.3,1.3,0,0,1,.79-.24l.16,0,.16,0-.07.53a.51.51,0,0,0-.2,0,1.41,1.41,0,0,0-.61.12,1.1,1.1,0,0,0-.42.31,1.09,1.09,0,0,0-.25.46,1.79,1.79,0,0,0-.08.57v2.27h-.54Z"/><polygon class="cls-2" points="75.17 23.38 75.8 23.38 75.1 25.43 74.57 25.43 75.17 23.38"/><path class="cls-2" d="M79.75,23a1.53,1.53,0,0,0,.61.6,1.81,1.81,0,0,0,.85.2,1.69,1.69,0,0,0,.56-.09,1.46,1.46,0,0,0,.46-.25,1.27,1.27,0,0,0,.3-.39,1.13,1.13,0,0,0,.11-.52A1,1,0,0,0,82.5,22a1,1,0,0,0-.37-.35,2.14,2.14,0,0,0-.53-.24l-.6-.2a5.33,5.33,0,0,1-.6-.23,1.82,1.82,0,0,1-.53-.33,1.45,1.45,0,0,1-.37-.5,1.75,1.75,0,0,1-.14-.76,1.54,1.54,0,0,1,.17-.75A1.6,1.6,0,0,1,80,18.1a1.74,1.74,0,0,1,.65-.33,2.43,2.43,0,0,1,.77-.11,2.58,2.58,0,0,1,1,.18,1.87,1.87,0,0,1,.77.61l-.51.37a1.57,1.57,0,0,0-.53-.47,1.59,1.59,0,0,0-.72-.15,2,2,0,0,0-.55.07,1.37,1.37,0,0,0-.45.23,1.09,1.09,0,0,0-.43.9,1,1,0,0,0,.25.73,1.6,1.6,0,0,0,.6.41,6.09,6.09,0,0,0,.79.26,4,4,0,0,1,.8.3,1.69,1.69,0,0,1,.6.53,1.49,1.49,0,0,1,.25.93,1.81,1.81,0,0,1-.16.76,1.68,1.68,0,0,1-.44.57,1.79,1.79,0,0,1-.64.34,2.3,2.3,0,0,1-.74.12,2.92,2.92,0,0,1-1.16-.22,2.08,2.08,0,0,1-.91-.74Z"/><path class="cls-2" d="M87.91,23c0,.08,0,.17,0,.28s0,.23,0,.34,0,.22,0,.32a2.11,2.11,0,0,1,0,.23h-.54c0-.16,0-.31,0-.45a1.35,1.35,0,0,0,0-.28h0a1.51,1.51,0,0,1-.54.59,1.62,1.62,0,0,1-.88.25,1.7,1.7,0,0,1-.8-.16,1.19,1.19,0,0,1-.48-.4,1.33,1.33,0,0,1-.24-.57,3.6,3.6,0,0,1-.07-.66V20h.54v2.45a2.63,2.63,0,0,0,.05.49,1.23,1.23,0,0,0,.16.43.89.89,0,0,0,.31.3,1.16,1.16,0,0,0,.53.11,1.5,1.5,0,0,0,.56-.1,1.23,1.23,0,0,0,.46-.32,1.52,1.52,0,0,0,.31-.53,2.37,2.37,0,0,0,.11-.75V20h.54Z"/><path class="cls-2" d="M89.23,20h.54v.73h0a1.39,1.39,0,0,1,.31-.37,2,2,0,0,1,.41-.26,2.19,2.19,0,0,1,.94-.21,2.26,2.26,0,0,1,.88.17,1.92,1.92,0,0,1,.7.45,2.17,2.17,0,0,1,.45.69,2.5,2.5,0,0,1,0,1.76,2.06,2.06,0,0,1-.45.69,1.92,1.92,0,0,1-.7.45,2.26,2.26,0,0,1-.88.17,2.19,2.19,0,0,1-.94-.21,1.66,1.66,0,0,1-.41-.26,1.39,1.39,0,0,1-.31-.37h0v2.78h-.54Zm.49,2.08a1.62,1.62,0,0,0,.13.66,1.73,1.73,0,0,0,.37.54,1.9,1.9,0,0,0,.55.37,1.72,1.72,0,0,0,.68.13,1.7,1.7,0,0,0,.69-.13,1.58,1.58,0,0,0,.85-.91,2,2,0,0,0,.11-.66,2.08,2.08,0,0,0-.11-.66,1.63,1.63,0,0,0-.33-.54,1.47,1.47,0,0,0-.52-.36,1.75,1.75,0,0,0-1.37,0,1.69,1.69,0,0,0-.55.36,1.73,1.73,0,0,0-.37.54,1.65,1.65,0,0,0-.13.66"/><path class="cls-2" d="M94.8,21.2c0-.08,0-.17,0-.28s0-.23,0-.34,0-.22,0-.32a2.11,2.11,0,0,1,0-.23h.54c0,.16,0,.31,0,.45a1.35,1.35,0,0,0,0,.28,1.74,1.74,0,0,1,.54-.6,1.28,1.28,0,0,1,.79-.24l.15,0L97,20l-.06.53a.52.52,0,0,0-.21,0,1.4,1.4,0,0,0-.6.12,1.06,1.06,0,0,0-.43.31,1.36,1.36,0,0,0-.25.46,2.12,2.12,0,0,0-.08.57v2.27H94.8Z"/><path class="cls-2" d="M97.71,18.38a.41.41,0,0,1,.4-.4.38.38,0,0,1,.29.12.36.36,0,0,1,.12.28.41.41,0,0,1-.41.41.36.36,0,0,1-.28-.12.38.38,0,0,1-.12-.29M97.85,20h.54v4.16h-.54Z"/><path class="cls-2" d="M101,25.48a1.56,1.56,0,0,1-.42.64,1.09,1.09,0,0,1-.72.23l-.27,0-.26-.06,0-.51.24.07a1,1,0,0,0,.25,0,.51.51,0,0,0,.25-.06.78.78,0,0,0,.2-.16,1.64,1.64,0,0,0,.14-.22l.1-.25.38-1L99.28,20h.61l1.37,3.5,1.35-3.5h.57Z"/><path class="cls-2" d="M107.22,22.44c0,.21,0,.39,0,.55s0,.31,0,.45,0,.27,0,.39,0,.24,0,.36h-.5a3.56,3.56,0,0,1,0-.68h0a1.6,1.6,0,0,1-.58.6,1.91,1.91,0,0,1-.88.19,1.88,1.88,0,0,1-.53-.07,1.56,1.56,0,0,1-.47-.22,1.14,1.14,0,0,1-.34-.38,1.2,1.2,0,0,1-.13-.57,1.06,1.06,0,0,1,.25-.75,1.46,1.46,0,0,1,.59-.42,3.13,3.13,0,0,1,.76-.18,6.32,6.32,0,0,1,.71,0h.63v-.25a.88.88,0,0,0-.34-.78,1.45,1.45,0,0,0-.83-.23,1.9,1.9,0,0,0-1.27.47l-.32-.37a2,2,0,0,1,.74-.44,2.68,2.68,0,0,1,.85-.15,1.87,1.87,0,0,1,1.2.36,1.38,1.38,0,0,1,.45,1.15Zm-1.08-.34a4.77,4.77,0,0,0-.66,0,2.38,2.38,0,0,0-.57.15,1,1,0,0,0-.41.29.64.64,0,0,0-.16.45.6.6,0,0,0,.09.33.88.88,0,0,0,.22.25,1,1,0,0,0,.3.14,1.27,1.27,0,0,0,.34,0,1.81,1.81,0,0,0,.71-.12,1.27,1.27,0,0,0,.44-.33,1.05,1.05,0,0,0,.23-.46,1.86,1.86,0,0,0,.07-.52V22.1Z"/><path class="cls-2" d="M111.07,17.82h1.83a4.59,4.59,0,0,1,.73.06,1.73,1.73,0,0,1,.66.24,1.31,1.31,0,0,1,.48.51,1.82,1.82,0,0,1,.18.87,1.34,1.34,0,0,1-.28.85,1.4,1.4,0,0,1-.86.47v0a1.84,1.84,0,0,1,.58.15,1.35,1.35,0,0,1,.74.81,2,2,0,0,1-.11,1.5,1.74,1.74,0,0,1-.53.55,2.07,2.07,0,0,1-.69.27,3.53,3.53,0,0,1-.7.07h-2Zm.59,2.75h1.23a2.2,2.2,0,0,0,.75-.11,1.39,1.39,0,0,0,.45-.28.8.8,0,0,0,.22-.34,1.55,1.55,0,0,0,0-.34,1.25,1.25,0,0,0-.11-.55,1.07,1.07,0,0,0-.3-.36,1.51,1.51,0,0,0-.45-.18,2.89,2.89,0,0,0-.53-.05h-1.31Zm0,3.08H113a2.18,2.18,0,0,0,.84-.13,1.29,1.29,0,0,0,.49-.31,1.09,1.09,0,0,0,.23-.4,1.43,1.43,0,0,0,.06-.39,1.27,1.27,0,0,0-.14-.6,1.16,1.16,0,0,0-.35-.41,1.48,1.48,0,0,0-.49-.23,2.08,2.08,0,0,0-.55-.07h-1.45Z"/><path class="cls-2" d="M120.06,23c0,.08,0,.17,0,.28s0,.23,0,.34,0,.22,0,.32a2.11,2.11,0,0,1,0,.23h-.54c0-.16,0-.31,0-.45a1.35,1.35,0,0,0,0-.28h0a1.51,1.51,0,0,1-.54.59,1.62,1.62,0,0,1-.88.25,1.7,1.7,0,0,1-.8-.16,1.22,1.22,0,0,1-.49-.4,1.46,1.46,0,0,1-.23-.57,2.9,2.9,0,0,1-.07-.66V20H117v2.45a2.63,2.63,0,0,0,0,.49,1.23,1.23,0,0,0,.16.43.89.89,0,0,0,.31.3,1.16,1.16,0,0,0,.53.11,1.54,1.54,0,0,0,.56-.1,1.23,1.23,0,0,0,.46-.32,1.36,1.36,0,0,0,.3-.53,2.11,2.11,0,0,0,.12-.75V20h.54Z"/><path class="cls-2" d="M121.45,18.38a.36.36,0,0,1,.12-.28.38.38,0,0,1,.29-.12.41.41,0,0,1,.4.4.38.38,0,0,1-.12.29.36.36,0,0,1-.28.12.41.41,0,0,1-.41-.41m.14,1.65h.54v4.16h-.54Z"/><rect class="cls-2" x="123.7" y="17.39" width="0.54" height="6.81"/><path class="cls-2" d="M129.36,23.46h0a1.23,1.23,0,0,1-.31.37,1.49,1.49,0,0,1-.41.26,2.51,2.51,0,0,1-.46.16,2.7,2.7,0,0,1-.48.05,2.3,2.3,0,0,1-.88-.17,1.92,1.92,0,0,1-.7-.45,2.06,2.06,0,0,1-.45-.69,2.5,2.5,0,0,1,0-1.76,2.17,2.17,0,0,1,.45-.69,1.92,1.92,0,0,1,.7-.45,2.3,2.3,0,0,1,.88-.17,2.7,2.7,0,0,1,.48,0,2.51,2.51,0,0,1,.46.16,1.77,1.77,0,0,1,.41.26,1.23,1.23,0,0,1,.31.37h0V17.38h.54v6.81h-.54Zm.06-1.35a1.66,1.66,0,0,0-.14-.66,1.58,1.58,0,0,0-.37-.54,1.59,1.59,0,0,0-.55-.36,1.53,1.53,0,0,0-.68-.14,1.71,1.71,0,0,0-1.21.5,1.46,1.46,0,0,0-.32.54,1.84,1.84,0,0,0-.12.66,1.8,1.8,0,0,0,.12.66,1.46,1.46,0,0,0,.32.54,1.68,1.68,0,0,0,.53.37,1.65,1.65,0,0,0,.68.13,1.68,1.68,0,0,0,.68-.13,1.77,1.77,0,0,0,.55-.37,1.58,1.58,0,0,0,.37-.54,1.63,1.63,0,0,0,.14-.66"/><path class="cls-2" d="M131.14,18.38a.36.36,0,0,1,.12-.28.38.38,0,0,1,.29-.12.4.4,0,0,1,.29.12.39.39,0,0,1,.11.28.42.42,0,0,1-.11.29.4.4,0,0,1-.29.12.41.41,0,0,1-.41-.41m.14,1.65h.54v4.16h-.54Z"/><path class="cls-2" d="M133.3,21.2v-.28c0-.11,0-.23,0-.34s0-.22,0-.32a2.11,2.11,0,0,1,0-.23h.54c0,.16,0,.31,0,.45a1.12,1.12,0,0,0,0,.28h0a1.51,1.51,0,0,1,.54-.59,1.62,1.62,0,0,1,.88-.25,1.7,1.7,0,0,1,.8.16,1.26,1.26,0,0,1,.48.4,1.47,1.47,0,0,1,.24.57,2.93,2.93,0,0,1,.07.67v2.47h-.54V21.74a2.63,2.63,0,0,0-.05-.49,1.46,1.46,0,0,0-.15-.43.93.93,0,0,0-.32-.3,1.13,1.13,0,0,0-.53-.11,1.54,1.54,0,0,0-.56.1,1.23,1.23,0,0,0-.46.32,1.44,1.44,0,0,0-.3.53,2.11,2.11,0,0,0-.12.75v2.08h-.54Z"/><path class="cls-2" d="M142.44,23.92a2.94,2.94,0,0,1-.23,1.25,2,2,0,0,1-.56.74,1.86,1.86,0,0,1-.72.35,3.12,3.12,0,0,1-.7.09,3.18,3.18,0,0,1-.62-.06,2.69,2.69,0,0,1-.57-.17,2.84,2.84,0,0,1-.49-.27,2.3,2.3,0,0,1-.39-.37l.43-.4a1.64,1.64,0,0,0,.72.59,2.2,2.2,0,0,0,.92.19,1.78,1.78,0,0,0,.69-.11,1.28,1.28,0,0,0,.47-.28,1.37,1.37,0,0,0,.29-.39,1.77,1.77,0,0,0,.15-.42,3,3,0,0,0,.06-.4c0-.12,0-.23,0-.31v-.57h0a1.63,1.63,0,0,1-.63.59,1.89,1.89,0,0,1-.94.22,2.29,2.29,0,0,1-.87-.17,2.08,2.08,0,0,1-.7-.46,2,2,0,0,1-.48-.68,1.89,1.89,0,0,1-.18-.82,1.94,1.94,0,0,1,.18-.83,2,2,0,0,1,.48-.68,2.43,2.43,0,0,1,.7-.46,2.29,2.29,0,0,1,.87-.17,1.89,1.89,0,0,1,.94.22,1.63,1.63,0,0,1,.63.59h0V20h.54Zm-.52-1.86a1.75,1.75,0,0,0-.13-.65,1.9,1.9,0,0,0-.35-.52,1.75,1.75,0,0,0-.53-.35,1.64,1.64,0,0,0-1.28,0,1.75,1.75,0,0,0-.53.35,1.9,1.9,0,0,0-.35.52,1.75,1.75,0,0,0-.13.65,1.7,1.7,0,0,0,.13.64,1.76,1.76,0,0,0,.35.52,1.58,1.58,0,0,0,.53.35,1.64,1.64,0,0,0,1.28,0,1.58,1.58,0,0,0,.53-.35,1.76,1.76,0,0,0,.35-.52,1.7,1.7,0,0,0,.13-.64"/><polygon class="cls-2" points="144.04 23.38 144.67 23.38 143.98 25.43 143.45 25.43 144.04 23.38"/><path class="cls-2" d="M148.63,23a1.53,1.53,0,0,0,.61.6,1.81,1.81,0,0,0,.85.2,1.73,1.73,0,0,0,.56-.09,1.41,1.41,0,0,0,.45-.25,1.3,1.3,0,0,0,.31-.39,1.27,1.27,0,0,0,.11-.52,1,1,0,0,0-.14-.55,1.13,1.13,0,0,0-.37-.35,2.32,2.32,0,0,0-.53-.24l-.6-.2a6.37,6.37,0,0,1-.61-.23,1.77,1.77,0,0,1-.52-.33,1.47,1.47,0,0,1-.38-.5,1.91,1.91,0,0,1-.14-.76,1.66,1.66,0,0,1,.17-.75,1.6,1.6,0,0,1,.45-.55,1.9,1.9,0,0,1,.65-.33,2.54,2.54,0,0,1,.78-.11,2.58,2.58,0,0,1,1,.18,1.84,1.84,0,0,1,.76.61l-.51.37a1.54,1.54,0,0,0-.52-.47,1.62,1.62,0,0,0-.72-.15,2,2,0,0,0-.55.07,1.28,1.28,0,0,0-.45.23,1,1,0,0,0-.31.37,1.12,1.12,0,0,0-.12.53,1,1,0,0,0,.24.73,1.64,1.64,0,0,0,.61.41,5.63,5.63,0,0,0,.79.26,3.7,3.7,0,0,1,.79.3,1.64,1.64,0,0,1,.61.53,1.56,1.56,0,0,1,.24.93,1.71,1.71,0,0,1-.59,1.33,1.88,1.88,0,0,1-.64.34,2.36,2.36,0,0,1-.75.12,3,3,0,0,1-1.16-.22,2.2,2.2,0,0,1-.91-.74Z"/><path class="cls-2" d="M153,22.11a2.5,2.5,0,0,1,.16-.88,2.17,2.17,0,0,1,.45-.69,1.92,1.92,0,0,1,.7-.45,2.36,2.36,0,0,1,1.76,0,2,2,0,0,1,.69.45,2,2,0,0,1,.45.69,2.36,2.36,0,0,1,0,1.76,1.92,1.92,0,0,1-.45.69,2,2,0,0,1-.69.45,2.36,2.36,0,0,1-1.76,0,1.92,1.92,0,0,1-.7-.45,2.06,2.06,0,0,1-.45-.69,2.5,2.5,0,0,1-.16-.88m.54,0a2,2,0,0,0,.11.66,1.63,1.63,0,0,0,.33.54,1.76,1.76,0,0,0,.52.37,1.73,1.73,0,0,0,.69.13,1.65,1.65,0,0,0,.68-.13,1.53,1.53,0,0,0,.52-.37,1.36,1.36,0,0,0,.33-.54,1.8,1.8,0,0,0,.12-.66,1.84,1.84,0,0,0-.12-.66,1.36,1.36,0,0,0-.33-.54,1.39,1.39,0,0,0-.52-.36,1.51,1.51,0,0,0-.68-.14,1.66,1.66,0,0,0-1.21.5,1.63,1.63,0,0,0-.33.54,2.08,2.08,0,0,0-.11.66"/><path class="cls-2" d="M162.09,23v.28c0,.11,0,.23,0,.34s0,.22,0,.32a2.11,2.11,0,0,1,0,.23h-.54c0-.16,0-.31,0-.45a1.12,1.12,0,0,0,0-.28h0a1.51,1.51,0,0,1-.54.59,1.62,1.62,0,0,1-.88.25,1.7,1.7,0,0,1-.8-.16,1.22,1.22,0,0,1-.49-.4,1.63,1.63,0,0,1-.24-.57,3.6,3.6,0,0,1-.06-.66V20h.54v2.45a2.63,2.63,0,0,0,.05.49,1.46,1.46,0,0,0,.15.43.93.93,0,0,0,.32.3,1.13,1.13,0,0,0,.53.11,1.54,1.54,0,0,0,.56-.1,1.23,1.23,0,0,0,.46-.32,1.36,1.36,0,0,0,.3-.53,2.11,2.11,0,0,0,.12-.75V20h.54Z"/><path class="cls-2" d="M165.56,20.52h-1.19v2.71a.56.56,0,0,0,.16.43.57.57,0,0,0,.42.15,1.15,1.15,0,0,0,.31,0l.3-.1.05.48-.36.1a1.55,1.55,0,0,1-.35.05,1.22,1.22,0,0,1-.49-.09.73.73,0,0,1-.33-.23.81.81,0,0,1-.19-.34,1.31,1.31,0,0,1-.06-.41V20.52h-.9V20h.9v-1.2h.54V20h1.19Z"/><path class="cls-2" d="M166.49,17.39H167v3.37h0a1.32,1.32,0,0,1,.54-.59,1.59,1.59,0,0,1,.88-.25,1.79,1.79,0,0,1,.79.15,1.38,1.38,0,0,1,.48.41,1.33,1.33,0,0,1,.24.57,2.9,2.9,0,0,1,.07.66v2.48h-.54V21.74a2.63,2.63,0,0,0,0-.49,1.47,1.47,0,0,0-.16-.43.93.93,0,0,0-.32-.3,1.11,1.11,0,0,0-.52-.11,1.56,1.56,0,0,0-.57.1,1.2,1.2,0,0,0-.45.32,1.46,1.46,0,0,0-.31.53,2.12,2.12,0,0,0-.11.75v2.08h-.54Z"/><path class="cls-2" d="M176.49,22.32a5.27,5.27,0,0,1-.05.64,1.6,1.6,0,0,1-.21.66,1.44,1.44,0,0,1-.52.52,1.89,1.89,0,0,1-1,.21,1.66,1.66,0,0,1-1.11-.35,1.78,1.78,0,0,1-.55-.95l.6-.11a1,1,0,0,0,1.06.87,1.27,1.27,0,0,0,.54-.1.9.9,0,0,0,.35-.29,1.17,1.17,0,0,0,.2-.42,2.35,2.35,0,0,0,.06-.54V17.82h.6Z"/><path class="cls-2" d="M181.55,23c0,.08,0,.17,0,.28s0,.23,0,.34,0,.22,0,.32,0,.17,0,.23h-.54c0-.16,0-.31,0-.45a1.35,1.35,0,0,0,0-.28h0a1.37,1.37,0,0,1-.54.59,1.59,1.59,0,0,1-.88.25,1.66,1.66,0,0,1-.79-.16,1.22,1.22,0,0,1-.49-.4,1.33,1.33,0,0,1-.24-.57,3.6,3.6,0,0,1-.06-.66V20h.54v2.45a2.63,2.63,0,0,0,0,.49,1.47,1.47,0,0,0,.16.43.93.93,0,0,0,.32.3,1.11,1.11,0,0,0,.52.11,1.56,1.56,0,0,0,.57-.1,1.2,1.2,0,0,0,.45-.32,1.52,1.52,0,0,0,.31-.53,2.12,2.12,0,0,0,.11-.75V20h.54Z"/><path class="cls-2" d="M183,21.2c0-.08,0-.17,0-.28s0-.23,0-.34,0-.22,0-.32a2.11,2.11,0,0,1,0-.23h.54c0,.16,0,.31,0,.45a1.35,1.35,0,0,0,0,.28h0a1.51,1.51,0,0,1,.54-.59,1.62,1.62,0,0,1,.88-.25,1.7,1.7,0,0,1,.8.16,1.26,1.26,0,0,1,.48.4,1.63,1.63,0,0,1,.24.57,2.93,2.93,0,0,1,.07.67v2.47H186V21.74a2.63,2.63,0,0,0-.05-.49,1.23,1.23,0,0,0-.16-.43.89.89,0,0,0-.31-.3,1.16,1.16,0,0,0-.53-.11,1.54,1.54,0,0,0-.56.1,1.23,1.23,0,0,0-.46.32,1.44,1.44,0,0,0-.3.53,2.11,2.11,0,0,0-.12.75v2.08H183Z"/><path class="cls-2" d="M191.44,23.58a2,2,0,0,1-.7.54,1.94,1.94,0,0,1-.83.18,2.56,2.56,0,0,1-.89-.16,1.94,1.94,0,0,1-.69-.46,2.06,2.06,0,0,1-.45-.69,2.5,2.5,0,0,1,0-1.76,2.17,2.17,0,0,1,.45-.69,1.92,1.92,0,0,1,.69-.45,2.35,2.35,0,0,1,.89-.17,2,2,0,0,1,.85.19,2.36,2.36,0,0,1,.69.53L191,21a1.77,1.77,0,0,0-.51-.41,1.27,1.27,0,0,0-.6-.15,1.55,1.55,0,0,0-.69.14,1.61,1.61,0,0,0-.52.36,1.63,1.63,0,0,0-.33.54,2.08,2.08,0,0,0-.11.66,2,2,0,0,0,.11.66,1.63,1.63,0,0,0,.33.54,1.5,1.5,0,0,0,.52.37,1.7,1.7,0,0,0,.69.13,1.22,1.22,0,0,0,.62-.16,1.51,1.51,0,0,0,.49-.42Z"/><path class="cls-2" d="M194.27,20.52h-1.19v2.71a.56.56,0,0,0,.16.43.57.57,0,0,0,.42.15,1.15,1.15,0,0,0,.31,0l.3-.1,0,.48-.36.1a1.63,1.63,0,0,1-.35.05,1.22,1.22,0,0,1-.49-.09.73.73,0,0,1-.33-.23.81.81,0,0,1-.19-.34,1.31,1.31,0,0,1-.06-.41V20.52h-.9V20h.9v-1.2h.54V20h1.19Z"/><path class="cls-2" d="M195.15,18.38a.36.36,0,0,1,.12-.28.38.38,0,0,1,.29-.12.41.41,0,0,1,.4.4.38.38,0,0,1-.12.29.36.36,0,0,1-.28.12.41.41,0,0,1-.41-.41m.14,1.65h.54v4.16h-.54Z"/><path class="cls-2" d="M197.08,22.11a2.3,2.3,0,0,1,.16-.88,2.17,2.17,0,0,1,.45-.69,1.8,1.8,0,0,1,.69-.45,2.34,2.34,0,0,1,.88-.17,2.3,2.3,0,0,1,.88.17,1.8,1.8,0,0,1,.69.45,2,2,0,0,1,.46.69,2.5,2.5,0,0,1,0,1.76,1.94,1.94,0,0,1-.46.69,1.8,1.8,0,0,1-.69.45,2.3,2.3,0,0,1-.88.17,2.34,2.34,0,0,1-.88-.17,1.8,1.8,0,0,1-.69-.45,2.06,2.06,0,0,1-.45-.69,2.3,2.3,0,0,1-.16-.88m.54,0a1.8,1.8,0,0,0,.11.66,1.36,1.36,0,0,0,.33.54,1.56,1.56,0,0,0,1.2.5,1.7,1.7,0,0,0,.69-.13,1.58,1.58,0,0,0,.85-.91,2,2,0,0,0,.11-.66,2.08,2.08,0,0,0-.11-.66,1.63,1.63,0,0,0-.33-.54,1.47,1.47,0,0,0-.52-.36,1.55,1.55,0,0,0-.69-.14,1.51,1.51,0,0,0-.68.14,1.47,1.47,0,0,0-.52.36,1.36,1.36,0,0,0-.33.54,1.83,1.83,0,0,0-.11.66"/><path class="cls-2" d="M202.61,21.2c0-.08,0-.17,0-.28s0-.23,0-.34,0-.22,0-.32a2.11,2.11,0,0,1,0-.23h.54c0,.16,0,.31,0,.45a1.35,1.35,0,0,0,0,.28h0a1.51,1.51,0,0,1,.54-.59,1.82,1.82,0,0,1,1.67-.09,1.22,1.22,0,0,1,.49.4,1.63,1.63,0,0,1,.24.57,3.62,3.62,0,0,1,.07.67v2.47h-.54V21.74a2.63,2.63,0,0,0,0-.49,1.23,1.23,0,0,0-.16-.43.89.89,0,0,0-.31-.3,1.16,1.16,0,0,0-.53-.11,1.5,1.5,0,0,0-.56.1,1.23,1.23,0,0,0-.46.32,1.61,1.61,0,0,0-.31.53,2.37,2.37,0,0,0-.11.75v2.08h-.54Z"/><path class="cls-2" d="M47.44,35.19a2.77,2.77,0,0,1-1.06.89,3.17,3.17,0,0,1-1.31.27,3.39,3.39,0,0,1-1.33-.25,2.87,2.87,0,0,1-1-.69A3.16,3.16,0,0,1,42,34.35a3.89,3.89,0,0,1,0-2.69,3,3,0,0,1,1.72-1.75,3.39,3.39,0,0,1,1.33-.25,3.18,3.18,0,0,1,1.21.22,2.43,2.43,0,0,1,1,.77l-.49.41A1.73,1.73,0,0,0,46,30.4a2.25,2.25,0,0,0-1-.2,2.9,2.9,0,0,0-1.12.21,2.55,2.55,0,0,0-.85.59,2.8,2.8,0,0,0-.54.9,3.31,3.31,0,0,0,0,2.21,2.76,2.76,0,0,0,.54.89,2.55,2.55,0,0,0,.85.59,2.73,2.73,0,0,0,1.12.22,2.29,2.29,0,0,0,.51-.06,2.59,2.59,0,0,0,.51-.18,2.66,2.66,0,0,0,.47-.3,1.89,1.89,0,0,0,.39-.45Z"/><path class="cls-2" d="M48.11,29.39h.54v3.37h0a1.44,1.44,0,0,1,.54-.59,1.65,1.65,0,0,1,.89-.25,1.82,1.82,0,0,1,.79.15,1.38,1.38,0,0,1,.48.41,1.33,1.33,0,0,1,.24.57,2.9,2.9,0,0,1,.07.66v2.48h-.54V33.74a2.63,2.63,0,0,0,0-.49,1.47,1.47,0,0,0-.16-.43.93.93,0,0,0-.32-.3,1.11,1.11,0,0,0-.52-.11,1.56,1.56,0,0,0-.57.1,1.32,1.32,0,0,0-.46.32,1.6,1.6,0,0,0-.3.53,2.12,2.12,0,0,0-.11.75v2.08h-.54Z"/><path class="cls-2" d="M56.07,34.44c0,.21,0,.39,0,.55s0,.31,0,.45,0,.27,0,.39,0,.24,0,.36h-.5a3.51,3.51,0,0,1-.06-.68h0a1.6,1.6,0,0,1-.58.6,1.94,1.94,0,0,1-.88.19,1.88,1.88,0,0,1-.53-.07,1.45,1.45,0,0,1-.47-.22,1.14,1.14,0,0,1-.34-.38,1.09,1.09,0,0,1-.13-.57,1.11,1.11,0,0,1,.24-.75,1.56,1.56,0,0,1,.6-.42,3.13,3.13,0,0,1,.76-.18,6.32,6.32,0,0,1,.71,0h.63v-.25a.9.9,0,0,0-.34-.78,1.45,1.45,0,0,0-.83-.23,1.9,1.9,0,0,0-1.27.47l-.32-.37a2,2,0,0,1,.74-.44,2.63,2.63,0,0,1,.85-.15,1.87,1.87,0,0,1,1.2.36,1.38,1.38,0,0,1,.45,1.15ZM55,34.1a4.65,4.65,0,0,0-.66,0,2.59,2.59,0,0,0-.58.15,1.13,1.13,0,0,0-.41.29.68.68,0,0,0-.15.45.6.6,0,0,0,.09.33.75.75,0,0,0,.22.25,1,1,0,0,0,.3.14,1.27,1.27,0,0,0,.34.05,1.85,1.85,0,0,0,.71-.12,1.37,1.37,0,0,0,.44-.33,1.17,1.17,0,0,0,.23-.46,2.32,2.32,0,0,0,.07-.52V34.1Z"/><rect class="cls-2" x="57.33" y="29.39" width="0.54" height="6.81"/><path class="cls-2" d="M62.36,34.44c0,.21,0,.39,0,.55s0,.31,0,.45,0,.27,0,.39,0,.24,0,.36h-.5a3.56,3.56,0,0,1,0-.68h0a1.6,1.6,0,0,1-.58.6,1.91,1.91,0,0,1-.88.19,1.88,1.88,0,0,1-.53-.07,1.45,1.45,0,0,1-.47-.22,1.14,1.14,0,0,1-.34-.38,1.2,1.2,0,0,1-.13-.57,1.06,1.06,0,0,1,.25-.75,1.46,1.46,0,0,1,.59-.42,3.13,3.13,0,0,1,.76-.18,6.32,6.32,0,0,1,.71,0h.63v-.25a.88.88,0,0,0-.34-.78,1.45,1.45,0,0,0-.83-.23,1.9,1.9,0,0,0-1.27.47l-.32-.37a2,2,0,0,1,.74-.44,2.63,2.63,0,0,1,.85-.15,1.87,1.87,0,0,1,1.2.36,1.38,1.38,0,0,1,.45,1.15Zm-1.08-.34a4.65,4.65,0,0,0-.66,0,2.59,2.59,0,0,0-.58.15,1,1,0,0,0-.4.29.64.64,0,0,0-.16.45.6.6,0,0,0,.09.33.75.75,0,0,0,.22.25,1,1,0,0,0,.3.14,1.27,1.27,0,0,0,.34.05,1.81,1.81,0,0,0,.71-.12,1.37,1.37,0,0,0,.44-.33,1.05,1.05,0,0,0,.23-.46,1.86,1.86,0,0,0,.07-.52V34.1Z"/><polygon class="cls-2" points="63.53 29.39 64.07 29.39 64.07 33.92 66.13 32.04 66.92 32.04 64.78 33.94 67.17 36.19 66.35 36.19 64.07 33.99 64.07 36.19 63.53 36.19 63.53 29.39"/><path class="cls-2" d="M71.11,35c0,.08,0,.17,0,.28s0,.23,0,.34,0,.22,0,.32,0,.17,0,.23h-.54c0-.16,0-.31,0-.45a1.35,1.35,0,0,0,0-.28h0a1.51,1.51,0,0,1-.54.59,1.59,1.59,0,0,1-.88.25,1.73,1.73,0,0,1-.8-.16,1.19,1.19,0,0,1-.48-.4,1.33,1.33,0,0,1-.24-.57,3.6,3.6,0,0,1-.06-.66V32h.54v2.45a2.63,2.63,0,0,0,0,.49,1.23,1.23,0,0,0,.16.43.89.89,0,0,0,.31.3,1.16,1.16,0,0,0,.53.11,1.47,1.47,0,0,0,.56-.1,1.23,1.23,0,0,0,.46-.32,1.52,1.52,0,0,0,.31-.53,2.37,2.37,0,0,0,.11-.75V32h.54Z"/><path class="cls-2" d="M76,35.46h0a1.39,1.39,0,0,1-.31.37,1.49,1.49,0,0,1-.41.26,2.51,2.51,0,0,1-.46.16,2.8,2.8,0,0,1-.48,0,2.3,2.3,0,0,1-.88-.17,1.92,1.92,0,0,1-.7-.45,2.06,2.06,0,0,1-.45-.69,2.5,2.5,0,0,1,0-1.76,2.17,2.17,0,0,1,.45-.69,1.92,1.92,0,0,1,.7-.45,2.3,2.3,0,0,1,.88-.17,2.8,2.8,0,0,1,.48,0,2.51,2.51,0,0,1,.46.16,1.77,1.77,0,0,1,.41.26,1.39,1.39,0,0,1,.31.37h0V29.38h.54v6.81H76ZM76,34.11a1.66,1.66,0,0,0-.14-.66,1.58,1.58,0,0,0-.37-.54,1.59,1.59,0,0,0-.55-.36,1.69,1.69,0,0,0-1.89.36,1.63,1.63,0,0,0-.33.54,2.08,2.08,0,0,0-.11.66,2,2,0,0,0,.11.66,1.63,1.63,0,0,0,.33.54,1.76,1.76,0,0,0,.52.37,1.87,1.87,0,0,0,1.37,0,1.77,1.77,0,0,0,.55-.37,1.58,1.58,0,0,0,.37-.54,1.63,1.63,0,0,0,.14-.66"/><path class="cls-2" d="M78.72,37.48a1.56,1.56,0,0,1-.42.64,1.09,1.09,0,0,1-.72.23l-.27,0-.26-.06,0-.51.24.07a1.07,1.07,0,0,0,.25,0,.55.55,0,0,0,.26-.06.74.74,0,0,0,.19-.16,1.64,1.64,0,0,0,.14-.22,2.6,2.6,0,0,0,.1-.25l.38-1L77,32h.6L79,35.53,80.29,32h.58Z"/><polygon class="cls-2" points="80.95 35.38 81.58 35.38 80.88 37.43 80.35 37.43 80.95 35.38"/><polygon class="cls-2" points="84.92 29.82 85.51 29.82 85.51 32.63 85.56 32.63 88.65 29.82 89.47 29.82 86.25 32.73 89.65 36.19 88.8 36.19 85.56 32.89 85.51 32.89 85.51 36.19 84.92 36.19 84.92 29.82"/><path class="cls-2" d="M93.66,35.41a1.91,1.91,0,0,1-.77.68,2.46,2.46,0,0,1-1,.21,2.39,2.39,0,0,1-.86-.16A1.93,1.93,0,0,1,89.91,35a2.52,2.52,0,0,1-.15-.89,2.39,2.39,0,0,1,.15-.86A2,2,0,0,1,91,32.09a2.07,2.07,0,0,1,.84-.17,2,2,0,0,1,.84.17,1.84,1.84,0,0,1,.61.44,1.67,1.67,0,0,1,.37.63,1.94,1.94,0,0,1,.13.71v.37H90.3a1.64,1.64,0,0,0,.07.44,1.44,1.44,0,0,0,.24.52,1.45,1.45,0,0,0,1.26.61,1.72,1.72,0,0,0,.8-.2,1.43,1.43,0,0,0,.6-.54Zm-.41-1.65a1.27,1.27,0,0,0-.11-.52,1.35,1.35,0,0,0-.31-.43,1.44,1.44,0,0,0-.46-.29,1.47,1.47,0,0,0-.56-.11,1.36,1.36,0,0,0-.73.18,1.73,1.73,0,0,0-.47.41,1.85,1.85,0,0,0-.24.46,1.06,1.06,0,0,0-.07.3Z"/><path class="cls-2" d="M94.73,33.2c0-.08,0-.17,0-.28s0-.23,0-.34,0-.22,0-.32a2.11,2.11,0,0,1,0-.23h.54c0,.16,0,.31,0,.45a2.07,2.07,0,0,0,0,.28,1.72,1.72,0,0,1,.53-.6,1.28,1.28,0,0,1,.79-.24l.16,0,.16,0-.07.53a.51.51,0,0,0-.2,0,1.41,1.41,0,0,0-.61.12,1.22,1.22,0,0,0-.43.31,1.19,1.19,0,0,0-.24.46,1.79,1.79,0,0,0-.08.57v2.27h-.54Z"/><path class="cls-2" d="M100.68,34.44c0,.21,0,.39,0,.55s0,.31,0,.45,0,.27,0,.39a2.2,2.2,0,0,0,0,.36h-.51a4.61,4.61,0,0,1-.05-.68h0a1.6,1.6,0,0,1-.58.6,2.1,2.1,0,0,1-1.41.12,1.56,1.56,0,0,1-.47-.22,1,1,0,0,1-.33-.38,1.09,1.09,0,0,1-.14-.57,1.11,1.11,0,0,1,.25-.75,1.42,1.42,0,0,1,.6-.42,2.94,2.94,0,0,1,.75-.18,6.32,6.32,0,0,1,.71,0h.63v-.25a.9.9,0,0,0-.33-.78,1.51,1.51,0,0,0-.84-.23,1.92,1.92,0,0,0-1.27.47l-.32-.37a2,2,0,0,1,.74-.44,2.68,2.68,0,0,1,.85-.15,1.87,1.87,0,0,1,1.2.36,1.38,1.38,0,0,1,.45,1.15ZM99.6,34.1a4.89,4.89,0,0,0-.66,0,2.38,2.38,0,0,0-.57.15,1,1,0,0,0-.41.29.69.69,0,0,0-.16.45.6.6,0,0,0,.09.33.88.88,0,0,0,.22.25,1,1,0,0,0,.3.14,1.33,1.33,0,0,0,.34.05,1.81,1.81,0,0,0,.71-.12,1.42,1.42,0,0,0,.45-.33,1.33,1.33,0,0,0,.23-.46,2.31,2.31,0,0,0,.06-.52V34.1Z"/><rect class="cls-2" x="101.94" y="29.39" width="0.54" height="6.81"/><path class="cls-2" d="M107,34.44c0,.21,0,.39,0,.55s0,.31,0,.45l0,.39a2.2,2.2,0,0,0,0,.36h-.51a4.61,4.61,0,0,1,0-.68h0a1.6,1.6,0,0,1-.58.6,2.1,2.1,0,0,1-1.41.12A1.56,1.56,0,0,1,104,36a1,1,0,0,1-.33-.38,1.09,1.09,0,0,1-.14-.57,1.11,1.11,0,0,1,.25-.75,1.42,1.42,0,0,1,.6-.42,2.94,2.94,0,0,1,.75-.18,6.32,6.32,0,0,1,.71,0h.63v-.25a.9.9,0,0,0-.33-.78,1.51,1.51,0,0,0-.84-.23,1.92,1.92,0,0,0-1.27.47l-.32-.37a2,2,0,0,1,.74-.44,2.68,2.68,0,0,1,.85-.15,1.87,1.87,0,0,1,1.2.36,1.38,1.38,0,0,1,.45,1.15Zm-1.08-.34a4.89,4.89,0,0,0-.66,0,2.38,2.38,0,0,0-.57.15,1,1,0,0,0-.41.29.69.69,0,0,0-.16.45.6.6,0,0,0,.09.33.88.88,0,0,0,.22.25,1,1,0,0,0,.3.14,1.33,1.33,0,0,0,.34.05,1.81,1.81,0,0,0,.71-.12,1.42,1.42,0,0,0,.45-.33,1.33,1.33,0,0,0,.23-.46,2.31,2.31,0,0,0,.06-.52V34.1Z"/><rect class="cls-2" x="109.88" y="33.81" width="2.22" height="0.49"/><path class="cls-2" d="M115.8,32.63h0a1.13,1.13,0,0,1,.44-.21,2.4,2.4,0,0,1,.51-.07,2,2,0,0,1,.78.16,1.79,1.79,0,0,1,.62.42,1.92,1.92,0,0,1,.41.62,2.15,2.15,0,0,1,.14.77,1.89,1.89,0,0,1-.16.79,1.86,1.86,0,0,1-.43.63,2.15,2.15,0,0,1-.67.41,2.37,2.37,0,0,1-1.66,0,2,2,0,0,1-.66-.41,1.88,1.88,0,0,1-.44-.63,2.06,2.06,0,0,1-.16-.79,1.86,1.86,0,0,1,.06-.48,2.16,2.16,0,0,1,.14-.43c.06-.13.12-.26.19-.38l.2-.34,1.73-2.87h.68Zm.83.19a1.4,1.4,0,0,0-.58.12,1.75,1.75,0,0,0-.48.32,1.49,1.49,0,0,0-.32.48,1.58,1.58,0,0,0-.11.58,1.54,1.54,0,0,0,.11.61,1.45,1.45,0,0,0,.3.47,1.35,1.35,0,0,0,.47.3,1.74,1.74,0,0,0,.61.11,1.7,1.7,0,0,0,.61-.11,1.35,1.35,0,0,0,.47-.3,1.48,1.48,0,0,0,.31-.47,1.74,1.74,0,0,0,.11-.61,1.4,1.4,0,0,0-.12-.58,1.49,1.49,0,0,0-.32-.48,1.61,1.61,0,0,0-.48-.32,1.4,1.4,0,0,0-.58-.12"/><path class="cls-2" d="M119.3,31.37a1.65,1.65,0,0,1,.13-.68,1.5,1.5,0,0,1,.37-.52,1.64,1.64,0,0,1,.55-.34,2,2,0,0,1,.69-.12,1.92,1.92,0,0,1,.69.12,1.55,1.55,0,0,1,.55.34,1.5,1.5,0,0,1,.37.52,1.65,1.65,0,0,1,.14.68,1.75,1.75,0,0,1-.07.44,1.59,1.59,0,0,1-.21.41,1.15,1.15,0,0,1-.32.34,1,1,0,0,1-.42.21h0a1.43,1.43,0,0,1,.54.22,1.37,1.37,0,0,1,.38.38,1.44,1.44,0,0,1,.24.48,1.73,1.73,0,0,1,.08.56,2,2,0,0,1-.15.78,1.61,1.61,0,0,1-.41.58,1.83,1.83,0,0,1-.63.38,2.24,2.24,0,0,1-1.56,0,1.83,1.83,0,0,1-.63-.38,1.74,1.74,0,0,1-.41-.58,2,2,0,0,1-.15-.78,2,2,0,0,1,.08-.56,2,2,0,0,1,.24-.48,1.29,1.29,0,0,1,.39-.38,1.32,1.32,0,0,1,.53-.22h0a1.19,1.19,0,0,1-.42-.21,1.3,1.3,0,0,1-.32-.34,1.56,1.56,0,0,1-.2-.41,1.39,1.39,0,0,1-.07-.44m.36,3.05a1.62,1.62,0,0,0,.1.54,1.57,1.57,0,0,0,.28.44,1.66,1.66,0,0,0,.43.3,1.53,1.53,0,0,0,1.14,0,1.5,1.5,0,0,0,.43-.3,1.57,1.57,0,0,0,.28-.44,1.4,1.4,0,0,0,.1-.54,1.54,1.54,0,0,0-.11-.58,1.46,1.46,0,0,0-.29-.44,1.44,1.44,0,0,0-.44-.28,1.51,1.51,0,0,0-1.08,0,1.44,1.44,0,0,0-.44.28,1.46,1.46,0,0,0-.29.44,1.54,1.54,0,0,0-.11.58m.23-3.05a1.33,1.33,0,0,0,.08.45,1.31,1.31,0,0,0,.24.37,1.16,1.16,0,0,0,.36.25,1.15,1.15,0,0,0,.94,0,1.05,1.05,0,0,0,.36-.25,1.31,1.31,0,0,0,.24-.37,1.33,1.33,0,0,0,.08-.45,1.19,1.19,0,0,0-.32-.86,1.16,1.16,0,0,0-.83-.31,1.13,1.13,0,0,0-.82.31,1.15,1.15,0,0,0-.33.86"/><path class="cls-2" d="M123.35,33q0-.34,0-.72a5.88,5.88,0,0,1,.11-.75,4,4,0,0,1,.24-.69,2.08,2.08,0,0,1,.38-.58,1.74,1.74,0,0,1,.56-.4,2.1,2.1,0,0,1,1.56,0,1.63,1.63,0,0,1,.56.4,1.88,1.88,0,0,1,.38.58,4,4,0,0,1,.24.69,5.87,5.87,0,0,1,.12.75q0,.38,0,.72c0,.24,0,.48,0,.73a6,6,0,0,1-.12.74,3.85,3.85,0,0,1-.24.7,1.88,1.88,0,0,1-.38.58,1.63,1.63,0,0,1-.56.4,2.1,2.1,0,0,1-1.56,0,1.74,1.74,0,0,1-.56-.4,2.08,2.08,0,0,1-.38-.58,3.85,3.85,0,0,1-.24-.7,6,6,0,0,1-.11-.74c0-.25,0-.49,0-.73m.59,0c0,.17,0,.36,0,.56a4.39,4.39,0,0,0,.07.61,3.77,3.77,0,0,0,.16.6,2,2,0,0,0,.27.53,1.12,1.12,0,0,0,.41.37,1.16,1.16,0,0,0,.58.14,1.18,1.18,0,0,0,.58-.14,1.15,1.15,0,0,0,.42-.37,2,2,0,0,0,.27-.53,3.76,3.76,0,0,0,.15-.6c0-.21.06-.41.08-.61s0-.39,0-.56,0-.34,0-.55,0-.41-.08-.61a4.18,4.18,0,0,0-.15-.61,2.2,2.2,0,0,0-.27-.53,1.37,1.37,0,0,0-.42-.37,1.18,1.18,0,0,0-.58-.14,1.21,1.21,0,0,0-.58.14,1.45,1.45,0,0,0-.41.37,2.2,2.2,0,0,0-.27.53,4.38,4.38,0,0,0-.23,1.22c0,.21,0,.39,0,.55"/><path class="cls-2" d="M128.48,34.86a1.6,1.6,0,0,0,.49.7,1.29,1.29,0,0,0,.85.25,1.52,1.52,0,0,0,.62-.11,1.17,1.17,0,0,0,.44-.29,1.29,1.29,0,0,0,.27-.45,1.53,1.53,0,0,0,.09-.54,1.16,1.16,0,0,0-.15-.6,1.27,1.27,0,0,0-.39-.41,1.87,1.87,0,0,0-.54-.23,2.46,2.46,0,0,0-.6-.07h-.24v-.54h.27a1.79,1.79,0,0,0,.51-.07,1.28,1.28,0,0,0,.46-.21,1.19,1.19,0,0,0,.33-.37,1.2,1.2,0,0,0,.12-.55,1.1,1.1,0,0,0-1.18-1.17,1.25,1.25,0,0,0-.71.2,1.35,1.35,0,0,0-.49.54l-.51-.29a1.65,1.65,0,0,1,.71-.72,2.22,2.22,0,0,1,1-.22,2.26,2.26,0,0,1,.69.1,1.76,1.76,0,0,1,.57.31,1.42,1.42,0,0,1,.38.51,1.74,1.74,0,0,1,.14.72,1.55,1.55,0,0,1-.29.92,1.43,1.43,0,0,1-.85.55v0a2,2,0,0,1,.56.2,1.64,1.64,0,0,1,.42.37,1.44,1.44,0,0,1,.28.48,1.61,1.61,0,0,1,.1.58,2.08,2.08,0,0,1-.12.71,1.48,1.48,0,0,1-.37.58,1.6,1.6,0,0,1-.61.39,2.62,2.62,0,0,1-2.09-.15,1.89,1.89,0,0,1-.75-1Z"/><path class="cls-2" d="M132.17,33q0-.34,0-.72a5.88,5.88,0,0,1,.11-.75,4,4,0,0,1,.24-.69,2.08,2.08,0,0,1,.38-.58,1.74,1.74,0,0,1,.56-.4,2.1,2.1,0,0,1,1.56,0,1.63,1.63,0,0,1,.56.4,1.88,1.88,0,0,1,.38.58,4,4,0,0,1,.24.69,5.87,5.87,0,0,1,.12.75q0,.38,0,.72c0,.24,0,.48,0,.73a6,6,0,0,1-.12.74,3.85,3.85,0,0,1-.24.7,1.88,1.88,0,0,1-.38.58,1.63,1.63,0,0,1-.56.4,2.1,2.1,0,0,1-1.56,0,1.74,1.74,0,0,1-.56-.4,2.08,2.08,0,0,1-.38-.58,3.85,3.85,0,0,1-.24-.7,6,6,0,0,1-.11-.74c0-.25,0-.49,0-.73m.59,0c0,.17,0,.36,0,.56a4.39,4.39,0,0,0,.07.61,3.77,3.77,0,0,0,.16.6,2,2,0,0,0,.27.53,1.12,1.12,0,0,0,.41.37,1.16,1.16,0,0,0,.58.14,1.18,1.18,0,0,0,.58-.14,1.15,1.15,0,0,0,.42-.37,2,2,0,0,0,.27-.53,3.76,3.76,0,0,0,.15-.6c0-.21.06-.41.08-.61s0-.39,0-.56,0-.34,0-.55,0-.41-.08-.61a4.18,4.18,0,0,0-.15-.61,2.2,2.2,0,0,0-.27-.53,1.37,1.37,0,0,0-.42-.37,1.18,1.18,0,0,0-.58-.14,1.21,1.21,0,0,0-.58.14,1.45,1.45,0,0,0-.41.37,2.2,2.2,0,0,0-.27.53,4.38,4.38,0,0,0-.23,1.22c0,.21,0,.39,0,.55"/><polygon class="cls-2" points="140.33 30.3 137.79 36.19 137.19 36.19 139.77 30.3 136.71 30.3 136.71 29.82 140.33 29.82 140.33 30.3"/><polygon class="cls-2" points="141.79 35.38 142.43 35.38 141.73 37.43 141.2 37.43 141.79 35.38"/><polygon class="cls-2" points="147.18 30.36 145 30.36 145 29.82 149.95 29.82 149.95 30.36 147.77 30.36 147.77 36.19 147.18 36.19 147.18 30.36"/><path class="cls-2" d="M153.27,35.41a1.88,1.88,0,0,1-.78.68,2.45,2.45,0,0,1-1,.21,2.31,2.31,0,0,1-.86-.16,2.1,2.1,0,0,1-.67-.46,2,2,0,0,1-.43-.69,2.52,2.52,0,0,1-.15-.89,2.39,2.39,0,0,1,.16-.86,1.88,1.88,0,0,1,.43-.69,1.92,1.92,0,0,1,.66-.46,2.05,2.05,0,0,1,.83-.17,2.08,2.08,0,0,1,.85.17,2,2,0,0,1,.61.44,1.81,1.81,0,0,1,.37.63,2.17,2.17,0,0,1,.13.71v.37h-3.5a2.18,2.18,0,0,0,.07.44,1.66,1.66,0,0,0,.25.52,1.54,1.54,0,0,0,.48.43,1.5,1.5,0,0,0,.78.18,1.76,1.76,0,0,0,.8-.2,1.35,1.35,0,0,0,.59-.54Zm-.41-1.65a1.14,1.14,0,0,0-.12-.52,1.19,1.19,0,0,0-.3-.43,1.44,1.44,0,0,0-.46-.29,1.55,1.55,0,0,0-.56-.11,1.4,1.4,0,0,0-.74.18,1.68,1.68,0,0,0-.46.41,1.57,1.57,0,0,0-.24.46,1.21,1.21,0,0,0-.08.3Z"/><rect class="cls-2" x="154.51" y="29.39" width="0.54" height="6.81"/><path class="cls-2" d="M156.42,35.81a.42.42,0,0,1,.13-.31.41.41,0,0,1,.3-.12.43.43,0,1,1,0,.86.41.41,0,0,1-.3-.12.42.42,0,0,1-.13-.31"/><polygon class="cls-2" points="160.7 33.25 162.78 33.25 162.78 31.17 163.22 31.17 163.22 33.25 165.29 33.25 165.29 33.68 163.22 33.68 163.22 35.76 162.78 35.76 162.78 33.68 160.7 33.68 160.7 33.25"/><path class="cls-2" d="M169,33.38h0a1.05,1.05,0,0,1-.44.2,1.89,1.89,0,0,1-.51.07,2,2,0,0,1-.78-.15,1.79,1.79,0,0,1-.62-.42,1.86,1.86,0,0,1-.41-.62,2.19,2.19,0,0,1-.14-.77,1.94,1.94,0,0,1,.16-.8,1.82,1.82,0,0,1,.43-.62,2,2,0,0,1,.66-.41,2.32,2.32,0,0,1,.84-.15,2.27,2.27,0,0,1,.83.15,2,2,0,0,1,.66.41,1.84,1.84,0,0,1,.44.62,2.11,2.11,0,0,1,.15.8,1.74,1.74,0,0,1-.05.47,2.41,2.41,0,0,1-.14.43,3.55,3.55,0,0,1-.2.39l-.19.34-1.73,2.87h-.68Zm-.82-.2a1.66,1.66,0,0,0,.58-.11,1.5,1.5,0,0,0,.79-.8,1.4,1.4,0,0,0,.12-.58,1.7,1.7,0,0,0-.11-.61,1.35,1.35,0,0,0-.3-.47,1.42,1.42,0,0,0-.48-.31,1.64,1.64,0,0,0-.6-.1,1.66,1.66,0,0,0-.61.1,1.29,1.29,0,0,0-.47.31,1.25,1.25,0,0,0-.31.47,1.7,1.7,0,0,0-.11.61,1.4,1.4,0,0,0,.12.58,1.5,1.5,0,0,0,.79.8,1.63,1.63,0,0,0,.59.11"/><polygon class="cls-2" points="172.66 30.57 172.66 30.57 171.5 31.52 171.17 31.1 172.75 29.82 173.21 29.82 173.21 36.19 172.66 36.19 172.66 30.57"/><path class="cls-2" d="M178.49,32.63h0a1.08,1.08,0,0,1,.43-.21,2.49,2.49,0,0,1,.51-.07,2,2,0,0,1,.78.16,1.79,1.79,0,0,1,.62.42,1.77,1.77,0,0,1,.41.62,2,2,0,0,1,.14.77,2.06,2.06,0,0,1-.15.79,1.88,1.88,0,0,1-.44.63,2.23,2.23,0,0,1-.66.41,2.27,2.27,0,0,1-.83.15,2.32,2.32,0,0,1-.84-.15,2.23,2.23,0,0,1-.66-.41,1.86,1.86,0,0,1-.43-.63,1.89,1.89,0,0,1-.16-.79,2.44,2.44,0,0,1,.05-.48,3.12,3.12,0,0,1,.15-.43l.18-.38.2-.34,1.73-2.87h.68Zm.83.19a1.45,1.45,0,0,0-.59.12,1.56,1.56,0,0,0-.47.32,1.35,1.35,0,0,0-.32.48,1.4,1.4,0,0,0-.12.58,1.74,1.74,0,0,0,.11.61,1.33,1.33,0,0,0,.31.47,1.27,1.27,0,0,0,.47.3,1.72,1.72,0,0,0,1.21,0,1.39,1.39,0,0,0,.48-.3,1.45,1.45,0,0,0,.3-.47,1.74,1.74,0,0,0,.11-.61,1.4,1.4,0,0,0-.12-.58,1.35,1.35,0,0,0-.32-.48,1.56,1.56,0,0,0-.47-.32,1.47,1.47,0,0,0-.58-.12"/><path class="cls-2" d="M181.84,35.56l2.4-2.53c.11-.11.21-.22.32-.35a2.55,2.55,0,0,0,.29-.38,2.49,2.49,0,0,0,.22-.43,1.53,1.53,0,0,0,.08-.49,1.1,1.1,0,0,0-.36-.87,1.34,1.34,0,0,0-.91-.31,1.27,1.27,0,0,0-.84.28,1.33,1.33,0,0,0-.44.76l-.63-.06a1.7,1.7,0,0,1,.68-1.11,2.13,2.13,0,0,1,1.26-.36,2.33,2.33,0,0,1,.7.11,1.92,1.92,0,0,1,.58.32,1.51,1.51,0,0,1,.55,1.2,2.15,2.15,0,0,1-.11.68,3.36,3.36,0,0,1-.3.6,3.57,3.57,0,0,1-.42.54l-.48.5-2,2h3.35v.49h-3.95Z"/><path class="cls-2" d="M189.09,34.86a1.6,1.6,0,0,0,.49.7,1.3,1.3,0,0,0,.85.25,1.52,1.52,0,0,0,.62-.11,1.29,1.29,0,0,0,.45-.29,1.43,1.43,0,0,0,.26-.45,1.53,1.53,0,0,0,.09-.54,1.16,1.16,0,0,0-.15-.6,1.15,1.15,0,0,0-.38-.41,1.87,1.87,0,0,0-.54-.23,2.54,2.54,0,0,0-.61-.07h-.23v-.54h.27a1.77,1.77,0,0,0,.5-.07,1.21,1.21,0,0,0,.46-.21,1,1,0,0,0,.33-.37,1.09,1.09,0,0,0,.13-.55,1.18,1.18,0,0,0-.32-.85,1.15,1.15,0,0,0-.86-.32,1.23,1.23,0,0,0-.71.2,1.37,1.37,0,0,0-.5.54l-.51-.29a1.65,1.65,0,0,1,.71-.72,2.26,2.26,0,0,1,1-.22,2.15,2.15,0,0,1,.68.1,1.57,1.57,0,0,1,.57.31,1.32,1.32,0,0,1,.38.51,1.74,1.74,0,0,1,.14.72,1.48,1.48,0,0,1-.29.92,1.44,1.44,0,0,1-.84.55v0a1.89,1.89,0,0,1,.55.2,1.53,1.53,0,0,1,.43.37,1.64,1.64,0,0,1,.28.48,1.87,1.87,0,0,1,0,1.29,1.58,1.58,0,0,1-.36.58,1.64,1.64,0,0,1-.62.39,2.28,2.28,0,0,1-.86.15,2.32,2.32,0,0,1-1.22-.3,1.86,1.86,0,0,1-.76-1Z"/><path class="cls-2" d="M193.23,31.37a1.56,1.56,0,0,1,.5-1.2,1.59,1.59,0,0,1,.56-.34,2,2,0,0,1,1.37,0,1.59,1.59,0,0,1,.56.34,1.56,1.56,0,0,1,.5,1.2,1.39,1.39,0,0,1-.07.44,2,2,0,0,1-.2.41,1.48,1.48,0,0,1-.32.34,1.15,1.15,0,0,1-.43.21h0a1.31,1.31,0,0,1,.54.22,1.56,1.56,0,0,1,.39.38,2,2,0,0,1,.24.48,2,2,0,0,1,.08.56,2,2,0,0,1-.15.78,1.63,1.63,0,0,1-.42.58,1.7,1.7,0,0,1-.62.38,2.27,2.27,0,0,1-1.57,0,1.7,1.7,0,0,1-.62-.38,1.63,1.63,0,0,1-.42-.58,2,2,0,0,1-.15-.78,1.73,1.73,0,0,1,.09-.56,1.64,1.64,0,0,1,.23-.48,1.56,1.56,0,0,1,.39-.38,1.31,1.31,0,0,1,.54-.22h0a1.15,1.15,0,0,1-.43-.21,1.48,1.48,0,0,1-.32-.34,2,2,0,0,1-.2-.41,1.39,1.39,0,0,1-.07-.44m.37,3.05a1.4,1.4,0,0,0,.1.54,1.37,1.37,0,0,0,.28.44,1.5,1.5,0,0,0,.43.3,1.43,1.43,0,0,0,.56.11,1.48,1.48,0,0,0,.57-.11,1.5,1.5,0,0,0,.43-.3,1.37,1.37,0,0,0,.28-.44,1.4,1.4,0,0,0,.1-.54,1.36,1.36,0,0,0-.11-.58,1.46,1.46,0,0,0-.29-.44,1.4,1.4,0,0,0-1-.38,1.36,1.36,0,0,0-1,.38,1.46,1.46,0,0,0-.29.44,1.36,1.36,0,0,0-.11.58m.22-3.05a1.13,1.13,0,0,0,.09.45,1.28,1.28,0,0,0,.23.37,1.16,1.16,0,0,0,.36.25,1.15,1.15,0,0,0,.94,0,1.1,1.1,0,0,0,.37-.25,1.28,1.28,0,0,0,.23-.37,1.13,1.13,0,0,0,.09-.45A1.1,1.1,0,0,0,195,30.2a1.13,1.13,0,0,0-.82.31,1.15,1.15,0,0,0-.33.86"/><path class="cls-2" d="M198.65,32.63h0a1.08,1.08,0,0,1,.43-.21,2.49,2.49,0,0,1,.51-.07,2,2,0,0,1,.78.16,1.79,1.79,0,0,1,.62.42,1.77,1.77,0,0,1,.41.62,2,2,0,0,1,.14.77,2.06,2.06,0,0,1-.15.79,1.88,1.88,0,0,1-.44.63,2.23,2.23,0,0,1-.66.41,2.27,2.27,0,0,1-.83.15,2.32,2.32,0,0,1-.84-.15,2.23,2.23,0,0,1-.66-.41,2,2,0,0,1-.44-.63,2.06,2.06,0,0,1-.15-.79,2.44,2.44,0,0,1,.05-.48,3.12,3.12,0,0,1,.15-.43l.18-.38.2-.34,1.73-2.87h.68Zm.83.19a1.45,1.45,0,0,0-.59.12,1.56,1.56,0,0,0-.47.32,1.35,1.35,0,0,0-.32.48,1.4,1.4,0,0,0-.12.58,1.74,1.74,0,0,0,.11.61,1.33,1.33,0,0,0,.31.47,1.35,1.35,0,0,0,.47.3,1.72,1.72,0,0,0,1.21,0,1.39,1.39,0,0,0,.48-.3,1.45,1.45,0,0,0,.3-.47,1.74,1.74,0,0,0,.11-.61,1.4,1.4,0,0,0-.12-.58,1.35,1.35,0,0,0-.32-.48,1.56,1.56,0,0,0-.47-.32,1.47,1.47,0,0,0-.58-.12"/><path class="cls-2" d="M204.39,31.37a1.56,1.56,0,0,1,.5-1.2,1.59,1.59,0,0,1,.56-.34,2,2,0,0,1,1.37,0,1.59,1.59,0,0,1,.56.34,1.56,1.56,0,0,1,.5,1.2,1.39,1.39,0,0,1-.07.44,2,2,0,0,1-.2.41,1.48,1.48,0,0,1-.32.34,1.15,1.15,0,0,1-.43.21h0a1.31,1.31,0,0,1,.54.22,1.56,1.56,0,0,1,.39.38,2,2,0,0,1,.24.48,2,2,0,0,1,.08.56,2,2,0,0,1-.15.78,1.63,1.63,0,0,1-.42.58,1.7,1.7,0,0,1-.62.38,2.27,2.27,0,0,1-1.57,0,1.7,1.7,0,0,1-.62-.38,1.63,1.63,0,0,1-.42-.58,2,2,0,0,1-.15-.78,1.73,1.73,0,0,1,.09-.56,1.64,1.64,0,0,1,.23-.48,1.56,1.56,0,0,1,.39-.38,1.31,1.31,0,0,1,.54-.22h0a1.15,1.15,0,0,1-.43-.21,1.48,1.48,0,0,1-.32-.34,2,2,0,0,1-.2-.41,1.39,1.39,0,0,1-.07-.44m.37,3.05a1.4,1.4,0,0,0,.1.54,1.37,1.37,0,0,0,.28.44,1.5,1.5,0,0,0,.43.3,1.43,1.43,0,0,0,.56.11,1.48,1.48,0,0,0,.57-.11,1.5,1.5,0,0,0,.43-.3,1.37,1.37,0,0,0,.28-.44,1.4,1.4,0,0,0,.1-.54,1.36,1.36,0,0,0-.11-.58,1.46,1.46,0,0,0-.29-.44,1.4,1.4,0,0,0-1-.38,1.36,1.36,0,0,0-1,.38,1.46,1.46,0,0,0-.29.44,1.36,1.36,0,0,0-.11.58m.22-3.05a1.13,1.13,0,0,0,.09.45,1.28,1.28,0,0,0,.23.37,1.16,1.16,0,0,0,.36.25,1.15,1.15,0,0,0,.94,0,1.1,1.1,0,0,0,.37-.25,1.28,1.28,0,0,0,.23-.37,1.13,1.13,0,0,0,.09-.45,1.1,1.1,0,0,0-1.16-1.17,1.13,1.13,0,0,0-.82.31,1.15,1.15,0,0,0-.33.86"/><path class="cls-2" d="M209.25,34.86a1.6,1.6,0,0,0,.49.7,1.3,1.3,0,0,0,.85.25,1.52,1.52,0,0,0,.62-.11,1.29,1.29,0,0,0,.45-.29,1.43,1.43,0,0,0,.26-.45,1.53,1.53,0,0,0,.09-.54,1.16,1.16,0,0,0-.15-.6,1.15,1.15,0,0,0-.38-.41,1.87,1.87,0,0,0-.54-.23,2.54,2.54,0,0,0-.61-.07h-.23v-.54h.27a1.77,1.77,0,0,0,.5-.07,1.21,1.21,0,0,0,.46-.21,1,1,0,0,0,.33-.37,1.09,1.09,0,0,0,.13-.55,1.18,1.18,0,0,0-.32-.85,1.15,1.15,0,0,0-.86-.32,1.23,1.23,0,0,0-.71.2,1.37,1.37,0,0,0-.5.54l-.51-.29a1.65,1.65,0,0,1,.71-.72,2.26,2.26,0,0,1,1-.22,2.15,2.15,0,0,1,.68.1,1.57,1.57,0,0,1,.57.31,1.32,1.32,0,0,1,.38.51,1.74,1.74,0,0,1,.14.72,1.48,1.48,0,0,1-.29.92,1.44,1.44,0,0,1-.84.55v0a1.89,1.89,0,0,1,.55.2,1.53,1.53,0,0,1,.43.37,1.64,1.64,0,0,1,.28.48,1.87,1.87,0,0,1,0,1.29,1.58,1.58,0,0,1-.36.58,1.64,1.64,0,0,1-.62.39,2.28,2.28,0,0,1-.86.15,2.32,2.32,0,0,1-1.22-.3,1.86,1.86,0,0,1-.76-1Z"/><path class="cls-2" d="M215.19,33q0-.34,0-.72a4.52,4.52,0,0,1,.12-.75,3.29,3.29,0,0,1,.23-.69,2.33,2.33,0,0,1,.38-.58,1.78,1.78,0,0,1,1.34-.55,1.87,1.87,0,0,1,.78.15,1.78,1.78,0,0,1,.57.4,2.33,2.33,0,0,1,.38.58,4,4,0,0,1,.23.69,4.52,4.52,0,0,1,.12.75q0,.38,0,.72c0,.24,0,.48,0,.73a4.57,4.57,0,0,1-.12.74,3.83,3.83,0,0,1-.23.7,2.33,2.33,0,0,1-.38.58,1.78,1.78,0,0,1-.57.4,1.87,1.87,0,0,1-.78.15,1.78,1.78,0,0,1-1.34-.55,2.33,2.33,0,0,1-.38-.58,3.19,3.19,0,0,1-.23-.7,4.57,4.57,0,0,1-.12-.74c0-.25,0-.49,0-.73m.59,0c0,.17,0,.36,0,.56s0,.4.07.61a3.77,3.77,0,0,0,.16.6,2,2,0,0,0,.27.53,1.21,1.21,0,0,0,.41.37,1.18,1.18,0,0,0,.58.14,1.22,1.22,0,0,0,.59-.14,1.21,1.21,0,0,0,.41-.37,2,2,0,0,0,.27-.53,3.77,3.77,0,0,0,.16-.6c0-.21.06-.41.07-.61s0-.39,0-.56,0-.34,0-.55,0-.41-.07-.61a4.21,4.21,0,0,0-.16-.61,2.2,2.2,0,0,0-.27-.53,1.45,1.45,0,0,0-.41-.37,1.29,1.29,0,0,0-1.17,0,1.45,1.45,0,0,0-.41.37,2.2,2.2,0,0,0-.27.53,4.21,4.21,0,0,0-.16.61c0,.2-.06.41-.07.61s0,.39,0,.55"/><path class="cls-2" d="M223.5,30.3h-2.62l0,2a1.7,1.7,0,0,1,.45-.15,3.87,3.87,0,0,1,.48,0,1.91,1.91,0,0,1,1.45.62,2.13,2.13,0,0,1,.4.67,2.46,2.46,0,0,1,.14.81,2.06,2.06,0,0,1-.19.9,1.83,1.83,0,0,1-.48.64,2.18,2.18,0,0,1-1.37.51,2.2,2.2,0,0,1-1.17-.29,2,2,0,0,1-.74-.79l.56-.28a1.79,1.79,0,0,0,.22.34,1.69,1.69,0,0,0,.32.27,1.18,1.18,0,0,0,.39.19,1.23,1.23,0,0,0,.42.07,1.39,1.39,0,0,0,.47-.09,1.66,1.66,0,0,0,.47-.29,1.48,1.48,0,0,0,.5-1.14,1.69,1.69,0,0,0-.12-.64,1.64,1.64,0,0,0-.85-.89,1.61,1.61,0,0,0-.63-.13,1.74,1.74,0,0,0-.67.13,2.55,2.55,0,0,0-.59.31l.05-3.25h3.14Z"/><path class="cls-2" d="M224.55,31.37a1.56,1.56,0,0,1,.5-1.2,1.59,1.59,0,0,1,.56-.34,2,2,0,0,1,1.37,0,1.59,1.59,0,0,1,.56.34,1.56,1.56,0,0,1,.5,1.2,1.39,1.39,0,0,1-.07.44,2,2,0,0,1-.2.41,1.48,1.48,0,0,1-.32.34,1.15,1.15,0,0,1-.43.21h0a1.31,1.31,0,0,1,.54.22,1.56,1.56,0,0,1,.39.38,2,2,0,0,1,.24.48,2,2,0,0,1,.08.56,2,2,0,0,1-.15.78,1.63,1.63,0,0,1-.42.58,1.7,1.7,0,0,1-.62.38,2.27,2.27,0,0,1-1.57,0,1.7,1.7,0,0,1-.62-.38,1.63,1.63,0,0,1-.42-.58,2,2,0,0,1-.15-.78,1.73,1.73,0,0,1,.09-.56,1.64,1.64,0,0,1,.23-.48A1.56,1.56,0,0,1,225,33a1.31,1.31,0,0,1,.54-.22h0a1.15,1.15,0,0,1-.43-.21,1.48,1.48,0,0,1-.32-.34,2,2,0,0,1-.2-.41,1.39,1.39,0,0,1-.07-.44m.37,3.05a1.4,1.4,0,0,0,.1.54,1.37,1.37,0,0,0,.28.44,1.5,1.5,0,0,0,.43.3,1.43,1.43,0,0,0,.56.11,1.48,1.48,0,0,0,.57-.11,1.5,1.5,0,0,0,.43-.3,1.37,1.37,0,0,0,.28-.44,1.4,1.4,0,0,0,.1-.54,1.36,1.36,0,0,0-.11-.58,1.46,1.46,0,0,0-.29-.44,1.4,1.4,0,0,0-1-.38,1.36,1.36,0,0,0-1,.38,1.46,1.46,0,0,0-.29.44,1.36,1.36,0,0,0-.11.58m.22-3.05a1.13,1.13,0,0,0,.09.45,1.28,1.28,0,0,0,.23.37,1.16,1.16,0,0,0,.36.25,1.15,1.15,0,0,0,.94,0,1.1,1.1,0,0,0,.37-.25,1.28,1.28,0,0,0,.23-.37,1.13,1.13,0,0,0,.09-.45,1.1,1.1,0,0,0-1.16-1.17,1.13,1.13,0,0,0-.82.31,1.15,1.15,0,0,0-.33.86"/><path class="cls-2" d="M279.78,18.51a.41.41,0,0,1,.7-.29.44.44,0,0,1,0,.58.44.44,0,0,1-.58,0,.4.4,0,0,1-.12-.29m.14,1.65h.54v4.15h-.54Z"/><path class="cls-2" d="M281.9,21.33c0-.08,0-.18,0-.29s0-.22,0-.33,0-.23,0-.32,0-.18,0-.23h.54c0,.15,0,.3,0,.45a1.52,1.52,0,0,0,0,.28h0a1.44,1.44,0,0,1,.54-.59,1.52,1.52,0,0,1,.88-.25,1.79,1.79,0,0,1,.79.15,1.2,1.2,0,0,1,.48.4,1.63,1.63,0,0,1,.25.57,3.71,3.71,0,0,1,.06.67v2.47h-.54V21.87a2.63,2.63,0,0,0,0-.49,1.16,1.16,0,0,0-.16-.43.75.75,0,0,0-.31-.3,1,1,0,0,0-.53-.12,1.47,1.47,0,0,0-.56.11,1.21,1.21,0,0,0-.46.31,1.61,1.61,0,0,0-.31.53,2.47,2.47,0,0,0-.11.75v2.08h-.54Z"/><path class="cls-2" d="M287.12,20.64h-.86v-.48h.86V18.8a1.61,1.61,0,0,1,.12-.67,1.27,1.27,0,0,1,.3-.43,1,1,0,0,1,.4-.23,1.32,1.32,0,0,1,.42-.07,1.56,1.56,0,0,1,.62.11l-.11.47a1.08,1.08,0,0,0-.48-.09c-.49,0-.73.37-.73,1.11v1.16h1v.48h-1v3.67h-.54Z"/><path class="cls-2" d="M289.15,22.24a2.5,2.5,0,0,1,.16-.88,2,2,0,0,1,1.15-1.15,2.5,2.5,0,0,1,1.76,0,2.14,2.14,0,0,1,.69.46,1.8,1.8,0,0,1,.45.69,2.34,2.34,0,0,1,0,1.75,1.8,1.8,0,0,1-.45.69,2.14,2.14,0,0,1-.69.46,2.5,2.5,0,0,1-1.76,0,2,2,0,0,1-1.15-1.15,2.49,2.49,0,0,1-.16-.87m.54,0a1.84,1.84,0,0,0,.12.66,1.62,1.62,0,0,0,3.06,0,1.9,1.9,0,0,0,0-1.33,1.62,1.62,0,0,0-3.06,0,1.85,1.85,0,0,0-.12.67"/><path class="cls-2" d="M298.65,23a2.08,2.08,0,0,0-.07.26.86.86,0,0,0,0,.17.34.34,0,0,0,0,.16.2.2,0,0,0,.19.08.82.82,0,0,0,.49-.2,2.14,2.14,0,0,0,.48-.51,3.05,3.05,0,0,0,.35-.7,2,2,0,0,0,.14-.76,2,2,0,0,0-.21-.92,2.22,2.22,0,0,0-.57-.72,2.53,2.53,0,0,0-.82-.46,2.91,2.91,0,0,0-1-.17,2.71,2.71,0,0,0-1.14.24,2.94,2.94,0,0,0-.91.64,3,3,0,0,0-.6.93,2.91,2.91,0,0,0-.21,1.1,2.89,2.89,0,0,0,.84,2.06,2.94,2.94,0,0,0,.91.64,2.88,2.88,0,0,0,1.13.22,2.5,2.5,0,0,0,.66-.09,3.81,3.81,0,0,0,.64-.24,3,3,0,0,0,.55-.38,2.38,2.38,0,0,0,.43-.47h.52a2.76,2.76,0,0,1-.51.67,3.3,3.3,0,0,1-.67.51,3.19,3.19,0,0,1-.79.32,2.92,2.92,0,0,1-.83.12,3.49,3.49,0,0,1-1.35-.26,3.36,3.36,0,0,1-1.07-.72,3.26,3.26,0,0,1-.7-1.07,3.49,3.49,0,0,1,0-2.62,3.24,3.24,0,0,1,.71-1.06,3.09,3.09,0,0,1,1.06-.71,3.15,3.15,0,0,1,1.3-.26,3.47,3.47,0,0,1,1.22.21,3.25,3.25,0,0,1,1,.56,2.58,2.58,0,0,1,.64.86,2.43,2.43,0,0,1,.24,1.07,2.75,2.75,0,0,1-.19,1,2.81,2.81,0,0,1-.48.85,2.24,2.24,0,0,1-.68.56,1.56,1.56,0,0,1-.76.21.54.54,0,0,1-.39-.15.6.6,0,0,1-.17-.46h0a1.75,1.75,0,0,1-.5.41,1.27,1.27,0,0,1-1.2.09,1,1,0,0,1-.37-.29,1.08,1.08,0,0,1-.23-.42,1.44,1.44,0,0,1-.08-.51,3,3,0,0,1,.15-.93,2.76,2.76,0,0,1,.42-.84,2.13,2.13,0,0,1,.67-.6,1.64,1.64,0,0,1,.88-.24,1.08,1.08,0,0,1,.57.17,1,1,0,0,1,.39.58h0l.21-.58h.54Zm-2.44-.19a.94.94,0,0,0,.2.62.7.7,0,0,0,.56.24,1,1,0,0,0,.59-.21,2,2,0,0,0,.49-.52,3.1,3.1,0,0,0,.32-.66,2.09,2.09,0,0,0,.12-.65,1.12,1.12,0,0,0-.18-.68.64.64,0,0,0-.55-.24,1,1,0,0,0-.63.21,1.88,1.88,0,0,0-.49.52,2.82,2.82,0,0,0-.32.68,2.59,2.59,0,0,0-.11.69"/><path class="cls-2" d="M305,22.57c0,.2,0,.39,0,.55s0,.31,0,.45,0,.26,0,.38a2.2,2.2,0,0,0,0,.36h-.51a4.57,4.57,0,0,1-.05-.67h0a1.5,1.5,0,0,1-.58.59,1.77,1.77,0,0,1-.88.19,1.93,1.93,0,0,1-.53-.07,1.33,1.33,0,0,1-.47-.21,1.1,1.1,0,0,1-.33-.38,1.26,1.26,0,0,1,.11-1.33,1.63,1.63,0,0,1,.6-.42,2.94,2.94,0,0,1,.75-.18c.27,0,.5,0,.71,0h.63v-.25a.87.87,0,0,0-.33-.77,1.43,1.43,0,0,0-.84-.24,1.92,1.92,0,0,0-1.27.47l-.32-.37a1.88,1.88,0,0,1,.74-.43,2.68,2.68,0,0,1,.85-.15,1.92,1.92,0,0,1,1.2.35,1.38,1.38,0,0,1,.45,1.15Zm-1.08-.34a4.87,4.87,0,0,0-.66,0,2.38,2.38,0,0,0-.57.15,1.16,1.16,0,0,0-.41.29.69.69,0,0,0-.16.45.64.64,0,0,0,.09.34.73.73,0,0,0,.22.24,1.05,1.05,0,0,0,.3.15,1.33,1.33,0,0,0,.34.05,1.8,1.8,0,0,0,.71-.13,1.17,1.17,0,0,0,.45-.33,1.25,1.25,0,0,0,.23-.46,2.24,2.24,0,0,0,.06-.52v-.27Z"/><path class="cls-2" d="M306.22,20.16h.54v.72h0a1.36,1.36,0,0,1,.31-.37,2.19,2.19,0,0,1,.41-.26,1.9,1.9,0,0,1,.46-.15,2.7,2.7,0,0,1,.48-.05,2.3,2.3,0,0,1,.88.16,2,2,0,0,1,.69.46,1.94,1.94,0,0,1,.46.69,2.47,2.47,0,0,1,0,1.75,1.94,1.94,0,0,1-.46.69,2,2,0,0,1-.69.46,2.3,2.3,0,0,1-.88.16,2,2,0,0,1-.48-.05,1.9,1.9,0,0,1-.46-.15,2.19,2.19,0,0,1-.41-.26,1.36,1.36,0,0,1-.31-.37h0v2.78h-.54Zm.48,2.08a1.66,1.66,0,0,0,.14.66,1.79,1.79,0,0,0,.37.54,1.75,1.75,0,0,0,.55.36,1.69,1.69,0,0,0,.68.14,1.54,1.54,0,0,0,1.53-1,1.9,1.9,0,0,0,0-1.33,1.61,1.61,0,0,0-1.53-1,1.69,1.69,0,0,0-.68.14,1.75,1.75,0,0,0-.55.36,1.79,1.79,0,0,0-.37.54,1.67,1.67,0,0,0-.14.67"/><path class="cls-2" d="M311.74,21.33c0-.08,0-.18,0-.29s0-.22,0-.33,0-.23,0-.32a2.2,2.2,0,0,1,0-.23h.54c0,.15,0,.3,0,.45s0,.23,0,.28a1.87,1.87,0,0,1,.54-.61,1.34,1.34,0,0,1,.79-.23h.16l.15,0-.06.53-.21,0a1.57,1.57,0,0,0-.6.11,1.16,1.16,0,0,0-.43.31,1.46,1.46,0,0,0-.25.46,2.14,2.14,0,0,0-.08.58v2.26h-.54Z"/><path class="cls-2" d="M314.25,22.24a2.3,2.3,0,0,1,.17-.88,1.8,1.8,0,0,1,.45-.69,1.94,1.94,0,0,1,.69-.46,2.5,2.5,0,0,1,1.76,0,2,2,0,0,1,.69.46,1.94,1.94,0,0,1,.46.69,2.47,2.47,0,0,1,0,1.75,1.94,1.94,0,0,1-.46.69,2,2,0,0,1-.69.46,2.5,2.5,0,0,1-1.76,0,1.94,1.94,0,0,1-.69-.46,1.8,1.8,0,0,1-.45-.69,2.29,2.29,0,0,1-.17-.87m.54,0a1.84,1.84,0,0,0,.12.66,1.68,1.68,0,0,0,2.74.54,1.87,1.87,0,0,0,.33-.54,2.07,2.07,0,0,0,0-1.33,1.87,1.87,0,0,0-.33-.54,1.62,1.62,0,0,0-2.74.54,1.85,1.85,0,0,0-.12.67"/><path class="cls-2" d="M319.7,18.51a.4.4,0,0,1,.12-.29.36.36,0,0,1,.28-.12.38.38,0,0,1,.29.12.41.41,0,0,1,0,.58.38.38,0,0,1-.29.11.36.36,0,0,1-.28-.11.4.4,0,0,1-.12-.29m.13,1.65h.54v4.15h-.54Z"/><path class="cls-2" d="M323.85,20.64h-1.19v2.71a.58.58,0,0,0,.15.43.6.6,0,0,0,.43.16,1.76,1.76,0,0,0,.31,0l.3-.11,0,.49-.35.1a1.56,1.56,0,0,1-.35,0,1.4,1.4,0,0,1-.49-.08,1.07,1.07,0,0,1-.34-.23,1,1,0,0,1-.18-.34,1.42,1.42,0,0,1-.06-.42V20.64h-.9v-.48h.9V19h.54v1.2h1.19Z"/><path class="cls-2" d="M324.73,23.25a1.17,1.17,0,0,0,.5.51,1.5,1.5,0,0,0,.71.18,1.06,1.06,0,0,0,.34-.06.85.85,0,0,0,.3-.15.83.83,0,0,0,.22-.24.57.57,0,0,0,.09-.32.52.52,0,0,0-.18-.43,1.53,1.53,0,0,0-.46-.23l-.59-.14a2.21,2.21,0,0,1-.6-.18,1.25,1.25,0,0,1-.45-.33,1,1,0,0,1-.19-.62,1.12,1.12,0,0,1,.13-.53,1.06,1.06,0,0,1,.33-.37,1.45,1.45,0,0,1,.45-.22,1.81,1.81,0,0,1,.52-.07,1.87,1.87,0,0,1,.88.19,1.28,1.28,0,0,1,.58.59l-.48.29a1.12,1.12,0,0,0-.39-.44,1.05,1.05,0,0,0-.59-.15,1.27,1.27,0,0,0-.59.17,1,1,0,0,0-.21.21.53.53,0,0,0,.1.7,1.34,1.34,0,0,0,.45.21,4.43,4.43,0,0,0,.6.14,2.24,2.24,0,0,1,.59.17,1.31,1.31,0,0,1,.46.35,1.06,1.06,0,0,1,.18.66,1.25,1.25,0,0,1-.12.56,1.16,1.16,0,0,1-.33.4,1.49,1.49,0,0,1-.49.24,1.73,1.73,0,0,1-.56.08,2.47,2.47,0,0,1-1-.2,1.55,1.55,0,0,1-.69-.65Z"/><path class="cls-2" d="M328.23,22.24a2.5,2.5,0,0,1,.16-.88,2,2,0,0,1,1.15-1.15,2.3,2.3,0,0,1,.88-.16,2.21,2.21,0,0,1,.87.16,2,2,0,0,1,1.15,1.15,2.47,2.47,0,0,1,0,1.75,2,2,0,0,1-1.15,1.15,2.21,2.21,0,0,1-.87.16,2.3,2.3,0,0,1-.88-.16,2,2,0,0,1-1.15-1.15,2.49,2.49,0,0,1-.16-.87m.54,0a2.08,2.08,0,0,0,.11.66,1.87,1.87,0,0,0,.33.54,1.66,1.66,0,0,0,1.21.5,1.65,1.65,0,0,0,.68-.14,1.53,1.53,0,0,0,.85-.9,2.07,2.07,0,0,0,0-1.33,1.53,1.53,0,0,0-.85-.9,1.65,1.65,0,0,0-.68-.14,1.66,1.66,0,0,0-1.21.5,1.87,1.87,0,0,0-.33.54,2.09,2.09,0,0,0-.11.67"/><rect class="cls-2" x="333.81" y="17.51" width="0.54" height="6.81"/><path class="cls-2" d="M339.31,23.14c0,.08,0,.18,0,.29s0,.22,0,.34,0,.22,0,.31,0,.18,0,.23h-.54c0-.15,0-.3,0-.45a1.52,1.52,0,0,0,0-.28h0a1.44,1.44,0,0,1-.54.59,1.52,1.52,0,0,1-.88.25,1.87,1.87,0,0,1-.8-.15,1.27,1.27,0,0,1-.48-.4,1.45,1.45,0,0,1-.24-.57,3.71,3.71,0,0,1-.06-.67V20.16h.54V22.6a2.56,2.56,0,0,0,0,.49,1.16,1.16,0,0,0,.16.43.75.75,0,0,0,.31.3,1,1,0,0,0,.53.12,1.47,1.47,0,0,0,.56-.11,1.21,1.21,0,0,0,.46-.31,1.72,1.72,0,0,0,.31-.53,2.47,2.47,0,0,0,.11-.75V20.16h.54Z"/><path class="cls-2" d="M342.74,20.64h-1.19v2.71a.58.58,0,0,0,.15.43.61.61,0,0,0,.43.16,1.76,1.76,0,0,0,.31,0l.3-.11,0,.49-.35.1a1.56,1.56,0,0,1-.35,0,1.4,1.4,0,0,1-.49-.08,1.07,1.07,0,0,1-.34-.23,1,1,0,0,1-.18-.34,1.42,1.42,0,0,1-.06-.42V20.64h-.9v-.48h.9V19h.54v1.2h1.19Z"/><path class="cls-2" d="M343.58,18.51a.39.39,0,0,1,.11-.29.4.4,0,0,1,.29-.12.38.38,0,0,1,.29.12.41.41,0,0,1,0,.58.38.38,0,0,1-.29.11.38.38,0,0,1-.4-.4m.13,1.65h.54v4.15h-.54Z"/><path class="cls-2" d="M345.46,22.24a2.3,2.3,0,0,1,.16-.88,2.06,2.06,0,0,1,.45-.69,1.94,1.94,0,0,1,.69-.46,2.33,2.33,0,0,1,.88-.16,2.3,2.3,0,0,1,.88.16,2.11,2.11,0,0,1,1.15,1.15,2.47,2.47,0,0,1,0,1.75,2.11,2.11,0,0,1-1.15,1.15,2.3,2.3,0,0,1-.88.16,2.33,2.33,0,0,1-.88-.16,1.94,1.94,0,0,1-.69-.46,2.06,2.06,0,0,1-.45-.69,2.28,2.28,0,0,1-.16-.87m.54,0a1.83,1.83,0,0,0,.11.66,1.51,1.51,0,0,0,.33.54,1.61,1.61,0,0,0,.52.36,1.65,1.65,0,0,0,.68.14,1.7,1.7,0,0,0,.69-.14,1.61,1.61,0,0,0,.52-.36,1.87,1.87,0,0,0,.33-.54,2.07,2.07,0,0,0,0-1.33,1.87,1.87,0,0,0-.33-.54,1.61,1.61,0,0,0-.52-.36,1.7,1.7,0,0,0-.69-.14,1.65,1.65,0,0,0-.68.14,1.61,1.61,0,0,0-.52.36,1.51,1.51,0,0,0-.33.54,1.85,1.85,0,0,0-.11.67"/><path class="cls-2" d="M351,21.33c0-.08,0-.18,0-.29s0-.22,0-.33a3.11,3.11,0,0,0,0-.32,2.2,2.2,0,0,1,0-.23h.54c0,.15,0,.3,0,.45a1.52,1.52,0,0,0,0,.28h0a1.44,1.44,0,0,1,.54-.59,1.57,1.57,0,0,1,.89-.25,1.82,1.82,0,0,1,.79.15,1.35,1.35,0,0,1,.48.4,1.45,1.45,0,0,1,.24.57,3,3,0,0,1,.07.67v2.47H354V21.87a2.63,2.63,0,0,0,0-.49,1.37,1.37,0,0,0-.16-.43.77.77,0,0,0-.32-.3,1,1,0,0,0-.52-.12,1.56,1.56,0,0,0-.57.11,1.17,1.17,0,0,0-.45.31,1.46,1.46,0,0,0-.31.53,2.19,2.19,0,0,0-.11.75v2.08H351Z"/><path class="cls-2" d="M355.87,23.25a1.17,1.17,0,0,0,.5.51,1.5,1.5,0,0,0,.71.18,1.06,1.06,0,0,0,.34-.06.85.85,0,0,0,.3-.15.83.83,0,0,0,.22-.24.57.57,0,0,0,.09-.32.52.52,0,0,0-.18-.43,1.53,1.53,0,0,0-.46-.23l-.59-.14a2.21,2.21,0,0,1-.6-.18,1.25,1.25,0,0,1-.45-.33,1,1,0,0,1-.19-.62,1.12,1.12,0,0,1,.13-.53,1.06,1.06,0,0,1,.33-.37,1.45,1.45,0,0,1,.45-.22,1.81,1.81,0,0,1,.52-.07,1.87,1.87,0,0,1,.88.19,1.28,1.28,0,0,1,.58.59l-.48.29a1.2,1.2,0,0,0-.39-.44,1.05,1.05,0,0,0-.59-.15,1.27,1.27,0,0,0-.59.17,1,1,0,0,0-.21.21.53.53,0,0,0,.1.7,1.34,1.34,0,0,0,.45.21,4.43,4.43,0,0,0,.6.14,2.24,2.24,0,0,1,.59.17,1.31,1.31,0,0,1,.46.35,1.06,1.06,0,0,1,.18.66,1.25,1.25,0,0,1-.12.56,1.16,1.16,0,0,1-.33.4,1.49,1.49,0,0,1-.49.24,1.73,1.73,0,0,1-.56.08,2.47,2.47,0,0,1-1-.2,1.55,1.55,0,0,1-.69-.65Z"/><path class="cls-2" d="M359.62,23.94a.4.4,0,0,1,.13-.31.42.42,0,0,1,.31-.13.42.42,0,0,1,.3.13.44.44,0,0,1,.13.31.42.42,0,0,1-.13.3.38.38,0,0,1-.3.13.39.39,0,0,1-.31-.13.38.38,0,0,1-.13-.3"/><path class="cls-2" d="M365.34,23.7a2,2,0,0,1-.7.55,2.05,2.05,0,0,1-.83.17,2.26,2.26,0,0,1-.88-.16,2,2,0,0,1-.7-.45,2.21,2.21,0,0,1-.45-.7,2.47,2.47,0,0,1,0-1.75,2.06,2.06,0,0,1,.45-.69,1.9,1.9,0,0,1,.7-.46,2.26,2.26,0,0,1,.88-.16,1.89,1.89,0,0,1,.85.19,2.2,2.2,0,0,1,.7.53l-.44.32a1.81,1.81,0,0,0-.51-.41,1.27,1.27,0,0,0-.6-.15,1.74,1.74,0,0,0-.69.14,1.61,1.61,0,0,0-.52.36,1.87,1.87,0,0,0-.33.54,2.07,2.07,0,0,0,0,1.33,1.87,1.87,0,0,0,.33.54,1.61,1.61,0,0,0,.52.36,1.74,1.74,0,0,0,.69.14,1.33,1.33,0,0,0,.62-.16,1.79,1.79,0,0,0,.49-.42Z"/><path class="cls-2" d="M365.86,22.24a2.3,2.3,0,0,1,.16-.88,2.06,2.06,0,0,1,.45-.69,1.94,1.94,0,0,1,.69-.46,2.35,2.35,0,0,1,.89-.16,2.25,2.25,0,0,1,.87.16,2,2,0,0,1,1.15,1.15,2.47,2.47,0,0,1,0,1.75,2,2,0,0,1-1.15,1.15,2.25,2.25,0,0,1-.87.16,2.35,2.35,0,0,1-.89-.16,1.94,1.94,0,0,1-.69-.46,2.06,2.06,0,0,1-.45-.69,2.28,2.28,0,0,1-.16-.87m.54,0a2.08,2.08,0,0,0,.11.66,1.87,1.87,0,0,0,.33.54,1.61,1.61,0,0,0,.52.36,1.7,1.7,0,0,0,.69.14,1.65,1.65,0,0,0,.68-.14,1.61,1.61,0,0,0,.52-.36,1.51,1.51,0,0,0,.33-.54,2.07,2.07,0,0,0,0-1.33,1.51,1.51,0,0,0-.33-.54,1.61,1.61,0,0,0-.52-.36,1.65,1.65,0,0,0-.68-.14,1.7,1.7,0,0,0-.69.14,1.61,1.61,0,0,0-.52.36,1.87,1.87,0,0,0-.33.54,2.09,2.09,0,0,0-.11.67"/><path class="cls-2" d="M371.35,21.33c0-.08,0-.18,0-.29s0-.22,0-.33,0-.23,0-.32,0-.18,0-.23h.54c0,.15,0,.3,0,.45a1.52,1.52,0,0,0,0,.28h0a1.44,1.44,0,0,1,.54-.59,1.52,1.52,0,0,1,.88-.25,1.37,1.37,0,0,1,.75.21,1.18,1.18,0,0,1,.5.69,1.39,1.39,0,0,1,.59-.69,1.7,1.7,0,0,1,.82-.21,1.84,1.84,0,0,1,.8.15,1.35,1.35,0,0,1,.48.4,1.81,1.81,0,0,1,.24.57,3.71,3.71,0,0,1,.07.67v2.47H377V21.87a2.63,2.63,0,0,0-.05-.49,1.16,1.16,0,0,0-.16-.43.75.75,0,0,0-.31-.3,1,1,0,0,0-.53-.12,1.26,1.26,0,0,0-.62.14A1.2,1.2,0,0,0,375,21a1.52,1.52,0,0,0-.2.47,2,2,0,0,0-.06.47v2.34h-.54v-2.5a1.77,1.77,0,0,0-.21-.92.7.7,0,0,0-.65-.36,1.47,1.47,0,0,0-.56.11,1.21,1.21,0,0,0-.46.31,1.61,1.61,0,0,0-.31.53,2.47,2.47,0,0,0-.11.75v2.08h-.54Z"/><polygon class="cls-2" points="279.78 32.16 280.38 32.16 281.39 35.64 281.4 35.64 282.56 32.16 283.08 32.16 284.31 35.64 284.33 35.64 285.31 32.16 285.85 32.16 284.63 36.31 284.07 36.31 282.83 32.91 282.81 32.91 281.65 36.31 281.09 36.31 279.78 32.16"/><polygon class="cls-2" points="286.03 32.16 286.62 32.16 287.63 35.64 287.65 35.64 288.81 32.16 289.32 32.16 290.56 35.64 290.57 35.64 291.56 32.16 292.1 32.16 290.87 36.31 290.31 36.31 289.07 32.91 289.05 32.91 287.89 36.31 287.33 36.31 286.03 32.16"/><polygon class="cls-2" points="292.28 32.16 292.87 32.16 293.88 35.64 293.9 35.64 295.06 32.16 295.57 32.16 296.8 35.64 296.82 35.64 297.8 32.16 298.34 32.16 297.12 36.31 296.56 36.31 295.32 32.91 295.3 32.91 294.14 36.31 293.58 36.31 292.28 32.16"/><path class="cls-2" d="M298.63,35.94a.4.4,0,0,1,.13-.31.42.42,0,0,1,.3-.13.46.46,0,0,1,.31.13.43.43,0,0,1,.12.31.41.41,0,0,1-.12.3.42.42,0,0,1-.31.13.44.44,0,0,1-.43-.43"/><path class="cls-2" d="M304.09,34.57c0,.2,0,.39,0,.55s0,.31,0,.45,0,.26,0,.38,0,.24,0,.36h-.5a3.51,3.51,0,0,1-.05-.67h0a1.5,1.5,0,0,1-.58.59,1.79,1.79,0,0,1-.88.19,1.88,1.88,0,0,1-.53-.07,1.33,1.33,0,0,1-.47-.21,1.24,1.24,0,0,1-.34-.38,1.26,1.26,0,0,1-.13-.57,1.09,1.09,0,0,1,.25-.76,1.67,1.67,0,0,1,.59-.42,3.13,3.13,0,0,1,.76-.18c.27,0,.5,0,.71,0h.63v-.25a.85.85,0,0,0-.34-.77,1.38,1.38,0,0,0-.83-.24,1.9,1.9,0,0,0-1.27.47l-.32-.37a1.88,1.88,0,0,1,.74-.43,2.63,2.63,0,0,1,.85-.15,1.92,1.92,0,0,1,1.2.35,1.38,1.38,0,0,1,.45,1.15ZM303,34.23a4.68,4.68,0,0,0-.66,0,2.38,2.38,0,0,0-.57.15,1.08,1.08,0,0,0-.41.29.7.7,0,0,0-.07.79.73.73,0,0,0,.22.24,1.05,1.05,0,0,0,.3.15,1.27,1.27,0,0,0,.34,0,1.8,1.8,0,0,0,.71-.13,1.07,1.07,0,0,0,.44-.33,1,1,0,0,0,.23-.46,1.81,1.81,0,0,0,.07-.52v-.27Z"/><path class="cls-2" d="M305.33,32.16h.54v.72h0a1.61,1.61,0,0,1,.32-.37,2.19,2.19,0,0,1,.41-.26,1.9,1.9,0,0,1,.46-.15,2.61,2.61,0,0,1,.48-.05,2.3,2.3,0,0,1,.88.16,2.14,2.14,0,0,1,.69.46,1.92,1.92,0,0,1,.45.69,2.34,2.34,0,0,1,0,1.75,1.92,1.92,0,0,1-.45.69,2.14,2.14,0,0,1-.69.46,2.3,2.3,0,0,1-.88.16,2,2,0,0,1-.48-.05,1.9,1.9,0,0,1-.46-.15,2.19,2.19,0,0,1-.41-.26,1.61,1.61,0,0,1-.32-.37h0v2.78h-.54Zm.48,2.08a1.66,1.66,0,0,0,.14.66,1.79,1.79,0,0,0,.37.54,1.75,1.75,0,0,0,.55.36,1.69,1.69,0,0,0,.68.14,1.54,1.54,0,0,0,1.53-1,1.9,1.9,0,0,0,0-1.33,1.61,1.61,0,0,0-1.53-1,1.69,1.69,0,0,0-.68.14,1.75,1.75,0,0,0-.55.36,1.79,1.79,0,0,0-.37.54,1.67,1.67,0,0,0-.14.67"/><path class="cls-2" d="M310.85,33.33c0-.08,0-.18,0-.29s0-.22,0-.33,0-.23,0-.32a2.2,2.2,0,0,1,0-.23h.54c0,.15,0,.3,0,.45a1.52,1.52,0,0,0,0,.28,2,2,0,0,1,.53-.61,1.37,1.37,0,0,1,.8-.23h.15l.16,0-.06.53-.21,0a1.66,1.66,0,0,0-.61.11,1.21,1.21,0,0,0-.42.31,1.46,1.46,0,0,0-.25.46,2.14,2.14,0,0,0-.08.58v2.26h-.54Z"/><path class="cls-2" d="M313.36,34.24a2.3,2.3,0,0,1,.17-.88,1.8,1.8,0,0,1,.45-.69,1.94,1.94,0,0,1,.69-.46,2.5,2.5,0,0,1,1.76,0,2,2,0,0,1,.69.46,1.94,1.94,0,0,1,.46.69,2.47,2.47,0,0,1,0,1.75,1.94,1.94,0,0,1-.46.69,2,2,0,0,1-.69.46,2.5,2.5,0,0,1-1.76,0,1.94,1.94,0,0,1-.69-.46,1.8,1.8,0,0,1-.45-.69,2.29,2.29,0,0,1-.17-.87m.54,0a1.84,1.84,0,0,0,.12.66,1.68,1.68,0,0,0,2.74.54,1.87,1.87,0,0,0,.33-.54,2.07,2.07,0,0,0,0-1.33,1.87,1.87,0,0,0-.33-.54,1.62,1.62,0,0,0-2.74.54,1.85,1.85,0,0,0-.12.67"/><path class="cls-2" d="M318.81,30.51a.4.4,0,0,1,.12-.29.36.36,0,0,1,.28-.12.38.38,0,0,1,.29.12.41.41,0,0,1,0,.58.38.38,0,0,1-.29.11.36.36,0,0,1-.28-.11.4.4,0,0,1-.12-.29m.13,1.65h.54v4.15h-.54Z"/><path class="cls-2" d="M323,32.64h-1.19v2.71a.54.54,0,0,0,.58.59,1.76,1.76,0,0,0,.31,0l.3-.11,0,.49-.35.1a1.56,1.56,0,0,1-.35,0,1.4,1.4,0,0,1-.49-.08,1.07,1.07,0,0,1-.34-.23,1,1,0,0,1-.18-.34,1.42,1.42,0,0,1-.06-.42V32.64h-.9v-.48h.9V31h.54v1.2H323Z"/><path class="cls-2" d="M323.84,35.25a1.17,1.17,0,0,0,.5.51,1.49,1.49,0,0,0,.7.18,1.07,1.07,0,0,0,.35-.06.85.85,0,0,0,.3-.15.83.83,0,0,0,.22-.24.57.57,0,0,0,.09-.32.5.5,0,0,0-.19-.43,1.36,1.36,0,0,0-.45-.23l-.59-.14a2.21,2.21,0,0,1-.6-.18,1.25,1.25,0,0,1-.45-.33.9.9,0,0,1-.19-.62,1,1,0,0,1,.13-.53,1.06,1.06,0,0,1,.33-.37,1.35,1.35,0,0,1,.45-.22,1.79,1.79,0,0,1,.51-.07,1.89,1.89,0,0,1,.89.19,1.28,1.28,0,0,1,.58.59l-.48.29a1.2,1.2,0,0,0-.39-.44,1.07,1.07,0,0,0-.6-.15,1.27,1.27,0,0,0-.58.17,1,1,0,0,0-.21.21.48.48,0,0,0-.09.29.45.45,0,0,0,.19.41,1.34,1.34,0,0,0,.45.21,4.43,4.43,0,0,0,.6.14,2.24,2.24,0,0,1,.59.17,1.19,1.19,0,0,1,.45.35,1,1,0,0,1,.19.66,1.25,1.25,0,0,1-.12.56,1.09,1.09,0,0,1-.34.4,1.35,1.35,0,0,1-.48.24,1.77,1.77,0,0,1-.56.08,2.47,2.47,0,0,1-1-.2,1.5,1.5,0,0,1-.69-.65Z"/><path class="cls-2" d="M327.34,34.24a2.3,2.3,0,0,1,.16-.88,2.06,2.06,0,0,1,.45-.69,1.9,1.9,0,0,1,.7-.46,2.47,2.47,0,0,1,1.75,0,2,2,0,0,1,1.15,1.15,2.47,2.47,0,0,1,0,1.75,2,2,0,0,1-1.15,1.15,2.47,2.47,0,0,1-1.75,0,1.9,1.9,0,0,1-.7-.46,2.06,2.06,0,0,1-.45-.69,2.28,2.28,0,0,1-.16-.87m.54,0a2.08,2.08,0,0,0,.11.66,1.87,1.87,0,0,0,.33.54,1.61,1.61,0,0,0,.52.36,1.74,1.74,0,0,0,.69.14,1.65,1.65,0,0,0,.68-.14,1.61,1.61,0,0,0,.52-.36,1.51,1.51,0,0,0,.33-.54,2.07,2.07,0,0,0,0-1.33,1.51,1.51,0,0,0-.33-.54,1.61,1.61,0,0,0-.52-.36,1.65,1.65,0,0,0-.68-.14,1.74,1.74,0,0,0-.69.14,1.61,1.61,0,0,0-.52.36,1.87,1.87,0,0,0-.33.54,2.09,2.09,0,0,0-.11.67"/><rect class="cls-2" x="332.92" y="29.51" width="0.54" height="6.81"/><path class="cls-2" d="M338.42,35.14c0,.08,0,.18,0,.29s0,.22,0,.34,0,.22,0,.31a2.2,2.2,0,0,1,0,.23h-.54c0-.15,0-.3,0-.45a1.52,1.52,0,0,0,0-.28h0a1.44,1.44,0,0,1-.54.59,1.54,1.54,0,0,1-.88.25,1.84,1.84,0,0,1-.8-.15,1.27,1.27,0,0,1-.48-.4,1.45,1.45,0,0,1-.24-.57,3.71,3.71,0,0,1-.07-.67V32.16h.54V34.6a2.54,2.54,0,0,0,.05.49,1.16,1.16,0,0,0,.16.43.75.75,0,0,0,.31.3,1,1,0,0,0,.53.12,1.51,1.51,0,0,0,.56-.11,1.21,1.21,0,0,0,.46-.31,1.72,1.72,0,0,0,.31-.53,2.47,2.47,0,0,0,.11-.75V32.16h.54Z"/><path class="cls-2" d="M341.85,32.64h-1.19v2.71a.58.58,0,0,0,.15.43.6.6,0,0,0,.43.16,1.76,1.76,0,0,0,.31,0l.3-.11,0,.49-.35.1a1.56,1.56,0,0,1-.35,0,1.4,1.4,0,0,1-.49-.08,1.07,1.07,0,0,1-.34-.23,1,1,0,0,1-.18-.34,1.42,1.42,0,0,1-.06-.42V32.64h-.9v-.48h.9V31h.54v1.2h1.19Z"/><path class="cls-2" d="M342.68,30.51a.41.41,0,0,1,.7-.29.41.41,0,0,1-.58.58.4.4,0,0,1-.12-.29m.14,1.65h.54v4.15h-.54Z"/><path class="cls-2" d="M344.57,34.24a2.3,2.3,0,0,1,.16-.88,2.06,2.06,0,0,1,.45-.69,1.94,1.94,0,0,1,.69-.46,2.5,2.5,0,0,1,1.76,0,2.11,2.11,0,0,1,1.15,1.15,2.47,2.47,0,0,1,0,1.75,2.11,2.11,0,0,1-1.15,1.15,2.5,2.5,0,0,1-1.76,0,1.94,1.94,0,0,1-.69-.46,2.06,2.06,0,0,1-.45-.69,2.28,2.28,0,0,1-.16-.87m.54,0a1.83,1.83,0,0,0,.11.66,1.51,1.51,0,0,0,.33.54,1.61,1.61,0,0,0,.52.36,1.65,1.65,0,0,0,.68.14,1.66,1.66,0,0,0,1.21-.5,1.87,1.87,0,0,0,.33-.54,2.07,2.07,0,0,0,0-1.33A1.87,1.87,0,0,0,348,33a1.66,1.66,0,0,0-1.21-.5,1.65,1.65,0,0,0-.68.14,1.61,1.61,0,0,0-.52.36,1.51,1.51,0,0,0-.33.54,1.85,1.85,0,0,0-.11.67"/><path class="cls-2" d="M350.06,33.33c0-.08,0-.18,0-.29s0-.22,0-.33a3.11,3.11,0,0,0,0-.32,2.2,2.2,0,0,1,0-.23h.54c0,.15,0,.3,0,.45a1.28,1.28,0,0,0,0,.28h0a1.44,1.44,0,0,1,.54-.59,1.57,1.57,0,0,1,.89-.25,1.82,1.82,0,0,1,.79.15,1.35,1.35,0,0,1,.48.4,1.45,1.45,0,0,1,.24.57,3,3,0,0,1,.07.67v2.47h-.54V33.87a2.63,2.63,0,0,0-.05-.49,1.36,1.36,0,0,0-.15-.43.77.77,0,0,0-.32-.3,1,1,0,0,0-.52-.12,1.56,1.56,0,0,0-.57.11A1.29,1.29,0,0,0,351,33a1.44,1.44,0,0,0-.3.53,2.19,2.19,0,0,0-.11.75v2.08h-.54Z"/><path class="cls-2" d="M355,35.25a1.17,1.17,0,0,0,.5.51,1.49,1.49,0,0,0,.7.18,1.07,1.07,0,0,0,.35-.06.85.85,0,0,0,.3-.15.83.83,0,0,0,.22-.24.57.57,0,0,0,.09-.32.5.5,0,0,0-.19-.43,1.36,1.36,0,0,0-.45-.23l-.59-.14a2.21,2.21,0,0,1-.6-.18,1.25,1.25,0,0,1-.45-.33.9.9,0,0,1-.19-.62,1,1,0,0,1,.13-.53,1.06,1.06,0,0,1,.33-.37,1.35,1.35,0,0,1,.45-.22,1.79,1.79,0,0,1,.51-.07,1.89,1.89,0,0,1,.89.19,1.28,1.28,0,0,1,.58.59l-.48.29a1.2,1.2,0,0,0-.39-.44,1.07,1.07,0,0,0-.6-.15,1.27,1.27,0,0,0-.58.17,1,1,0,0,0-.21.21.48.48,0,0,0-.09.29.45.45,0,0,0,.19.41,1.34,1.34,0,0,0,.45.21,4.43,4.43,0,0,0,.6.14,2.24,2.24,0,0,1,.59.17,1.19,1.19,0,0,1,.45.35,1,1,0,0,1,.19.66,1.25,1.25,0,0,1-.12.56,1.09,1.09,0,0,1-.34.4,1.35,1.35,0,0,1-.48.24,1.77,1.77,0,0,1-.56.08,2.47,2.47,0,0,1-1-.2,1.5,1.5,0,0,1-.69-.65Z"/><path class="cls-2" d="M358.73,35.94a.4.4,0,0,1,.13-.31.42.42,0,0,1,.3-.13.44.44,0,0,1,.44.44.42.42,0,0,1-.13.3.4.4,0,0,1-.31.13.44.44,0,0,1-.43-.43"/><path class="cls-2" d="M364.45,35.7a2,2,0,0,1-.7.55,2.05,2.05,0,0,1-.83.17,2.26,2.26,0,0,1-.88-.16,2,2,0,0,1-.7-.45,2.21,2.21,0,0,1-.45-.7,2.47,2.47,0,0,1,0-1.75,2.06,2.06,0,0,1,.45-.69,1.9,1.9,0,0,1,.7-.46,2.26,2.26,0,0,1,.88-.16,1.89,1.89,0,0,1,.85.19,2.2,2.2,0,0,1,.7.53l-.44.32a1.81,1.81,0,0,0-.51-.41,1.27,1.27,0,0,0-.6-.15,1.74,1.74,0,0,0-.69.14,1.61,1.61,0,0,0-.52.36,1.87,1.87,0,0,0-.33.54,2.07,2.07,0,0,0,0,1.33,1.87,1.87,0,0,0,.33.54,1.61,1.61,0,0,0,.52.36,1.74,1.74,0,0,0,.69.14,1.33,1.33,0,0,0,.62-.16,1.79,1.79,0,0,0,.49-.42Z"/><path class="cls-2" d="M365,34.24a2.3,2.3,0,0,1,.16-.88,2.06,2.06,0,0,1,.45-.69,1.94,1.94,0,0,1,.69-.46,2.33,2.33,0,0,1,.88-.16,2.26,2.26,0,0,1,.88.16,2,2,0,0,1,1.15,1.15,2.47,2.47,0,0,1,0,1.75A2,2,0,0,1,368,36.26a2.26,2.26,0,0,1-.88.16,2.33,2.33,0,0,1-.88-.16,1.94,1.94,0,0,1-.69-.46,2.06,2.06,0,0,1-.45-.69,2.28,2.28,0,0,1-.16-.87m.54,0a2.08,2.08,0,0,0,.11.66,1.87,1.87,0,0,0,.33.54,1.61,1.61,0,0,0,.52.36,1.69,1.69,0,0,0,.68.14,1.67,1.67,0,0,0,.69-.14,1.61,1.61,0,0,0,.52-.36,1.67,1.67,0,0,0,.33-.54,2.07,2.07,0,0,0,0-1.33,1.67,1.67,0,0,0-.33-.54,1.61,1.61,0,0,0-.52-.36,1.67,1.67,0,0,0-.69-.14,1.69,1.69,0,0,0-.68.14A1.61,1.61,0,0,0,366,33a1.87,1.87,0,0,0-.33.54,2.09,2.09,0,0,0-.11.67"/><path class="cls-2" d="M370.46,33.33c0-.08,0-.18,0-.29s0-.22,0-.33,0-.23,0-.32,0-.18,0-.23H371c0,.15,0,.3,0,.45a1.52,1.52,0,0,0,0,.28h0a1.32,1.32,0,0,1,.54-.59,1.52,1.52,0,0,1,.88-.25,1.39,1.39,0,0,1,.75.21,1.18,1.18,0,0,1,.5.69,1.39,1.39,0,0,1,.59-.69,1.7,1.7,0,0,1,.82-.21,1.76,1.76,0,0,1,.79.15,1.31,1.31,0,0,1,.49.4,1.81,1.81,0,0,1,.24.57,3.71,3.71,0,0,1,.07.67v2.47h-.54V33.87a2.63,2.63,0,0,0,0-.49,1.16,1.16,0,0,0-.16-.43.75.75,0,0,0-.31-.3,1,1,0,0,0-.53-.12,1.26,1.26,0,0,0-.62.14,1.2,1.2,0,0,0-.38.36,1.52,1.52,0,0,0-.2.47,2,2,0,0,0-.06.47v2.34h-.54v-2.5a1.77,1.77,0,0,0-.21-.92.7.7,0,0,0-.65-.36,1.47,1.47,0,0,0-.56.11,1.21,1.21,0,0,0-.46.31,1.61,1.61,0,0,0-.31.53,2.47,2.47,0,0,0-.11.75v2.08h-.54Z"/><line class="cls-3" x1="254.01" y1="15.94" x2="254.01" y2="38.44"/><rect class="cls-4" x="399" y="15.66" width="196.28" height="20.66"/></svg>