<?xml version="1.0" encoding="utf-8"?>
<!--
  - Copyright (c) 2022. Lorem ipsum dolor sit amet, consectetur adipiscing elit.
  - Morbi non lorem porttitor neque feugiat blandit. Ut vitae ipsum eget quam lacinia accumsan.
  - Etiam sed turpis ac ipsum condimentum fringilla. Maecenas magna.
  - Proin dapibus sapien vel ante. Aliquam erat volutpat. Pellentesque sagittis ligula eget metus.
  - Vestibulum commodo. Ut rhoncus gravida arcu.
  -->

<!-- Generator: Adobe Illustrator 26.0.1, SVG Export Plug-In . SVG Version: 6.00 Build 0)  -->
<svg version="1.1" id="Layer_1" xmlns="http://www.w3.org/2000/svg" xmlns:xlink="http://www.w3.org/1999/xlink" x="0px" y="0px"
	 viewBox="0 0 402 170" style="enable-background:new 0 0 402 170;" xml:space="preserve">
<style type="text/css">
	.st0{fill:#0BB6D9;stroke:#0BB6D9;stroke-width:0.2784;stroke-miterlimit:10;}
	.st1{fill:#081C2D;}
</style>
<g>
	<g>
		<path class="st0" d="M201.42,144.18v23.67h-3.06v-23.67H201.42z"/>
		<path class="st0" d="M211.26,146.78h-7.2v-2.6h17.53v2.6h-7.24v21.07h-3.09V146.78z"/>
		<path class="st0" d="M230.93,164.63c1.18,0.73,2.91,1.34,4.73,1.34c2.7,0,4.28-1.43,4.28-3.49c0-1.91-1.09-3-3.85-4.07
			c-3.34-1.18-5.4-2.91-5.4-5.79c0-3.19,2.64-5.55,6.61-5.55c2.09,0,3.61,0.48,4.52,1l-0.73,2.15c-0.67-0.36-2.03-0.97-3.88-0.97
			c-2.79,0-3.85,1.67-3.85,3.06c0,1.91,1.24,2.85,4.07,3.94c3.46,1.33,5.22,3,5.22,6.01c0,3.16-2.34,5.89-7.16,5.89
			c-1.97,0-4.13-0.58-5.22-1.3L230.93,164.63z"/>
		<path class="st0" d="M263.73,157.41c0,7.04-4.28,10.77-9.5,10.77c-5.4,0-9.19-4.19-9.19-10.38c0-6.49,4.04-10.74,9.5-10.74
			C260.12,147.07,263.73,151.35,263.73,157.41z M247.86,157.75c0,4.37,2.37,8.28,6.52,8.28c4.19,0,6.55-3.85,6.55-8.5
			c0-4.07-2.12-8.31-6.52-8.31C250.05,149.22,247.86,153.26,247.86,157.75z"/>
		<path class="st0" d="M267.16,147.4h2.64v18.23h8.74v2.21h-11.38V147.4z"/>
		<path class="st0" d="M283.03,147.4v12.1c0,4.58,2.03,6.52,4.76,6.52c3.03,0,4.98-2,4.98-6.52v-12.1h2.67v11.92
			c0,6.28-3.31,8.86-7.74,8.86c-4.19,0-7.34-2.4-7.34-8.74V147.4H283.03z"/>
		<path class="st0" d="M303.9,149.65h-6.22v-2.24h15.14v2.24h-6.25v18.2h-2.67V149.65z"/>
		<path class="st0" d="M317.74,147.4v20.45h-2.64V147.4H317.74z"/>
		<path class="st0" d="M339.82,157.41c0,7.04-4.28,10.77-9.5,10.77c-5.4,0-9.19-4.19-9.19-10.38c0-6.49,4.04-10.74,9.5-10.74
			C336.21,147.07,339.82,151.35,339.82,157.41z M323.96,157.75c0,4.37,2.37,8.28,6.52,8.28c4.19,0,6.55-3.85,6.55-8.5
			c0-4.07-2.12-8.31-6.52-8.31C326.14,149.22,323.96,153.26,323.96,157.75z"/>
		<path class="st0" d="M343.25,167.85V147.4h2.88l6.55,10.35c1.52,2.4,2.7,4.55,3.67,6.64l0.06-0.03c-0.24-2.73-0.3-5.22-0.3-8.4
			v-8.56h2.49v20.45h-2.67l-6.49-10.38c-1.43-2.28-2.79-4.61-3.82-6.83l-0.09,0.03c0.15,2.58,0.21,5.04,0.21,8.43v8.74H343.25z"/>
		<path class="st0" d="M362.85,164.63c1.18,0.73,2.91,1.34,4.73,1.34c2.7,0,4.28-1.43,4.28-3.49c0-1.91-1.09-3-3.85-4.07
			c-3.34-1.18-5.4-2.91-5.4-5.79c0-3.19,2.64-5.55,6.61-5.55c2.09,0,3.61,0.48,4.52,1l-0.73,2.15c-0.67-0.36-2.03-0.97-3.88-0.97
			c-2.79,0-3.85,1.67-3.85,3.06c0,1.91,1.24,2.85,4.07,3.94c3.46,1.33,5.22,3,5.22,6.01c0,3.16-2.34,5.89-7.16,5.89
			c-1.97,0-4.13-0.58-5.22-1.3L362.85,164.63z"/>
	</g>
</g>
<g>
	<path class="st1" d="M136.58,125.77h-23.36L68.97,27.72L43.84,83.3H64.1c7.27,0,13.87,4.27,16.86,10.9l4.65,10.34H34.28
		l-9.56,21.24H1.36L57.29,1.88h23.36L136.58,125.77z"/>
	<path class="st1" d="M289.06,37.28c4.19-1.77,8.94-2.65,14.25-2.65v21.24c-7.08,0-13.1,2.48-18.05,7.43
		c-4.95,5.19-7.43,11.21-7.43,18.05v32.28c0,6.71-5.44,12.15-12.15,12.15h-9.09V37.1h21.24V44
		C281.12,41.29,284.87,39.05,289.06,37.28z"/>
	<path class="st1" d="M239.06,63.3c-2.24-5.66-5.37-10.62-9.38-14.87c-4.01-4.25-8.76-7.58-14.25-10
		c-5.49-2.42-11.48-3.63-17.97-3.63c-5.78,0-10.91,0.88-15.4,2.65c-4.49,1.77-8.44,4.01-11.86,6.73V37.1h-21.24v130.3h9.09
		c6.71,0,12.15-5.44,12.15-12.15V81.52c0-7.08,2.48-13.1,7.43-18.05c4.96-4.96,10.98-7.43,18.05-7.43c6.84,0,12.86,2.48,18.05,7.43
		c4.95,4.96,7.43,10.97,7.43,18.05c0,6.96-2.48,12.92-7.43,17.88c-2.48,2.48-5.25,4.34-8.32,5.57c-3.07,1.24-6.32,1.86-9.73,1.86
		c-1.09,0-2.14-0.06-3.16-0.18c-2.15-0.25-4.17,1.03-4.98,3.03l-6.25,15.54c4.77,1.89,10.15,2.85,16.15,2.85
		c6.49,0,12.48-1.21,17.97-3.63c5.49-2.42,10.24-5.75,14.25-10c4.01-4.25,7.14-9.2,9.38-14.87c2.24-5.66,3.36-11.68,3.36-18.05
		C242.42,75.04,241.3,68.96,239.06,63.3z"/>
	<path class="st1" d="M354.64,34.8c6.49,0,12.57,1.21,18.23,3.63c5.66,2.42,10.62,5.75,14.87,10c4.25,4.25,7.58,9.2,10,14.87
		c2.42,5.66,3.63,11.74,3.63,18.23c0,6.37-1.21,12.39-3.63,18.05c-2.42,5.66-5.75,10.62-10,14.87c-4.25,4.25-9.2,7.58-14.87,10
		c-5.66,2.42-11.74,3.63-18.23,3.63c-6.49,0-12.57-1.21-18.23-3.63c-5.66-2.42-10.62-5.75-14.87-10c-4.25-4.25-7.58-9.2-10-14.87
		c-2.42-5.66-3.63-11.68-3.63-18.05c0-6.49,1.21-12.57,3.63-18.23c2.42-5.66,5.75-10.62,10-14.87c4.25-4.25,9.2-7.58,14.87-10
		C342.07,36.01,348.15,34.8,354.64,34.8z M354.64,56.04c-7.08,0-13.1,2.48-18.05,7.43c-4.95,4.96-7.43,10.97-7.43,18.05
		c0,6.96,2.48,12.92,7.43,17.88c2.36,2.48,5.1,4.34,8.23,5.57c3.13,1.24,6.4,1.86,9.82,1.86c3.42,0,6.67-0.62,9.74-1.86
		c3.07-1.24,5.84-3.1,8.32-5.57c4.95-4.96,7.43-10.91,7.43-17.88c0-7.08-2.48-13.1-7.43-18.05
		C367.5,58.52,361.48,56.04,354.64,56.04z"/>
</g>
</svg>
