<!--
  - Copyright (c) 2022. Lorem ipsum dolor sit amet, consectetur adipiscing elit.
  - Morbi non lorem porttitor neque feugiat blandit. Ut vitae ipsum eget quam lacinia accumsan.
  - Etiam sed turpis ac ipsum condimentum fringilla. Maecenas magna.
  - Proin dapibus sapien vel ante. Aliquam erat volutpat. Pellentesque sagittis ligula eget metus.
  - Vestibulum commodo. Ut rhoncus gravida arcu.
  -->

<svg id="Layer_1" data-name="Layer 1" xmlns="http://www.w3.org/2000/svg" viewBox="0 0 595.28 67.91"><defs><style>.cls-1{fill:#00b7db;}.cls-2{fill:#001a2f;}.cls-3{fill:none;stroke:#00b7db;stroke-miterlimit:10;stroke-width:0.75px;}.cls-4{fill:#0b3150;}</style></defs><rect class="cls-1" y="26.78" width="7.09" height="20.66"/><path class="cls-2" d="M44.92,14.17h1l3.49,8.14H48.12l-.82-2H43.43l-.81,2H41.33Zm2,5.16L45.38,15.6h0l-1.54,3.73Z"/><path class="cls-2" d="M50,16.86h1v.78h0a2,2,0,0,1,.82-.68,2.56,2.56,0,0,1,1.07-.24,3,3,0,0,1,1.15.22,2.58,2.58,0,0,1,.87.61,2.83,2.83,0,0,1,.56.91,3.29,3.29,0,0,1,0,2.26,2.73,2.73,0,0,1-.56.91,2.55,2.55,0,0,1-.87.6,2.81,2.81,0,0,1-1.15.22,2.46,2.46,0,0,1-1.1-.25,1.87,1.87,0,0,1-.79-.67h0v4H50Zm2.83.83a2,2,0,0,0-.75.14,1.76,1.76,0,0,0-.56.39,1.66,1.66,0,0,0-.36.6,2.39,2.39,0,0,0-.13.77,2.33,2.33,0,0,0,.13.76,1.51,1.51,0,0,0,.36.6,1.61,1.61,0,0,0,.56.39,1.79,1.79,0,0,0,.75.14,1.86,1.86,0,0,0,.75-.14,1.6,1.6,0,0,0,.91-1,2.09,2.09,0,0,0,.13-.76,2.15,2.15,0,0,0-.13-.77,1.79,1.79,0,0,0-.35-.6,1.76,1.76,0,0,0-.56-.39,2,2,0,0,0-.75-.14"/><path class="cls-2" d="M56.77,16.86h1v.84h0a1.38,1.38,0,0,1,.28-.4,1.57,1.57,0,0,1,.38-.3,2.46,2.46,0,0,1,.47-.2,1.81,1.81,0,0,1,.51-.08,1.7,1.7,0,0,1,.46.07l-.05,1.12a2.27,2.27,0,0,0-.25-.06l-.26,0a1.54,1.54,0,0,0-1.16.42,1.89,1.89,0,0,0-.4,1.33v2.73h-1Z"/><path class="cls-2" d="M60.32,19.59a2.8,2.8,0,0,1,.22-1.12,3,3,0,0,1,.62-.91,2.9,2.9,0,0,1,.92-.61,2.87,2.87,0,0,1,1.14-.23,2.94,2.94,0,0,1,1.14.23,3,3,0,0,1,.92.61,3,3,0,0,1,.61.91,2.8,2.8,0,0,1,.22,1.12,2.84,2.84,0,0,1-.83,2,3.21,3.21,0,0,1-.92.61,2.93,2.93,0,0,1-1.14.22,2.86,2.86,0,0,1-1.14-.22,3.08,3.08,0,0,1-.92-.61,2.88,2.88,0,0,1-.62-.91,2.83,2.83,0,0,1-.22-1.12m1.1,0a2.09,2.09,0,0,0,.13.76,1.58,1.58,0,0,0,.36.6,1.76,1.76,0,0,0,.56.39A1.86,1.86,0,0,0,64.53,21a1.7,1.7,0,0,0,.35-.6,2.09,2.09,0,0,0,.13-.76,2.15,2.15,0,0,0-.13-.77,1.65,1.65,0,0,0-.35-.59,1.68,1.68,0,0,0-.57-.4,2.05,2.05,0,0,0-1.49,0,1.63,1.63,0,0,0-.56.4,1.54,1.54,0,0,0-.36.59,2.15,2.15,0,0,0-.13.77"/><rect class="cls-2" x="70.42" y="14.17" width="1.1" height="8.14"/><polygon class="cls-2" points="75.08 15.21 72.46 15.21 72.46 14.17 78.81 14.17 78.81 15.21 76.19 15.21 76.19 22.31 75.08 22.31 75.08 15.21"/><path class="cls-2" d="M83,20.61a1.81,1.81,0,0,0,.77.66,2.31,2.31,0,0,0,1,.21,1.85,1.85,0,0,0,.56-.08,1.59,1.59,0,0,0,.52-.26,1.45,1.45,0,0,0,.39-.43,1.09,1.09,0,0,0,.15-.58.87.87,0,0,0-.3-.72,2.5,2.5,0,0,0-.74-.41c-.3-.12-.62-.22-1-.33a3.8,3.8,0,0,1-1-.43,2.13,2.13,0,0,1-1-2,2.21,2.21,0,0,1,.16-.76,2,2,0,0,1,.49-.73,2.62,2.62,0,0,1,.85-.56A3.19,3.19,0,0,1,85.05,14a4.5,4.5,0,0,1,1.28.19,2.2,2.2,0,0,1,1.07.74l-.9.82a1.47,1.47,0,0,0-.58-.52,1.89,1.89,0,0,0-.87-.19,2.09,2.09,0,0,0-.76.12,1.33,1.33,0,0,0-.49.31,1.14,1.14,0,0,0-.26.41,1.21,1.21,0,0,0-.07.4,1,1,0,0,0,.3.79,2.1,2.1,0,0,0,.74.45,7.73,7.73,0,0,0,1,.31,3.79,3.79,0,0,1,1,.39,2.23,2.23,0,0,1,.74.66,2,2,0,0,1,.3,1.16,2.42,2.42,0,0,1-.22,1.06,2.27,2.27,0,0,1-.61.79,2.67,2.67,0,0,1-.89.5,3.68,3.68,0,0,1-1.11.17,3.9,3.9,0,0,1-1.48-.28,2.39,2.39,0,0,1-1.12-.85Z"/><path class="cls-2" d="M88.36,19.59a2.8,2.8,0,0,1,.22-1.12,3,3,0,0,1,.61-.91,3,3,0,0,1,.92-.61,2.94,2.94,0,0,1,1.14-.23,2.87,2.87,0,0,1,1.14.23,2.9,2.9,0,0,1,.92.61,3,3,0,0,1,.62.91,2.8,2.8,0,0,1,.22,1.12,2.83,2.83,0,0,1-.22,1.12,2.88,2.88,0,0,1-.62.91,3.08,3.08,0,0,1-.92.61,2.86,2.86,0,0,1-1.14.22,2.93,2.93,0,0,1-1.14-.22,3.21,3.21,0,0,1-.92-.61,2.84,2.84,0,0,1-.83-2m1.1,0a2.09,2.09,0,0,0,.13.76,1.7,1.7,0,0,0,.35.6,1.8,1.8,0,0,0,.57.39,2.05,2.05,0,0,0,1.49,0,1.76,1.76,0,0,0,.56-.39,1.58,1.58,0,0,0,.36-.6,2.09,2.09,0,0,0,.13-.76,2.15,2.15,0,0,0-.13-.77,1.54,1.54,0,0,0-.36-.59,1.63,1.63,0,0,0-.56-.4,2.05,2.05,0,0,0-1.49,0,1.68,1.68,0,0,0-.57.4,1.65,1.65,0,0,0-.35.59,2.15,2.15,0,0,0-.13.77"/><rect class="cls-2" x="95.3" y="13.62" width="1.04" height="8.69"/><path class="cls-2" d="M102.58,22.31h-1v-.84h0a1.5,1.5,0,0,1-.68.71,2.23,2.23,0,0,1-1.11.27,2.37,2.37,0,0,1-.76-.12,1.67,1.67,0,0,1-.63-.37,1.89,1.89,0,0,1-.43-.65,2.47,2.47,0,0,1-.16-.94V16.86h1v3.22a1.81,1.81,0,0,0,.1.65,1.27,1.27,0,0,0,.27.44,1.1,1.1,0,0,0,.4.24,1.49,1.49,0,0,0,.47.07,1.72,1.72,0,0,0,.6-.1,1.29,1.29,0,0,0,.48-.33,1.57,1.57,0,0,0,.32-.57,2.47,2.47,0,0,0,.12-.81V16.86h1Z"/><path class="cls-2" d="M106.84,17.76h-1.49v2.47c0,.16,0,.31,0,.46a1.3,1.3,0,0,0,.09.4.63.63,0,0,0,.23.28.71.71,0,0,0,.45.12,2.45,2.45,0,0,0,.38,0,.92.92,0,0,0,.36-.13v.95a1.37,1.37,0,0,1-.48.14,2.93,2.93,0,0,1-.45,0,2,2,0,0,1-.93-.17,1.07,1.07,0,0,1-.48-.43,1.28,1.28,0,0,1-.18-.59q0-.33,0-.66V17.76h-1.2v-.9h1.2V15.33h1v1.53h1.49Z"/><path class="cls-2" d="M107.78,14.91a.75.75,0,0,1,.76-.76.71.71,0,0,1,.53.22.74.74,0,0,1,0,1.07.72.72,0,0,1-.53.23.74.74,0,0,1-.54-.23.73.73,0,0,1-.22-.53m.24,1.95h1v5.45h-1Z"/><path class="cls-2" d="M110.21,19.59a2.8,2.8,0,0,1,.22-1.12,3,3,0,0,1,.61-.91A3,3,0,0,1,112,17a2.94,2.94,0,0,1,1.14-.23,2.87,2.87,0,0,1,1.14.23,2.9,2.9,0,0,1,.92.61,3,3,0,0,1,.62.91,2.8,2.8,0,0,1,.22,1.12,2.83,2.83,0,0,1-.22,1.12,2.88,2.88,0,0,1-.62.91,3.08,3.08,0,0,1-.92.61,2.86,2.86,0,0,1-1.14.22,2.93,2.93,0,0,1-1.14-.22,3.21,3.21,0,0,1-.92-.61,2.84,2.84,0,0,1-.83-2m1.1,0a2.09,2.09,0,0,0,.13.76,1.7,1.7,0,0,0,.35.6,1.8,1.8,0,0,0,.57.39,2.05,2.05,0,0,0,1.49,0,1.76,1.76,0,0,0,.56-.39,1.58,1.58,0,0,0,.36-.6,2.09,2.09,0,0,0,.13-.76,2.15,2.15,0,0,0-.13-.77,1.54,1.54,0,0,0-.36-.59,1.63,1.63,0,0,0-.56-.4,2.05,2.05,0,0,0-1.49,0,1.68,1.68,0,0,0-.57.4,1.65,1.65,0,0,0-.35.59,2.15,2.15,0,0,0-.13.77"/><path class="cls-2" d="M117.07,16.86h1v.84h0a1.5,1.5,0,0,1,.68-.71,2.23,2.23,0,0,1,1.11-.27,2.46,2.46,0,0,1,.76.12,1.69,1.69,0,0,1,.63.38,1.8,1.8,0,0,1,.43.65,2.38,2.38,0,0,1,.16.93v3.51h-1V19.09a1.8,1.8,0,0,0-.11-.65,1.22,1.22,0,0,0-.27-.43,1,1,0,0,0-.4-.25,1.84,1.84,0,0,0-.47-.07,1.63,1.63,0,0,0-.59.1,1.25,1.25,0,0,0-.49.33,1.57,1.57,0,0,0-.32.57,2.5,2.5,0,0,0-.11.82v2.8h-1Z"/><path class="cls-2" d="M126.13,18.23a1.71,1.71,0,0,0-.45-.39,1.34,1.34,0,0,0-.66-.15,1.29,1.29,0,0,0-.64.15.51.51,0,0,0-.27.46.53.53,0,0,0,.15.39,1.31,1.31,0,0,0,.37.24,2.06,2.06,0,0,0,.46.14l.41.08a5.79,5.79,0,0,1,.63.19,1.9,1.9,0,0,1,.5.3,1.49,1.49,0,0,1,.34.45,1.57,1.57,0,0,1,.12.65,1.48,1.48,0,0,1-.2.78,1.73,1.73,0,0,1-.5.54,2.14,2.14,0,0,1-.71.3,3.63,3.63,0,0,1-.8.09,3.12,3.12,0,0,1-1.19-.21,2.1,2.1,0,0,1-.92-.76l.79-.64a2.76,2.76,0,0,0,.56.45,1.41,1.41,0,0,0,.76.19,1.87,1.87,0,0,0,.4,0,1,1,0,0,0,.35-.12.67.67,0,0,0,.25-.22.48.48,0,0,0,.1-.31.51.51,0,0,0-.14-.37,1.09,1.09,0,0,0-.35-.24,2.59,2.59,0,0,0-.42-.14l-.4-.08-.63-.19a2,2,0,0,1-.53-.27,1.43,1.43,0,0,1-.37-.44,1.62,1.62,0,0,1,0-1.4,1.67,1.67,0,0,1,.47-.52,2.16,2.16,0,0,1,.67-.31,2.78,2.78,0,0,1,.75-.11,2.71,2.71,0,0,1,1.06.21,1.7,1.7,0,0,1,.81.69Z"/><path class="cls-2" d="M131.34,14.17h2.87a3.32,3.32,0,0,1,1.28.21,2.21,2.21,0,0,1,.8.54,1.87,1.87,0,0,1,.41.74,2.81,2.81,0,0,1,.12.79,2.86,2.86,0,0,1-.12.79,1.83,1.83,0,0,1-.41.73,2.09,2.09,0,0,1-.8.54,3.13,3.13,0,0,1-1.28.22h-1.76v3.58h-1.11Zm1.11,3.59h1.44a4.48,4.48,0,0,0,.64-.05,2,2,0,0,0,.57-.19,1.07,1.07,0,0,0,.39-.4,1.33,1.33,0,0,0,.15-.67,1.3,1.3,0,0,0-.15-.67,1,1,0,0,0-.39-.4,1.74,1.74,0,0,0-.57-.19,4.48,4.48,0,0,0-.64,0h-1.44Z"/><polygon class="cls-2" points="137.01 16.86 138.21 16.86 139.84 21.04 141.4 16.86 142.51 16.86 140.37 22.31 139.23 22.31 137.01 16.86"/><path class="cls-2" d="M146.11,17.76h-1.49v2.47c0,.16,0,.31,0,.46a1.06,1.06,0,0,0,.08.4.63.63,0,0,0,.23.28.76.76,0,0,0,.46.12,2.73,2.73,0,0,0,.38,0,.87.87,0,0,0,.35-.13v.95a1.37,1.37,0,0,1-.48.14,2.93,2.93,0,0,1-.45,0,2,2,0,0,1-.93-.17,1.19,1.19,0,0,1-.48-.43,1.41,1.41,0,0,1-.18-.59q0-.33,0-.66V17.76h-1.2v-.9h1.2V15.33h1v1.53h1.49Z"/><path class="cls-2" d="M148,22.38a.75.75,0,0,1-.76-.76.71.71,0,0,1,.22-.53.74.74,0,0,1,.54-.23.79.79,0,0,1,.76.76.74.74,0,0,1-.23.54.71.71,0,0,1-.53.22"/><polygon class="cls-2" points="153.41 14.17 154.51 14.17 154.51 21.28 158.25 21.28 158.25 22.31 153.41 22.31 153.41 14.17"/><path class="cls-2" d="M161.81,17.76h-1.49v2.47c0,.16,0,.31,0,.46a1.3,1.3,0,0,0,.09.4.63.63,0,0,0,.23.28.71.71,0,0,0,.45.12,2.45,2.45,0,0,0,.38,0,.92.92,0,0,0,.36-.13v.95a1.37,1.37,0,0,1-.48.14,2.93,2.93,0,0,1-.45,0,2,2,0,0,1-.93-.17,1.07,1.07,0,0,1-.48-.43,1.28,1.28,0,0,1-.18-.59q0-.33,0-.66V17.76h-1.2v-.9h1.2V15.33h1v1.53h1.49Z"/><path class="cls-2" d="M168.37,22.31h-1v-.78h0a2,2,0,0,1-.82.68,2.56,2.56,0,0,1-1.07.24,2.81,2.81,0,0,1-1.15-.22,2.45,2.45,0,0,1-.87-.61,2.73,2.73,0,0,1-.56-.91,3.14,3.14,0,0,1-.2-1.12,3.25,3.25,0,0,1,.2-1.14,2.68,2.68,0,0,1,.56-.9,2.58,2.58,0,0,1,.87-.61,3,3,0,0,1,1.15-.22,2.46,2.46,0,0,1,1.1.25,1.87,1.87,0,0,1,.79.67h0v-4h1Zm-2.83-.83a1.79,1.79,0,0,0,.75-.14,1.61,1.61,0,0,0,.56-.39,1.51,1.51,0,0,0,.36-.6,2.33,2.33,0,0,0,.13-.76,2.39,2.39,0,0,0-.13-.77,1.66,1.66,0,0,0-.36-.6,1.76,1.76,0,0,0-.56-.39,2,2,0,0,0-.75-.14,2,2,0,0,0-.75.14,1.76,1.76,0,0,0-.56.39,1.79,1.79,0,0,0-.35.6,2.15,2.15,0,0,0-.13.77,2.09,2.09,0,0,0,.13.76,1.6,1.6,0,0,0,.91,1,1.86,1.86,0,0,0,.75.14"/><path class="cls-2" d="M170.52,22.38a.73.73,0,0,1-.53-.22.74.74,0,0,1-.23-.54.72.72,0,0,1,.23-.53.74.74,0,0,1,1.07,0,.71.71,0,0,1,.22.53.75.75,0,0,1-.76.76"/><path class="cls-2" d="M41.69,34.68l2.39-2.53c.11-.1.22-.22.33-.34a2.82,2.82,0,0,0,.29-.39,1.72,1.72,0,0,0,.21-.43,1.27,1.27,0,0,0,.08-.48,1.1,1.1,0,0,0-.36-.88,1.32,1.32,0,0,0-.91-.31,1.19,1.19,0,0,0-.83.29,1.25,1.25,0,0,0-.44.75l-.63-.06a1.67,1.67,0,0,1,.67-1.1,2.11,2.11,0,0,1,1.26-.37,2,2,0,0,1,.7.12,1.77,1.77,0,0,1,.59.32,1.41,1.41,0,0,1,.4.5,1.52,1.52,0,0,1,.15.69,1.92,1.92,0,0,1-.12.69,2.77,2.77,0,0,1-.29.6,5.25,5.25,0,0,1-.43.53l-.48.5-2,2h3.35v.48H41.69Z"/><path class="cls-2" d="M46.38,30.57s0-.1,0-.16,0-.13,0-.2a1,1,0,0,0,0-.18v-.14h.31a2.35,2.35,0,0,1,0,.26.54.54,0,0,0,0,.17h0A.82.82,0,0,1,47,30a.93.93,0,0,1,.51-.14,1,1,0,0,1,.46.09.71.71,0,0,1,.28.23.81.81,0,0,1,.14.33,1.72,1.72,0,0,1,0,.39v1.44h-.31V30.89a1.43,1.43,0,0,0,0-.29,1.06,1.06,0,0,0-.09-.25.42.42,0,0,0-.18-.17.57.57,0,0,0-.31-.07.88.88,0,0,0-.33.06.8.8,0,0,0-.27.18,1,1,0,0,0-.17.32,1.11,1.11,0,0,0-.07.43v1.21h-.31Z"/><path class="cls-2" d="M51.39,31.89h0a.79.79,0,0,1-.19.22,1,1,0,0,1-.24.15,1.07,1.07,0,0,1-.27.09l-.27,0a1.27,1.27,0,0,1-.52-.1,1.11,1.11,0,0,1-.4-.26,1.41,1.41,0,0,1-.27-.4,1.46,1.46,0,0,1-.09-.52,1.44,1.44,0,0,1,.09-.51,1.41,1.41,0,0,1,.27-.4,1.13,1.13,0,0,1,.4-.27,1.46,1.46,0,0,1,.52-.09,1.24,1.24,0,0,1,.27,0A1.07,1.07,0,0,1,51,30a1,1,0,0,1,.24.15.67.67,0,0,1,.19.22h0v-2h.31v4h-.31Zm0-.79a1,1,0,0,0-.08-.38,1,1,0,0,0-.22-.32.89.89,0,0,0-.32-.21,1,1,0,0,0-.39-.08,1,1,0,0,0-.4.08.86.86,0,0,0-.5.53,1.09,1.09,0,0,0,0,.77.89.89,0,0,0,.19.31A1.16,1.16,0,0,0,50,32a1,1,0,0,0,.4.07A1,1,0,0,0,50.8,32a1.07,1.07,0,0,0,.32-.22,1,1,0,0,0,.22-.31,1,1,0,0,0,.08-.39"/><polygon class="cls-2" points="55.19 28.94 59.01 28.94 59.01 29.48 55.79 29.48 55.79 31.75 58.78 31.75 58.78 32.29 55.79 32.29 55.79 35.31 55.19 35.31 55.19 28.94"/><rect class="cls-2" x="60.09" y="28.51" width="0.54" height="6.81"/><path class="cls-2" d="M61.88,33.23a2.45,2.45,0,0,1,.16-.87,2,2,0,0,1,1.15-1.15,2.28,2.28,0,0,1,2.45.45,2.05,2.05,0,0,1,.45.7,2.25,2.25,0,0,1,.17.87,2.3,2.3,0,0,1-.17.88,1.92,1.92,0,0,1-.45.69,2.14,2.14,0,0,1-.69.46,2.5,2.5,0,0,1-1.76,0A2,2,0,0,1,62,34.11a2.5,2.5,0,0,1-.16-.88m.54,0a2,2,0,0,0,.11.66,1.63,1.63,0,0,0,.33.54,1.59,1.59,0,0,0,.52.37,1.73,1.73,0,0,0,.69.13,1.65,1.65,0,0,0,.68-.13,1.41,1.41,0,0,0,.52-.37,1.36,1.36,0,0,0,.33-.54,1.76,1.76,0,0,0,.12-.66,1.84,1.84,0,0,0-.12-.66,1.43,1.43,0,0,0-.33-.54,1.51,1.51,0,0,0-.52-.36,1.65,1.65,0,0,0-.68-.14,1.58,1.58,0,0,0-1.54,1,2.08,2.08,0,0,0-.11.66"/><path class="cls-2" d="M67.18,33.23a2.45,2.45,0,0,1,.16-.87,2,2,0,0,1,1.15-1.15,2.28,2.28,0,0,1,2.45.45,1.92,1.92,0,0,1,.45.7,2.25,2.25,0,0,1,.17.87,2.3,2.3,0,0,1-.17.88,1.8,1.8,0,0,1-.45.69,2.14,2.14,0,0,1-.69.46,2.5,2.5,0,0,1-1.76,0,2,2,0,0,1-1.15-1.15,2.5,2.5,0,0,1-.16-.88m.54,0a1.76,1.76,0,0,0,.12.66,1.46,1.46,0,0,0,.32.54,1.54,1.54,0,0,0,.53.37,1.84,1.84,0,0,0,1.36,0,1.54,1.54,0,0,0,.53-.37,1.46,1.46,0,0,0,.32-.54,1.76,1.76,0,0,0,.12-.66,1.84,1.84,0,0,0-.12-.66,1.55,1.55,0,0,0-.32-.54,1.71,1.71,0,0,0-2.42,0,1.55,1.55,0,0,0-.32.54,1.84,1.84,0,0,0-.12.66"/><path class="cls-2" d="M72.72,32.32c0-.07,0-.17,0-.28s0-.22,0-.34,0-.22,0-.32,0-.17,0-.23h.54c0,.16,0,.31,0,.45a1.35,1.35,0,0,0,0,.28,1.91,1.91,0,0,1,.53-.6,1.36,1.36,0,0,1,.79-.23h.16l.16,0-.07.53-.2,0a1.42,1.42,0,0,0-.61.11,1.1,1.1,0,0,0-.42.31,1.15,1.15,0,0,0-.25.46,1.81,1.81,0,0,0-.08.58v2.26h-.54Z"/><polygon class="cls-2" points="75.17 34.5 75.8 34.5 75.1 36.55 74.57 36.55 75.17 34.5"/><path class="cls-2" d="M79.75,34.13a1.49,1.49,0,0,0,.61.61,1.81,1.81,0,0,0,.85.2,1.69,1.69,0,0,0,.56-.09,1.72,1.72,0,0,0,.46-.26,1.16,1.16,0,0,0,.3-.39,1.08,1.08,0,0,0,.11-.52.91.91,0,0,0-.14-.54,1,1,0,0,0-.37-.36,3.25,3.25,0,0,0-.53-.24l-.6-.2a5.31,5.31,0,0,1-.6-.22,2.37,2.37,0,0,1-.53-.33,1.4,1.4,0,0,1-.37-.51,1.7,1.7,0,0,1-.14-.75,1.55,1.55,0,0,1,.17-.76,1.6,1.6,0,0,1,.45-.55,2.09,2.09,0,0,1,.65-.33,2.76,2.76,0,0,1,.77-.11,2.58,2.58,0,0,1,1,.18,1.89,1.89,0,0,1,.77.62l-.51.37a1.44,1.44,0,0,0-1.25-.63,1.7,1.7,0,0,0-.55.08,1.35,1.35,0,0,0-.45.22,1.12,1.12,0,0,0-.31.37,1.13,1.13,0,0,0-.12.54,1,1,0,0,0,.25.73,1.58,1.58,0,0,0,.6.4,6.09,6.09,0,0,0,.79.26,4,4,0,0,1,.8.31,1.67,1.67,0,0,1,.6.52,1.53,1.53,0,0,1,.25.93,1.86,1.86,0,0,1-.16.77,1.74,1.74,0,0,1-.44.56,2,2,0,0,1-.64.35,2.3,2.3,0,0,1-.74.12,2.93,2.93,0,0,1-1.16-.23,2,2,0,0,1-.91-.74Z"/><path class="cls-2" d="M87.91,34.14c0,.08,0,.18,0,.28s0,.23,0,.34,0,.22,0,.32a2.2,2.2,0,0,1,0,.23h-.54c0-.15,0-.3,0-.45a1.43,1.43,0,0,0,0-.28h0a1.44,1.44,0,0,1-.54.59,1.54,1.54,0,0,1-.88.25,1.84,1.84,0,0,1-.8-.15,1.37,1.37,0,0,1-.48-.4,1.43,1.43,0,0,1-.24-.58,3.51,3.51,0,0,1-.07-.66V31.15h.54V33.6a2.63,2.63,0,0,0,.05.49,1.23,1.23,0,0,0,.16.43.75.75,0,0,0,.31.3,1,1,0,0,0,.53.11,1.5,1.5,0,0,0,.56-.1,1.21,1.21,0,0,0,.46-.31,1.72,1.72,0,0,0,.31-.53,2.49,2.49,0,0,0,.11-.76V31.15h.54Z"/><path class="cls-2" d="M89.23,31.15h.54v.73h0a1.56,1.56,0,0,1,.31-.37,2.57,2.57,0,0,1,.41-.26,2.6,2.6,0,0,1,.47-.16,2.56,2.56,0,0,1,.47,0,2.26,2.26,0,0,1,.88.16,2,2,0,0,1,1.15,1.15,2.25,2.25,0,0,1,.16.87,2.3,2.3,0,0,1-.16.88,2,2,0,0,1-1.15,1.15,2.26,2.26,0,0,1-.88.16,2.59,2.59,0,0,1-.47-.05,2,2,0,0,1-.47-.15A2.57,2.57,0,0,1,90.1,35a1.43,1.43,0,0,1-.31-.38h0v2.78h-.54Zm.49,2.08a1.59,1.59,0,0,0,.13.66,1.71,1.71,0,0,0,1.6,1,1.7,1.7,0,0,0,.69-.13,1.5,1.5,0,0,0,.52-.37,1.63,1.63,0,0,0,.33-.54,2,2,0,0,0,.11-.66,2.08,2.08,0,0,0-.11-.66,1.74,1.74,0,0,0-.33-.54,1.61,1.61,0,0,0-.52-.36,1.7,1.7,0,0,0-.69-.14,1.72,1.72,0,0,0-.68.14,1.87,1.87,0,0,0-.55.36,1.85,1.85,0,0,0-.37.54,1.65,1.65,0,0,0-.13.66"/><path class="cls-2" d="M94.8,32.32c0-.07,0-.17,0-.28s0-.22,0-.34,0-.22,0-.32a2,2,0,0,1,0-.23h.54c0,.16,0,.31,0,.45a1.35,1.35,0,0,0,0,.28,1.94,1.94,0,0,1,.54-.6,1.34,1.34,0,0,1,.79-.23h.15l.16,0-.06.53a.76.76,0,0,0-.21,0,1.4,1.4,0,0,0-.6.11,1.06,1.06,0,0,0-.43.31,1.46,1.46,0,0,0-.25.46,2.14,2.14,0,0,0-.08.58v2.26H94.8Z"/><path class="cls-2" d="M97.71,29.51a.38.38,0,0,1,.12-.29.36.36,0,0,1,.28-.12.41.41,0,0,1,.41.41.4.4,0,0,1-.12.29.42.42,0,0,1-.29.11.39.39,0,0,1-.28-.11.4.4,0,0,1-.12-.29m.14,1.64h.54v4.16h-.54Z"/><path class="cls-2" d="M101,36.6a1.56,1.56,0,0,1-.42.64,1,1,0,0,1-.72.23l-.27,0a2,2,0,0,1-.26-.06l0-.5.24.06a.69.69,0,0,0,.25,0,.43.43,0,0,0,.25-.07.62.62,0,0,0,.2-.16,1.18,1.18,0,0,0,.14-.22c0-.08.07-.16.1-.25l.38-1-1.7-4.17h.61l1.37,3.5,1.35-3.5h.57Z"/><path class="cls-2" d="M107.22,33.57c0,.2,0,.38,0,.55s0,.31,0,.45,0,.26,0,.38,0,.24,0,.36h-.5a3.51,3.51,0,0,1,0-.67h0a1.5,1.5,0,0,1-.58.59,1.79,1.79,0,0,1-.88.19,1.88,1.88,0,0,1-.53-.07,1.33,1.33,0,0,1-.47-.21,1.17,1.17,0,0,1-.34-.39,1.19,1.19,0,0,1-.13-.56,1.09,1.09,0,0,1,.25-.76,1.67,1.67,0,0,1,.59-.42,3.13,3.13,0,0,1,.76-.18c.27,0,.5,0,.71,0h.63v-.25a.85.85,0,0,0-.34-.77,1.38,1.38,0,0,0-.83-.24,1.9,1.9,0,0,0-1.27.47l-.32-.37a1.88,1.88,0,0,1,.74-.43,2.68,2.68,0,0,1,.85-.15,1.86,1.86,0,0,1,1.2.35,1.38,1.38,0,0,1,.45,1.15Zm-1.08-.34a4.78,4.78,0,0,0-.66,0,2.38,2.38,0,0,0-.57.15,1.08,1.08,0,0,0-.41.29.7.7,0,0,0-.07.79.73.73,0,0,0,.22.24,1,1,0,0,0,.3.14,1,1,0,0,0,.34.06,1.8,1.8,0,0,0,.71-.13,1.07,1.07,0,0,0,.44-.33,1.05,1.05,0,0,0,.23-.46,1.81,1.81,0,0,0,.07-.52v-.27Z"/><path class="cls-2" d="M111.07,28.94h1.83a4.59,4.59,0,0,1,.73.06,1.73,1.73,0,0,1,.66.24,1.47,1.47,0,0,1,.48.51,1.82,1.82,0,0,1,.18.87,1.32,1.32,0,0,1-.28.85,1.46,1.46,0,0,1-.86.48h0a1.84,1.84,0,0,1,.58.15,1.45,1.45,0,0,1,.45.33,1.43,1.43,0,0,1,.29.48,1.7,1.7,0,0,1,.1.61,1.65,1.65,0,0,1-.21.89,1.56,1.56,0,0,1-.53.55,2.07,2.07,0,0,1-.69.27,3.53,3.53,0,0,1-.7.07h-2Zm.59,2.75h1.23a2,2,0,0,0,.75-.11,1.23,1.23,0,0,0,.45-.27.89.89,0,0,0,.22-.35,1.4,1.4,0,0,0,0-.34,1.28,1.28,0,0,0-.11-.55,1,1,0,0,0-.3-.35,1.3,1.3,0,0,0-.45-.19,2.89,2.89,0,0,0-.53-.05h-1.31Zm0,3.08H113a2.41,2.41,0,0,0,.84-.12,1.3,1.3,0,0,0,.49-.32,1,1,0,0,0,.23-.4,1.42,1.42,0,0,0,.06-.38,1.21,1.21,0,0,0-.14-.6,1.08,1.08,0,0,0-.35-.41,1.17,1.17,0,0,0-.49-.23,2.09,2.09,0,0,0-.55-.08h-1.45Z"/><path class="cls-2" d="M120.06,34.14c0,.08,0,.18,0,.28s0,.23,0,.34,0,.22,0,.32a2.2,2.2,0,0,1,0,.23h-.54c0-.15,0-.3,0-.45a1.43,1.43,0,0,0,0-.28h0a1.44,1.44,0,0,1-.54.59,1.54,1.54,0,0,1-.88.25,1.84,1.84,0,0,1-.8-.15,1.41,1.41,0,0,1-.49-.4,1.57,1.57,0,0,1-.23-.58,2.84,2.84,0,0,1-.07-.66V31.15H117V33.6a2.63,2.63,0,0,0,0,.49,1.23,1.23,0,0,0,.16.43.75.75,0,0,0,.31.3,1,1,0,0,0,.53.11,1.54,1.54,0,0,0,.56-.1,1.21,1.21,0,0,0,.46-.31,1.53,1.53,0,0,0,.3-.53,2.2,2.2,0,0,0,.12-.76V31.15h.54Z"/><path class="cls-2" d="M121.45,29.51a.41.41,0,0,1,.41-.41.36.36,0,0,1,.28.12.38.38,0,0,1,.12.29.4.4,0,0,1-.12.29.39.39,0,0,1-.28.11.42.42,0,0,1-.29-.11.4.4,0,0,1-.12-.29m.14,1.64h.54v4.16h-.54Z"/><rect class="cls-2" x="123.7" y="28.51" width="0.54" height="6.81"/><path class="cls-2" d="M129.36,34.58h0A1.26,1.26,0,0,1,129,35a2.19,2.19,0,0,1-.41.26,1.9,1.9,0,0,1-.46.15,2.7,2.7,0,0,1-.48.05,2.3,2.3,0,0,1-.88-.16,2,2,0,0,1-1.15-1.15,2.5,2.5,0,0,1-.16-.88,2.45,2.45,0,0,1,.16-.87,2,2,0,0,1,1.15-1.15,2.3,2.3,0,0,1,.88-.16,2.67,2.67,0,0,1,.48,0,2.51,2.51,0,0,1,.46.16,2.19,2.19,0,0,1,.41.26,1.36,1.36,0,0,1,.31.37h0V28.51h.54v6.8h-.54Zm.06-1.35a1.71,1.71,0,0,0-.51-1.2,1.75,1.75,0,0,0-.55-.36,1.69,1.69,0,0,0-.68-.14,1.71,1.71,0,0,0-1.21.5,1.55,1.55,0,0,0-.32.54,1.84,1.84,0,0,0-.12.66,1.76,1.76,0,0,0,.12.66,1.46,1.46,0,0,0,.32.54,1.54,1.54,0,0,0,.53.37,1.65,1.65,0,0,0,.68.13,1.68,1.68,0,0,0,.68-.13,1.62,1.62,0,0,0,.55-.37,1.58,1.58,0,0,0,.37-.54,1.59,1.59,0,0,0,.14-.66"/><path class="cls-2" d="M131.14,29.51a.41.41,0,0,1,.41-.41.4.4,0,0,1,.29.12.42.42,0,0,1,.11.29.38.38,0,0,1-.4.4.42.42,0,0,1-.29-.11.4.4,0,0,1-.12-.29m.14,1.64h.54v4.16h-.54Z"/><path class="cls-2" d="M133.3,32.32V32c0-.11,0-.22,0-.34s0-.22,0-.32a2,2,0,0,1,0-.23h.54c0,.16,0,.31,0,.45a1.12,1.12,0,0,0,0,.28h0a1.58,1.58,0,0,1,.54-.59,1.61,1.61,0,0,1,.88-.24,1.84,1.84,0,0,1,.8.15,1.26,1.26,0,0,1,.48.4,1.53,1.53,0,0,1,.24.57,3,3,0,0,1,.07.67v2.47h-.54V32.86a2.72,2.72,0,0,0-.05-.49,1.4,1.4,0,0,0-.15-.42.87.87,0,0,0-.32-.31,1.13,1.13,0,0,0-.53-.11,1.55,1.55,0,0,0-.56.11,1.21,1.21,0,0,0-.46.31,1.44,1.44,0,0,0-.3.53,2.19,2.19,0,0,0-.12.75v2.08h-.54Z"/><path class="cls-2" d="M142.44,35a2.91,2.91,0,0,1-.23,1.25,1.88,1.88,0,0,1-.56.74,1.86,1.86,0,0,1-.72.35,3.12,3.12,0,0,1-.7.09,3.18,3.18,0,0,1-.62-.06,2.69,2.69,0,0,1-.57-.17,1.93,1.93,0,0,1-.49-.27,2,2,0,0,1-.39-.37l.43-.4a1.74,1.74,0,0,0,.72.6,2.37,2.37,0,0,0,.92.19,2,2,0,0,0,.69-.11,1.43,1.43,0,0,0,.47-.28,1.52,1.52,0,0,0,.29-.39,1.69,1.69,0,0,0,.15-.43,3.1,3.1,0,0,0,.06-.39c0-.13,0-.23,0-.31V34.5h0a1.73,1.73,0,0,1-.63.6,2,2,0,0,1-.94.21,2.28,2.28,0,0,1-.87-.16,2.43,2.43,0,0,1-.7-.46,2.16,2.16,0,0,1-.48-.68,2,2,0,0,1,0-1.66,2,2,0,0,1,.48-.67,2.24,2.24,0,0,1,.7-.46,2.11,2.11,0,0,1,.87-.17,2,2,0,0,1,.94.21,1.73,1.73,0,0,1,.63.6h0v-.7h.54Zm-.52-1.86a1.7,1.7,0,0,0-.13-.64,1.81,1.81,0,0,0-.35-.53,2,2,0,0,0-.53-.35,1.64,1.64,0,0,0-1.28,0,2,2,0,0,0-.53.35,1.81,1.81,0,0,0-.35.53,1.7,1.7,0,0,0-.13.64,1.79,1.79,0,0,0,.13.65,1.9,1.9,0,0,0,.35.52,2,2,0,0,0,.53.35,1.64,1.64,0,0,0,1.28,0,2,2,0,0,0,.53-.35,1.9,1.9,0,0,0,.35-.52,1.79,1.79,0,0,0,.13-.65"/><polygon class="cls-2" points="144.04 34.5 144.67 34.5 143.98 36.55 143.45 36.55 144.04 34.5"/><path class="cls-2" d="M148.63,34.13a1.49,1.49,0,0,0,.61.61,1.81,1.81,0,0,0,.85.2,1.73,1.73,0,0,0,.56-.09,1.66,1.66,0,0,0,.45-.26,1.19,1.19,0,0,0,.31-.39,1.21,1.21,0,0,0,.11-.52,1,1,0,0,0-.14-.54,1.06,1.06,0,0,0-.37-.36,3.69,3.69,0,0,0-.53-.24l-.6-.2a6.32,6.32,0,0,1-.61-.22,2.3,2.3,0,0,1-.52-.33,1.42,1.42,0,0,1-.38-.51,1.86,1.86,0,0,1-.14-.75,1.67,1.67,0,0,1,.17-.76,1.6,1.6,0,0,1,.45-.55,2.34,2.34,0,0,1,.65-.33,2.88,2.88,0,0,1,.78-.11,2.58,2.58,0,0,1,1,.18,1.87,1.87,0,0,1,.76.62l-.51.37a1.44,1.44,0,0,0-.52-.47,1.5,1.5,0,0,0-.72-.16,1.67,1.67,0,0,0-.55.08,1.26,1.26,0,0,0-.45.22A1,1,0,0,0,149,30a1.13,1.13,0,0,0-.12.54,1,1,0,0,0,.24.73,1.62,1.62,0,0,0,.61.4,5.63,5.63,0,0,0,.79.26,3.71,3.71,0,0,1,.79.31,1.46,1.46,0,0,1,.85,1.45,1.67,1.67,0,0,1-.59,1.33,2.09,2.09,0,0,1-.64.35,2.36,2.36,0,0,1-.75.12,3,3,0,0,1-1.16-.23,2.13,2.13,0,0,1-.91-.74Z"/><path class="cls-2" d="M153,33.23a2.45,2.45,0,0,1,.16-.87,2,2,0,0,1,1.15-1.15,2.28,2.28,0,0,1,2.45.45,2.05,2.05,0,0,1,.45.7,2.25,2.25,0,0,1,.17.87,2.3,2.3,0,0,1-.17.88,1.92,1.92,0,0,1-.45.69,2.14,2.14,0,0,1-.69.46,2.5,2.5,0,0,1-1.76,0,2,2,0,0,1-1.15-1.15,2.5,2.5,0,0,1-.16-.88m.54,0a2,2,0,0,0,.11.66,1.63,1.63,0,0,0,.33.54,1.59,1.59,0,0,0,.52.37,1.73,1.73,0,0,0,.69.13,1.65,1.65,0,0,0,.68-.13,1.41,1.41,0,0,0,.52-.37,1.36,1.36,0,0,0,.33-.54,1.76,1.76,0,0,0,.12-.66,1.84,1.84,0,0,0-.12-.66,1.43,1.43,0,0,0-.33-.54,1.51,1.51,0,0,0-.52-.36,1.65,1.65,0,0,0-.68-.14,1.58,1.58,0,0,0-1.54,1,2.08,2.08,0,0,0-.11.66"/><path class="cls-2" d="M162.09,34.14v.28c0,.12,0,.23,0,.34s0,.22,0,.32a2.2,2.2,0,0,1,0,.23h-.54c0-.15,0-.3,0-.45a1.2,1.2,0,0,0,0-.28h0a1.44,1.44,0,0,1-.54.59,1.54,1.54,0,0,1-.88.25,1.84,1.84,0,0,1-.8-.15,1.41,1.41,0,0,1-.49-.4,1.77,1.77,0,0,1-.24-.58,3.52,3.52,0,0,1-.06-.66V31.15h.54V33.6a2.63,2.63,0,0,0,.05.49,1.46,1.46,0,0,0,.15.43.77.77,0,0,0,.32.3,1,1,0,0,0,.53.11,1.54,1.54,0,0,0,.56-.1,1.21,1.21,0,0,0,.46-.31,1.53,1.53,0,0,0,.3-.53,2.2,2.2,0,0,0,.12-.76V31.15h.54Z"/><path class="cls-2" d="M165.56,31.64h-1.19v2.71a.54.54,0,0,0,.16.43.57.57,0,0,0,.42.16,1.18,1.18,0,0,0,.31,0,1.76,1.76,0,0,0,.3-.1l.05.49-.36.1a1.5,1.5,0,0,1-.35,0,1.22,1.22,0,0,1-.49-.09.8.8,0,0,1-.33-.22.88.88,0,0,1-.19-.34,1.42,1.42,0,0,1-.06-.42V31.64h-.9v-.48h.9V30h.54v1.2h1.19Z"/><path class="cls-2" d="M166.49,28.51H167v3.37h0a1.43,1.43,0,0,1,.54-.59,1.59,1.59,0,0,1,.88-.24,1.79,1.79,0,0,1,.79.15,1.35,1.35,0,0,1,.48.4,1.39,1.39,0,0,1,.24.57,3,3,0,0,1,.07.67v2.47h-.54V32.86a2.7,2.7,0,0,0,0-.49,1.41,1.41,0,0,0-.16-.42.77.77,0,0,0-.32-.3,1,1,0,0,0-.52-.12,1.56,1.56,0,0,0-.57.11,1.07,1.07,0,0,0-.45.31,1.46,1.46,0,0,0-.31.53,2.19,2.19,0,0,0-.11.75v2.08h-.54Z"/><path class="cls-2" d="M176.49,33.44a5.27,5.27,0,0,1-.05.64,1.6,1.6,0,0,1-.21.66,1.44,1.44,0,0,1-.52.52,1.89,1.89,0,0,1-1,.21,1.61,1.61,0,0,1-1.11-.35,1.74,1.74,0,0,1-.55-.95l.6-.11a1,1,0,0,0,1.06.87,1.27,1.27,0,0,0,.54-.1,1,1,0,0,0,.35-.28,1.14,1.14,0,0,0,.2-.43,2.2,2.2,0,0,0,.06-.53V28.94h.6Z"/><path class="cls-2" d="M181.55,34.14c0,.08,0,.18,0,.28s0,.23,0,.34,0,.22,0,.32,0,.18,0,.23h-.54c0-.15,0-.3,0-.45a1.43,1.43,0,0,0,0-.28h0a1.32,1.32,0,0,1-.54.59,1.52,1.52,0,0,1-.88.25,1.79,1.79,0,0,1-.79-.15,1.41,1.41,0,0,1-.49-.4,1.43,1.43,0,0,1-.24-.58,3.52,3.52,0,0,1-.06-.66V31.15h.54V33.6a2.63,2.63,0,0,0,0,.49,1.47,1.47,0,0,0,.16.43.77.77,0,0,0,.32.3,1,1,0,0,0,.52.11,1.56,1.56,0,0,0,.57-.1,1.17,1.17,0,0,0,.45-.31,1.72,1.72,0,0,0,.31-.53,2.21,2.21,0,0,0,.11-.76V31.15h.54Z"/><path class="cls-2" d="M183,32.32c0-.07,0-.17,0-.28s0-.22,0-.34,0-.22,0-.32a2,2,0,0,1,0-.23h.54c0,.16,0,.31,0,.45a1.35,1.35,0,0,0,0,.28h0a1.58,1.58,0,0,1,.54-.59,1.61,1.61,0,0,1,.88-.24,1.84,1.84,0,0,1,.8.15,1.26,1.26,0,0,1,.48.4,1.72,1.72,0,0,1,.24.57,3,3,0,0,1,.07.67v2.47H186V32.86a2.72,2.72,0,0,0-.05-.49,1.18,1.18,0,0,0-.16-.42.84.84,0,0,0-.31-.31,1.16,1.16,0,0,0-.53-.11,1.55,1.55,0,0,0-.56.11A1.21,1.21,0,0,0,184,32a1.44,1.44,0,0,0-.3.53,2.19,2.19,0,0,0-.12.75v2.08H183Z"/><path class="cls-2" d="M191.44,34.7a2,2,0,0,1-.7.55,2.09,2.09,0,0,1-.83.17,2.35,2.35,0,0,1-.89-.16,1.94,1.94,0,0,1-.69-.46,2.06,2.06,0,0,1-.45-.69,2.3,2.3,0,0,1-.16-.88,2.25,2.25,0,0,1,.16-.87,2.21,2.21,0,0,1,.45-.7,2.06,2.06,0,0,1,.69-.45,2.35,2.35,0,0,1,.89-.16,2,2,0,0,1,.85.18,2.23,2.23,0,0,1,.69.54l-.43.32a2,2,0,0,0-.51-.41,1.27,1.27,0,0,0-.6-.15,1.7,1.7,0,0,0-.69.14,1.61,1.61,0,0,0-.52.36,1.74,1.74,0,0,0-.33.54,2.08,2.08,0,0,0-.11.66,2,2,0,0,0,.11.66,1.63,1.63,0,0,0,.33.54,1.5,1.5,0,0,0,.52.37,1.7,1.7,0,0,0,.69.13,1.32,1.32,0,0,0,.62-.15,1.79,1.79,0,0,0,.49-.42Z"/><path class="cls-2" d="M194.27,31.64h-1.19v2.71a.54.54,0,0,0,.16.43.57.57,0,0,0,.42.16,1.18,1.18,0,0,0,.31,0,1.76,1.76,0,0,0,.3-.1l0,.49-.36.1a1.56,1.56,0,0,1-.35,0,1.22,1.22,0,0,1-.49-.09.8.8,0,0,1-.33-.22.88.88,0,0,1-.19-.34,1.42,1.42,0,0,1-.06-.42V31.64h-.9v-.48h.9V30h.54v1.2h1.19Z"/><path class="cls-2" d="M195.15,29.51a.41.41,0,0,1,.41-.41.36.36,0,0,1,.28.12.38.38,0,0,1,.12.29.4.4,0,0,1-.12.29.39.39,0,0,1-.28.11.42.42,0,0,1-.29-.11.4.4,0,0,1-.12-.29m.14,1.64h.54v4.16h-.54Z"/><path class="cls-2" d="M197.08,33.23a2.25,2.25,0,0,1,.16-.87,2.21,2.21,0,0,1,.45-.7,2.06,2.06,0,0,1,.69-.45,2.33,2.33,0,0,1,.88-.16,2.3,2.3,0,0,1,.88.16,2,2,0,0,1,1.15,1.15,2.25,2.25,0,0,1,.16.87,2.3,2.3,0,0,1-.16.88,2.11,2.11,0,0,1-1.15,1.15,2.3,2.3,0,0,1-.88.16,2.33,2.33,0,0,1-.88-.16,1.94,1.94,0,0,1-.69-.46,2.06,2.06,0,0,1-.45-.69,2.3,2.3,0,0,1-.16-.88m.54,0a1.76,1.76,0,0,0,.11.66,1.36,1.36,0,0,0,.33.54,1.5,1.5,0,0,0,.52.37,1.65,1.65,0,0,0,.68.13,1.7,1.7,0,0,0,.69-.13,1.5,1.5,0,0,0,.52-.37,1.63,1.63,0,0,0,.33-.54,2,2,0,0,0,.11-.66,2.08,2.08,0,0,0-.11-.66,1.74,1.74,0,0,0-.33-.54,1.61,1.61,0,0,0-.52-.36,1.7,1.7,0,0,0-.69-.14,1.65,1.65,0,0,0-.68.14,1.61,1.61,0,0,0-.52.36,1.43,1.43,0,0,0-.33.54,1.83,1.83,0,0,0-.11.66"/><path class="cls-2" d="M202.61,32.32c0-.07,0-.17,0-.28s0-.22,0-.34,0-.22,0-.32a2,2,0,0,1,0-.23h.54c0,.16,0,.31,0,.45a1.35,1.35,0,0,0,0,.28h0a1.58,1.58,0,0,1,.54-.59,1.61,1.61,0,0,1,.88-.24,1.76,1.76,0,0,1,.79.15,1.22,1.22,0,0,1,.49.4,1.72,1.72,0,0,1,.24.57,3.71,3.71,0,0,1,.07.67v2.47h-.54V32.86a2.72,2.72,0,0,0,0-.49,1.18,1.18,0,0,0-.16-.42.84.84,0,0,0-.31-.31,1.16,1.16,0,0,0-.53-.11,1.51,1.51,0,0,0-.56.11,1.21,1.21,0,0,0-.46.31,1.61,1.61,0,0,0-.31.53,2.47,2.47,0,0,0-.11.75v2.08h-.54Z"/><path class="cls-2" d="M47.44,46.31a2.68,2.68,0,0,1-1.06.89,3.17,3.17,0,0,1-1.31.27,3.58,3.58,0,0,1-1.33-.24,3,3,0,0,1-1-.7A3.07,3.07,0,0,1,42,45.47a3.67,3.67,0,0,1-.24-1.34A3.59,3.59,0,0,1,42,42.79a3.16,3.16,0,0,1,.68-1.06,3,3,0,0,1,1-.7,3.39,3.39,0,0,1,1.33-.25,3.18,3.18,0,0,1,1.21.23,2.35,2.35,0,0,1,1,.77l-.49.4a1.65,1.65,0,0,0-.76-.65,2.26,2.26,0,0,0-1-.21,2.9,2.9,0,0,0-1.12.21,2.73,2.73,0,0,0-.85.6,2.76,2.76,0,0,0-.54.89,3.31,3.31,0,0,0,0,2.21,2.65,2.65,0,0,0,.54.89,2.57,2.57,0,0,0,.85.6,2.9,2.9,0,0,0,1.12.21,2.26,2.26,0,0,0,.51,0,3.45,3.45,0,0,0,.51-.18,2.72,2.72,0,0,0,.47-.31,1.71,1.71,0,0,0,.39-.45Z"/><path class="cls-2" d="M48.11,40.51h.54v3.37h0a1.58,1.58,0,0,1,.54-.59,1.65,1.65,0,0,1,.89-.24,1.82,1.82,0,0,1,.79.15,1.35,1.35,0,0,1,.48.4,1.39,1.39,0,0,1,.24.57,3,3,0,0,1,.07.67v2.47h-.54V44.86a2.7,2.7,0,0,0,0-.49,1.41,1.41,0,0,0-.16-.42.77.77,0,0,0-.32-.3,1,1,0,0,0-.52-.12,1.56,1.56,0,0,0-.57.11,1.17,1.17,0,0,0-.46.31,1.6,1.6,0,0,0-.3.53,2.19,2.19,0,0,0-.11.75v2.08h-.54Z"/><path class="cls-2" d="M56.07,45.57c0,.2,0,.38,0,.55s0,.31,0,.45,0,.26,0,.38,0,.24,0,.36h-.5a3.48,3.48,0,0,1-.06-.67h0a1.5,1.5,0,0,1-.58.59,1.82,1.82,0,0,1-.88.19,1.88,1.88,0,0,1-.53-.07,1.26,1.26,0,0,1-.47-.21,1.17,1.17,0,0,1-.34-.39,1.08,1.08,0,0,1-.13-.56,1.14,1.14,0,0,1,.24-.76,1.81,1.81,0,0,1,.6-.42,3.13,3.13,0,0,1,.76-.18c.27,0,.5,0,.71,0h.63v-.25a.87.87,0,0,0-.34-.77,1.38,1.38,0,0,0-.83-.24,1.9,1.9,0,0,0-1.27.47l-.32-.37a1.88,1.88,0,0,1,.74-.43,2.63,2.63,0,0,1,.85-.15,1.86,1.86,0,0,1,1.2.35,1.38,1.38,0,0,1,.45,1.15ZM55,45.23a4.68,4.68,0,0,0-.66,0,2.59,2.59,0,0,0-.58.15,1.26,1.26,0,0,0-.41.29.68.68,0,0,0-.15.45.71.71,0,0,0,.31.58,1,1,0,0,0,.3.14,1,1,0,0,0,.34.06,1.84,1.84,0,0,0,.71-.13,1.14,1.14,0,0,0,.44-.33,1.17,1.17,0,0,0,.23-.46,2.25,2.25,0,0,0,.07-.52v-.27Z"/><rect class="cls-2" x="57.33" y="40.51" width="0.54" height="6.81"/><path class="cls-2" d="M62.36,45.57c0,.2,0,.38,0,.55s0,.31,0,.45,0,.26,0,.38,0,.24,0,.36h-.5a3.51,3.51,0,0,1,0-.67h0a1.5,1.5,0,0,1-.58.59,1.79,1.79,0,0,1-.88.19,1.88,1.88,0,0,1-.53-.07,1.26,1.26,0,0,1-.47-.21,1.17,1.17,0,0,1-.34-.39,1.19,1.19,0,0,1-.13-.56,1.09,1.09,0,0,1,.25-.76,1.67,1.67,0,0,1,.59-.42,3.13,3.13,0,0,1,.76-.18c.27,0,.5,0,.71,0h.63v-.25a.85.85,0,0,0-.34-.77,1.38,1.38,0,0,0-.83-.24,1.9,1.9,0,0,0-1.27.47l-.32-.37a1.88,1.88,0,0,1,.74-.43,2.63,2.63,0,0,1,.85-.15,1.86,1.86,0,0,1,1.2.35,1.38,1.38,0,0,1,.45,1.15Zm-1.08-.34a4.68,4.68,0,0,0-.66,0,2.59,2.59,0,0,0-.58.15,1.12,1.12,0,0,0-.4.29.71.71,0,0,0,.15,1,1,1,0,0,0,.3.14,1,1,0,0,0,.34.06,1.8,1.8,0,0,0,.71-.13,1.14,1.14,0,0,0,.44-.33,1.05,1.05,0,0,0,.23-.46,1.81,1.81,0,0,0,.07-.52v-.27Z"/><polygon class="cls-2" points="63.53 40.51 64.07 40.51 64.07 45.05 66.13 43.16 66.92 43.16 64.78 45.06 67.17 47.31 66.35 47.31 64.07 45.12 64.07 47.31 63.53 47.31 63.53 40.51"/><path class="cls-2" d="M71.11,46.14c0,.08,0,.18,0,.28s0,.23,0,.34,0,.22,0,.32,0,.18,0,.23h-.54c0-.15,0-.3,0-.45a1.43,1.43,0,0,0,0-.28h0a1.44,1.44,0,0,1-.54.59,1.52,1.52,0,0,1-.88.25,1.87,1.87,0,0,1-.8-.15,1.37,1.37,0,0,1-.48-.4,1.43,1.43,0,0,1-.24-.58,3.52,3.52,0,0,1-.06-.66V43.15h.54V45.6a2.63,2.63,0,0,0,0,.49,1.23,1.23,0,0,0,.16.43.75.75,0,0,0,.31.3,1,1,0,0,0,.53.11,1.47,1.47,0,0,0,.56-.1,1.21,1.21,0,0,0,.46-.31,1.72,1.72,0,0,0,.31-.53,2.49,2.49,0,0,0,.11-.76V43.15h.54Z"/><path class="cls-2" d="M76,46.58h0a1.43,1.43,0,0,1-.31.38,2.19,2.19,0,0,1-.41.26,1.9,1.9,0,0,1-.46.15,2.8,2.8,0,0,1-.48.05,2.3,2.3,0,0,1-.88-.16,2,2,0,0,1-1.15-1.15,2.5,2.5,0,0,1-.16-.88,2.45,2.45,0,0,1,.16-.87,2,2,0,0,1,1.15-1.15,2.3,2.3,0,0,1,.88-.16,2.74,2.74,0,0,1,.48,0,2.51,2.51,0,0,1,.46.16,2.19,2.19,0,0,1,.41.26,1.56,1.56,0,0,1,.31.37h0V40.51h.54v6.8H76ZM76,45.23a1.71,1.71,0,0,0-.51-1.2,1.75,1.75,0,0,0-.55-.36,1.69,1.69,0,0,0-1.89.36,1.74,1.74,0,0,0-.33.54,2.08,2.08,0,0,0-.11.66,2,2,0,0,0,.11.66,1.63,1.63,0,0,0,.33.54,1.59,1.59,0,0,0,.52.37,1.87,1.87,0,0,0,1.37,0,1.62,1.62,0,0,0,.55-.37,1.58,1.58,0,0,0,.37-.54,1.59,1.59,0,0,0,.14-.66"/><path class="cls-2" d="M78.72,48.6a1.56,1.56,0,0,1-.42.64,1,1,0,0,1-.72.23l-.27,0a2,2,0,0,1-.26-.06l0-.5.24.06a.73.73,0,0,0,.25,0,.46.46,0,0,0,.26-.07.58.58,0,0,0,.19-.16,1.18,1.18,0,0,0,.14-.22,1.86,1.86,0,0,0,.1-.25l.38-1L77,43.16h.6L79,46.66l1.34-3.5h.58Z"/><polygon class="cls-2" points="80.95 46.5 81.58 46.5 80.88 48.55 80.35 48.55 80.95 46.5"/><polygon class="cls-2" points="84.92 40.94 85.51 40.94 85.51 43.75 85.56 43.75 88.65 40.94 89.47 40.94 86.25 43.86 89.65 47.31 88.8 47.31 85.56 44.02 85.51 44.02 85.51 47.31 84.92 47.31 84.92 40.94"/><path class="cls-2" d="M93.66,46.53a1.84,1.84,0,0,1-.77.68,2.46,2.46,0,0,1-1,.21,2.2,2.2,0,0,1-.86-.16,2,2,0,0,1-.67-.46,2,2,0,0,1-.42-.69,2.5,2.5,0,0,1-.15-.88,2.41,2.41,0,0,1,.15-.87,2.23,2.23,0,0,1,.43-.69,2.18,2.18,0,0,1,.66-.46,2.06,2.06,0,0,1,.84-.16,2,2,0,0,1,.84.16,1.8,1.8,0,0,1,1,1.07,1.94,1.94,0,0,1,.13.71v.38H90.3a1.7,1.7,0,0,0,.07.44,1.47,1.47,0,0,0,.24.51,1.57,1.57,0,0,0,.48.44,1.66,1.66,0,0,0,.78.18,1.72,1.72,0,0,0,.8-.2,1.43,1.43,0,0,0,.6-.54Zm-.41-1.65a1.31,1.31,0,0,0-.11-.52,1.62,1.62,0,0,0-.31-.43,1.44,1.44,0,0,0-.46-.29,1.47,1.47,0,0,0-.56-.11,1.36,1.36,0,0,0-.73.18,1.61,1.61,0,0,0-.47.42,1.64,1.64,0,0,0-.24.45,1.14,1.14,0,0,0-.07.3Z"/><path class="cls-2" d="M94.73,44.32c0-.07,0-.17,0-.28s0-.22,0-.34,0-.22,0-.32a2,2,0,0,1,0-.23h.54c0,.16,0,.31,0,.45a2.07,2.07,0,0,0,0,.28,1.91,1.91,0,0,1,.53-.6,1.34,1.34,0,0,1,.79-.23h.16l.16,0-.07.53-.2,0a1.42,1.42,0,0,0-.61.11,1.22,1.22,0,0,0-.43.31,1.26,1.26,0,0,0-.24.46,1.81,1.81,0,0,0-.08.58v2.26h-.54Z"/><path class="cls-2" d="M100.68,45.57c0,.2,0,.38,0,.55s0,.31,0,.45l0,.38a2.2,2.2,0,0,0,0,.36h-.51a4.57,4.57,0,0,1-.05-.67h0a1.5,1.5,0,0,1-.58.59,1.77,1.77,0,0,1-.88.19,1.88,1.88,0,0,1-.53-.07,1.33,1.33,0,0,1-.47-.21,1,1,0,0,1-.33-.39,1.08,1.08,0,0,1-.14-.56,1.14,1.14,0,0,1,.25-.76,1.63,1.63,0,0,1,.6-.42,2.94,2.94,0,0,1,.75-.18c.27,0,.5,0,.71,0h.63v-.25a.87.87,0,0,0-.33-.77,1.43,1.43,0,0,0-.84-.24,1.92,1.92,0,0,0-1.27.47l-.32-.37a1.88,1.88,0,0,1,.74-.43,2.68,2.68,0,0,1,.85-.15,1.86,1.86,0,0,1,1.2.35,1.38,1.38,0,0,1,.45,1.15Zm-1.08-.34a4.87,4.87,0,0,0-.66,0,2.38,2.38,0,0,0-.57.15,1.16,1.16,0,0,0-.41.29.69.69,0,0,0-.16.45.64.64,0,0,0,.09.34.73.73,0,0,0,.22.24,1,1,0,0,0,.3.14,1,1,0,0,0,.34.06,1.8,1.8,0,0,0,.71-.13,1.17,1.17,0,0,0,.45-.33,1.33,1.33,0,0,0,.23-.46,2.24,2.24,0,0,0,.06-.52v-.27Z"/><rect class="cls-2" x="101.94" y="40.51" width="0.54" height="6.81"/><path class="cls-2" d="M107,45.57c0,.2,0,.38,0,.55s0,.31,0,.45l0,.38a2.2,2.2,0,0,0,0,.36h-.51a4.57,4.57,0,0,1,0-.67h0a1.5,1.5,0,0,1-.58.59,1.77,1.77,0,0,1-.88.19,1.88,1.88,0,0,1-.53-.07,1.33,1.33,0,0,1-.47-.21,1,1,0,0,1-.33-.39,1.08,1.08,0,0,1-.14-.56,1.14,1.14,0,0,1,.25-.76,1.63,1.63,0,0,1,.6-.42,2.94,2.94,0,0,1,.75-.18c.27,0,.5,0,.71,0h.63v-.25a.87.87,0,0,0-.33-.77,1.43,1.43,0,0,0-.84-.24,1.92,1.92,0,0,0-1.27.47l-.32-.37a1.88,1.88,0,0,1,.74-.43,2.68,2.68,0,0,1,.85-.15,1.86,1.86,0,0,1,1.2.35,1.38,1.38,0,0,1,.45,1.15Zm-1.08-.34a4.87,4.87,0,0,0-.66,0,2.38,2.38,0,0,0-.57.15,1.16,1.16,0,0,0-.41.29.69.69,0,0,0-.16.45.64.64,0,0,0,.09.34.73.73,0,0,0,.22.24,1,1,0,0,0,.3.14,1,1,0,0,0,.34.06,1.8,1.8,0,0,0,.71-.13,1.17,1.17,0,0,0,.45-.33,1.33,1.33,0,0,0,.23-.46,2.24,2.24,0,0,0,.06-.52v-.27Z"/><rect class="cls-2" x="109.88" y="44.94" width="2.22" height="0.49"/><path class="cls-2" d="M115.8,43.75h0a1,1,0,0,1,.44-.2,1.89,1.89,0,0,1,.51-.07,2,2,0,0,1,.78.15,1.79,1.79,0,0,1,.62.42,2,2,0,0,1,.41.62,2.19,2.19,0,0,1,.14.77,1.94,1.94,0,0,1-.16.8,1.82,1.82,0,0,1-.43.62,2,2,0,0,1-.67.41,2.37,2.37,0,0,1-1.66,0,1.95,1.95,0,0,1-1.1-1,2.11,2.11,0,0,1-.16-.8,1.86,1.86,0,0,1,.06-.48,1.88,1.88,0,0,1,.14-.42,3.54,3.54,0,0,1,.19-.39l.2-.34,1.73-2.87h.68Zm.83.2a1.58,1.58,0,0,0-.58.11,1.47,1.47,0,0,0-.8.8,1.62,1.62,0,0,0-.11.58,1.51,1.51,0,0,0,.11.61,1.35,1.35,0,0,0,.3.47,1.38,1.38,0,0,0,.47.31,1.74,1.74,0,0,0,.61.1,1.7,1.7,0,0,0,.61-.1,1.4,1.4,0,0,0,.78-.78,1.7,1.7,0,0,0,.11-.61,1.43,1.43,0,0,0-.12-.58,1.75,1.75,0,0,0-.32-.48,1.61,1.61,0,0,0-.48-.32,1.58,1.58,0,0,0-.58-.11"/><path class="cls-2" d="M119.3,42.49a1.68,1.68,0,0,1,.13-.68,1.5,1.5,0,0,1,.37-.52,2,2,0,0,1,.55-.34,2,2,0,0,1,.69-.12,1.92,1.92,0,0,1,.69.12,1.89,1.89,0,0,1,.55.34,1.5,1.5,0,0,1,.37.52,1.69,1.69,0,0,1,.14.68,1.62,1.62,0,0,1-.07.44,1.65,1.65,0,0,1-.21.42,1.12,1.12,0,0,1-.32.33,1,1,0,0,1-.42.21h0a1.62,1.62,0,0,1,.54.22,1.52,1.52,0,0,1,.38.38,1.49,1.49,0,0,1,.24.49,1.67,1.67,0,0,1,.08.55,1.94,1.94,0,0,1-.15.78,1.65,1.65,0,0,1-.41.59,2,2,0,0,1-.63.38,2.41,2.41,0,0,1-1.56,0,2,2,0,0,1-.63-.38,1.78,1.78,0,0,1-.41-.59,1.94,1.94,0,0,1-.15-.78,2,2,0,0,1,.08-.55,2,2,0,0,1,.24-.49,1.41,1.41,0,0,1,.39-.38,1.48,1.48,0,0,1,.53-.22h0a1.19,1.19,0,0,1-.42-.21,1.26,1.26,0,0,1-.32-.33,1.62,1.62,0,0,1-.2-.42,1.31,1.31,0,0,1-.07-.44m.36,3a1.62,1.62,0,0,0,.1.54,1.44,1.44,0,0,0,.28.44,1.28,1.28,0,0,0,.43.3,1.53,1.53,0,0,0,1.14,0,1.19,1.19,0,0,0,.43-.3,1.44,1.44,0,0,0,.28-.44,1.4,1.4,0,0,0,.1-.54,1.48,1.48,0,0,0-.11-.57,1.35,1.35,0,0,0-.29-.44,1.3,1.3,0,0,0-.44-.29,1.51,1.51,0,0,0-1.08,0,1.3,1.3,0,0,0-.44.29,1.35,1.35,0,0,0-.29.44,1.48,1.48,0,0,0-.11.57m.23-3a1.33,1.33,0,0,0,.08.45,1.18,1.18,0,0,0,.24.37,1,1,0,0,0,.36.25,1.15,1.15,0,0,0,.94,0,.93.93,0,0,0,.36-.25,1.18,1.18,0,0,0,.24-.37,1.33,1.33,0,0,0,.08-.45,1.15,1.15,0,0,0-.32-.85,1.16,1.16,0,0,0-.83-.32,1.14,1.14,0,0,0-.82.32,1.11,1.11,0,0,0-.33.85"/><path class="cls-2" d="M123.35,44.13c0-.23,0-.47,0-.73a6.46,6.46,0,0,1,.11-.75,4,4,0,0,1,.24-.69,2.08,2.08,0,0,1,.38-.58,1.74,1.74,0,0,1,.56-.4,2.1,2.1,0,0,1,1.56,0,1.63,1.63,0,0,1,.56.4,1.88,1.88,0,0,1,.38.58,4,4,0,0,1,.24.69,6.5,6.5,0,0,1,.12.75c0,.26,0,.5,0,.73s0,.47,0,.73a6,6,0,0,1-.12.74,4,4,0,0,1-.24.69,1.88,1.88,0,0,1-.38.58,1.63,1.63,0,0,1-.56.4,2.1,2.1,0,0,1-1.56,0,1.74,1.74,0,0,1-.56-.4,2.08,2.08,0,0,1-.38-.58,4,4,0,0,1-.24-.69,6,6,0,0,1-.11-.74c0-.26,0-.5,0-.73m.59,0c0,.17,0,.35,0,.55a4.38,4.38,0,0,0,.23,1.22,2.2,2.2,0,0,0,.27.53,1.33,1.33,0,0,0,.41.37,1.16,1.16,0,0,0,.58.14,1.18,1.18,0,0,0,.58-.14,1.37,1.37,0,0,0,.42-.37,2.2,2.2,0,0,0,.27-.53,4.18,4.18,0,0,0,.15-.61c0-.2.06-.41.08-.61s0-.38,0-.55,0-.35,0-.55,0-.41-.08-.62a4.18,4.18,0,0,0-.15-.61,2,2,0,0,0-.27-.52,1.15,1.15,0,0,0-.42-.37,1.09,1.09,0,0,0-.58-.14,1.11,1.11,0,0,0-.58.14,1.21,1.21,0,0,0-.41.37,2,2,0,0,0-.27.52A4.21,4.21,0,0,0,124,43a4.36,4.36,0,0,0-.07.62c0,.2,0,.39,0,.55"/><path class="cls-2" d="M128.48,46a1.64,1.64,0,0,0,.49.71,1.34,1.34,0,0,0,.85.24,1.72,1.72,0,0,0,.62-.1,1.18,1.18,0,0,0,.44-.3,1.25,1.25,0,0,0,.27-.44,1.61,1.61,0,0,0,.09-.54,1.11,1.11,0,0,0-.15-.6,1.18,1.18,0,0,0-.39-.41,1.45,1.45,0,0,0-.54-.23,2.47,2.47,0,0,0-.6-.08h-.24v-.54h.27a2.22,2.22,0,0,0,.51-.06,1.75,1.75,0,0,0,.46-.21,1.23,1.23,0,0,0,.33-.38,1.18,1.18,0,0,0,.12-.55,1.12,1.12,0,0,0-1.18-1.17,1.25,1.25,0,0,0-.71.2,1.45,1.45,0,0,0-.49.55l-.51-.29a1.6,1.6,0,0,1,.71-.72,2.23,2.23,0,0,1,1-.23,2.26,2.26,0,0,1,.69.11,1.73,1.73,0,0,1,.57.3,1.62,1.62,0,0,1,.38.51,1.74,1.74,0,0,1,.14.72,1.53,1.53,0,0,1-.29.92,1.49,1.49,0,0,1-.85.56h0a1.71,1.71,0,0,1,.56.21,1.82,1.82,0,0,1,.42.36,1.49,1.49,0,0,1,.28.49,1.56,1.56,0,0,1,.1.57,2.08,2.08,0,0,1-.12.71,1.41,1.41,0,0,1-.37.58,1.75,1.75,0,0,1-.61.4,2.56,2.56,0,0,1-.87.14,2.35,2.35,0,0,1-1.22-.3,1.87,1.87,0,0,1-.75-.95Z"/><path class="cls-2" d="M132.17,44.13c0-.23,0-.47,0-.73a6.46,6.46,0,0,1,.11-.75,4,4,0,0,1,.24-.69,2.08,2.08,0,0,1,.38-.58,1.74,1.74,0,0,1,.56-.4,2.1,2.1,0,0,1,1.56,0,1.63,1.63,0,0,1,.56.4A1.88,1.88,0,0,1,136,42a4,4,0,0,1,.24.69,6.5,6.5,0,0,1,.12.75c0,.26,0,.5,0,.73s0,.47,0,.73a6,6,0,0,1-.12.74,4,4,0,0,1-.24.69,1.88,1.88,0,0,1-.38.58,1.63,1.63,0,0,1-.56.4,2.1,2.1,0,0,1-1.56,0,1.74,1.74,0,0,1-.56-.4,2.08,2.08,0,0,1-.38-.58,4,4,0,0,1-.24-.69,6,6,0,0,1-.11-.74c0-.26,0-.5,0-.73m.59,0c0,.17,0,.35,0,.55A4.38,4.38,0,0,0,133,45.9a2.2,2.2,0,0,0,.27.53,1.33,1.33,0,0,0,.41.37,1.16,1.16,0,0,0,.58.14,1.18,1.18,0,0,0,.58-.14,1.37,1.37,0,0,0,.42-.37,2.2,2.2,0,0,0,.27-.53,4.18,4.18,0,0,0,.15-.61c0-.2.06-.41.08-.61s0-.38,0-.55,0-.35,0-.55,0-.41-.08-.62a4.18,4.18,0,0,0-.15-.61,2,2,0,0,0-.27-.52,1.15,1.15,0,0,0-.42-.37,1.09,1.09,0,0,0-.58-.14,1.11,1.11,0,0,0-.58.14,1.21,1.21,0,0,0-.41.37,2,2,0,0,0-.27.52,4.21,4.21,0,0,0-.16.61,4.36,4.36,0,0,0-.07.62c0,.2,0,.39,0,.55"/><polygon class="cls-2" points="140.33 41.43 137.79 47.31 137.19 47.31 139.77 41.43 136.71 41.43 136.71 40.94 140.33 40.94 140.33 41.43"/><polygon class="cls-2" points="141.79 46.5 142.43 46.5 141.73 48.55 141.2 48.55 141.79 46.5"/><polygon class="cls-2" points="147.18 41.48 145 41.48 145 40.94 149.95 40.94 149.95 41.48 147.77 41.48 147.77 47.31 147.18 47.31 147.18 41.48"/><path class="cls-2" d="M153.27,46.53a1.81,1.81,0,0,1-.78.68,2.45,2.45,0,0,1-1,.21,2.13,2.13,0,0,1-.86-.16,2,2,0,0,1-.67-.46,1.88,1.88,0,0,1-.43-.69,2.5,2.5,0,0,1-.15-.88,2.41,2.41,0,0,1,.16-.87,2,2,0,0,1,1.92-1.31,2.08,2.08,0,0,1,.85.16,2,2,0,0,1,.61.44,2,2,0,0,1,.37.63,2.17,2.17,0,0,1,.13.71v.38h-3.5a2.29,2.29,0,0,0,.07.44,1.72,1.72,0,0,0,.25.51,1.57,1.57,0,0,0,.48.44,1.61,1.61,0,0,0,.78.18,1.76,1.76,0,0,0,.8-.2,1.35,1.35,0,0,0,.59-.54Zm-.41-1.65a1.17,1.17,0,0,0-.12-.52,1.39,1.39,0,0,0-.3-.43,1.44,1.44,0,0,0-.46-.29,1.55,1.55,0,0,0-.56-.11,1.4,1.4,0,0,0-.74.18,1.56,1.56,0,0,0-.46.42,1.41,1.41,0,0,0-.24.45,1.33,1.33,0,0,0-.08.3Z"/><rect class="cls-2" x="154.51" y="40.51" width="0.54" height="6.81"/><path class="cls-2" d="M156.42,46.93a.44.44,0,0,1,.43-.43.42.42,0,0,1,.31.13.41.41,0,0,1,.12.3.43.43,0,0,1-.12.31.46.46,0,0,1-.31.13.42.42,0,0,1-.3-.13.4.4,0,0,1-.13-.31"/><polygon class="cls-2" points="160.7 44.37 162.78 44.37 162.78 42.29 163.22 42.29 163.22 44.37 165.29 44.37 165.29 44.8 163.22 44.8 163.22 46.88 162.78 46.88 162.78 44.8 160.7 44.8 160.7 44.37"/><path class="cls-2" d="M169,44.5h0a1.06,1.06,0,0,1-.44.21,2.4,2.4,0,0,1-.51.07,2,2,0,0,1-.78-.16,1.79,1.79,0,0,1-.62-.42,1.77,1.77,0,0,1-.41-.62,2.11,2.11,0,0,1-.14-.77,1.89,1.89,0,0,1,.16-.79,1.86,1.86,0,0,1,.43-.63,2.23,2.23,0,0,1,.66-.41,2.32,2.32,0,0,1,.84-.15A2.27,2.27,0,0,1,169,41a2.23,2.23,0,0,1,.66.41,1.88,1.88,0,0,1,.44.63,2.06,2.06,0,0,1,.15.79,1.86,1.86,0,0,1-.05.48,3.09,3.09,0,0,1-.14.43c-.06.13-.13.26-.2.38l-.19.34-1.73,2.87h-.68Zm-.82-.19a1.47,1.47,0,0,0,.58-.12,1.56,1.56,0,0,0,.47-.32,1.4,1.4,0,0,0,.32-.47,1.45,1.45,0,0,0,.12-.59,1.74,1.74,0,0,0-.11-.61,1.45,1.45,0,0,0-.3-.47,1.39,1.39,0,0,0-.48-.3,1.72,1.72,0,0,0-1.21,0,1.27,1.27,0,0,0-.47.3,1.33,1.33,0,0,0-.31.47,1.74,1.74,0,0,0-.11.61,1.45,1.45,0,0,0,.12.59,1.4,1.4,0,0,0,.32.47,1.56,1.56,0,0,0,.47.32,1.45,1.45,0,0,0,.59.12"/><polygon class="cls-2" points="172.66 41.7 172.66 41.7 171.5 42.64 171.17 42.23 172.75 40.94 173.21 40.94 173.21 47.31 172.66 47.31 172.66 41.7"/><path class="cls-2" d="M178.49,43.75h0a1,1,0,0,1,.43-.2,2,2,0,0,1,.51-.07,2,2,0,0,1,.78.15,1.79,1.79,0,0,1,.62.42,1.86,1.86,0,0,1,.41.62,2,2,0,0,1,.14.77,2.11,2.11,0,0,1-.15.8,1.84,1.84,0,0,1-.44.62,2,2,0,0,1-.66.41,2.27,2.27,0,0,1-.83.15,2.32,2.32,0,0,1-.84-.15,2,2,0,0,1-.66-.41,1.82,1.82,0,0,1-.43-.62,1.94,1.94,0,0,1-.16-.8,2.44,2.44,0,0,1,.05-.48,2.6,2.6,0,0,1,.15-.42l.18-.39.2-.34,1.73-2.87h.68Zm.83.2a1.63,1.63,0,0,0-.59.11,1.5,1.5,0,0,0-.79.8,1.43,1.43,0,0,0-.12.58,1.7,1.7,0,0,0,.11.61,1.25,1.25,0,0,0,.31.47,1.29,1.29,0,0,0,.47.31,1.66,1.66,0,0,0,.61.1,1.64,1.64,0,0,0,.6-.1,1.42,1.42,0,0,0,.48-.31,1.35,1.35,0,0,0,.3-.47,1.7,1.7,0,0,0,.11-.61,1.43,1.43,0,0,0-.12-.58,1.5,1.5,0,0,0-.79-.8,1.66,1.66,0,0,0-.58-.11"/><path class="cls-2" d="M181.84,46.68l2.4-2.53c.11-.1.21-.22.32-.34a2.91,2.91,0,0,0,.51-.82,1.51,1.51,0,0,0,.08-.48,1.1,1.1,0,0,0-.36-.88,1.34,1.34,0,0,0-.91-.31,1.23,1.23,0,0,0-.84.29,1.31,1.31,0,0,0-.44.75L182,42.3a1.68,1.68,0,0,1,.68-1.1,2.25,2.25,0,0,1,2-.25,1.73,1.73,0,0,1,.58.32,1.41,1.41,0,0,1,.4.5,1.52,1.52,0,0,1,.15.69,2.17,2.17,0,0,1-.11.69,3.36,3.36,0,0,1-.3.6,4.06,4.06,0,0,1-.42.53l-.48.5-2,2h3.35v.48h-3.95Z"/><path class="cls-2" d="M189.09,46a1.64,1.64,0,0,0,.49.71,1.36,1.36,0,0,0,.85.24,1.72,1.72,0,0,0,.62-.1,1.31,1.31,0,0,0,.45-.3,1.39,1.39,0,0,0,.26-.44,1.61,1.61,0,0,0,.09-.54,1.11,1.11,0,0,0-.15-.6,1.07,1.07,0,0,0-.38-.41,1.45,1.45,0,0,0-.54-.23,2.55,2.55,0,0,0-.61-.08h-.23v-.54h.27a2.2,2.2,0,0,0,.5-.06,1.62,1.62,0,0,0,.46-.21,1,1,0,0,0,.33-.38,1.07,1.07,0,0,0,.13-.55,1.17,1.17,0,0,0-.32-.84,1.15,1.15,0,0,0-.86-.33,1.23,1.23,0,0,0-.71.2,1.47,1.47,0,0,0-.5.55l-.51-.29a1.6,1.6,0,0,1,.71-.72,2.27,2.27,0,0,1,1-.23,2.15,2.15,0,0,1,.68.11,1.55,1.55,0,0,1,.57.3,1.48,1.48,0,0,1,.38.51,1.74,1.74,0,0,1,.14.72,1.46,1.46,0,0,1-.29.92,1.5,1.5,0,0,1-.84.56h0a1.66,1.66,0,0,1,.55.21,1.59,1.59,0,0,1,.71.85,1.8,1.8,0,0,1,.1.57,1.87,1.87,0,0,1-.13.71,1.5,1.5,0,0,1-.36.58,1.79,1.79,0,0,1-.62.4,2.5,2.5,0,0,1-.86.14,2.32,2.32,0,0,1-1.22-.3,1.83,1.83,0,0,1-.76-.95Z"/><path class="cls-2" d="M193.23,42.49a1.68,1.68,0,0,1,.13-.68,1.64,1.64,0,0,1,.37-.52,2,2,0,0,1,.56-.34,2,2,0,0,1,1.37,0,2,2,0,0,1,.56.34,1.64,1.64,0,0,1,.37.52,1.68,1.68,0,0,1,.13.68,1.31,1.31,0,0,1-.07.44,2,2,0,0,1-.2.42,1.44,1.44,0,0,1-.32.33,1.15,1.15,0,0,1-.43.21h0a1.46,1.46,0,0,1,.54.22,1.76,1.76,0,0,1,.39.38,2,2,0,0,1,.24.49,2,2,0,0,1,.08.55,1.94,1.94,0,0,1-.15.78,1.67,1.67,0,0,1-.42.59,1.85,1.85,0,0,1-.62.38,2.44,2.44,0,0,1-1.57,0,1.85,1.85,0,0,1-.62-.38,1.67,1.67,0,0,1-.42-.59,1.94,1.94,0,0,1-.15-.78,1.67,1.67,0,0,1,.09-.55,1.69,1.69,0,0,1,.23-.49,1.76,1.76,0,0,1,.39-.38,1.46,1.46,0,0,1,.54-.22h0a1.15,1.15,0,0,1-.43-.21,1.44,1.44,0,0,1-.32-.33,2,2,0,0,1-.2-.42,1.31,1.31,0,0,1-.07-.44m.37,3a1.4,1.4,0,0,0,.1.54,1.27,1.27,0,0,0,.28.44,1.19,1.19,0,0,0,.43.3,1.27,1.27,0,0,0,.56.11,1.32,1.32,0,0,0,.57-.11,1.19,1.19,0,0,0,.43-.3,1.27,1.27,0,0,0,.28-.44,1.4,1.4,0,0,0,.1-.54,1.32,1.32,0,0,0-.11-.57,1.35,1.35,0,0,0-.29-.44,1.21,1.21,0,0,0-.44-.29,1.53,1.53,0,0,0-.54-.1,1.62,1.62,0,0,0-.54.1,1.26,1.26,0,0,0-.43.29,1.35,1.35,0,0,0-.29.44,1.32,1.32,0,0,0-.11.57m.22-3a1.13,1.13,0,0,0,.09.45,1.16,1.16,0,0,0,.23.37,1,1,0,0,0,.36.25,1.15,1.15,0,0,0,.94,0,1,1,0,0,0,.37-.25,1.16,1.16,0,0,0,.23-.37,1.13,1.13,0,0,0,.09-.45,1.11,1.11,0,0,0-.33-.85,1.16,1.16,0,0,0-.83-.32,1.14,1.14,0,0,0-.82.32,1.11,1.11,0,0,0-.33.85"/><path class="cls-2" d="M198.65,43.75h0a1,1,0,0,1,.43-.2,2,2,0,0,1,.51-.07,2,2,0,0,1,.78.15,1.79,1.79,0,0,1,.62.42,1.86,1.86,0,0,1,.41.62,2,2,0,0,1,.14.77,2.11,2.11,0,0,1-.15.8,1.84,1.84,0,0,1-.44.62,2,2,0,0,1-.66.41,2.27,2.27,0,0,1-.83.15,2.32,2.32,0,0,1-.84-.15,2,2,0,0,1-.66-.41,2,2,0,0,1-.44-.62,2.11,2.11,0,0,1-.15-.8,2.44,2.44,0,0,1,.05-.48,2.6,2.6,0,0,1,.15-.42l.18-.39.2-.34,1.73-2.87h.68Zm.83.2a1.63,1.63,0,0,0-.59.11,1.5,1.5,0,0,0-.79.8,1.43,1.43,0,0,0-.12.58,1.7,1.7,0,0,0,.11.61,1.25,1.25,0,0,0,.31.47,1.38,1.38,0,0,0,.47.31,1.66,1.66,0,0,0,.61.1,1.64,1.64,0,0,0,.6-.1,1.42,1.42,0,0,0,.48-.31,1.35,1.35,0,0,0,.3-.47,1.7,1.7,0,0,0,.11-.61,1.43,1.43,0,0,0-.12-.58,1.5,1.5,0,0,0-.79-.8,1.66,1.66,0,0,0-.58-.11"/><path class="cls-2" d="M204.39,42.49a1.68,1.68,0,0,1,.13-.68,1.64,1.64,0,0,1,.37-.52,2,2,0,0,1,.56-.34,2,2,0,0,1,1.37,0,2,2,0,0,1,.56.34,1.64,1.64,0,0,1,.37.52,1.68,1.68,0,0,1,.13.68,1.31,1.31,0,0,1-.07.44,2,2,0,0,1-.2.42,1.44,1.44,0,0,1-.32.33,1.15,1.15,0,0,1-.43.21h0a1.46,1.46,0,0,1,.54.22,1.76,1.76,0,0,1,.39.38A2,2,0,0,1,208,45a2,2,0,0,1,.08.55,1.94,1.94,0,0,1-.15.78,1.67,1.67,0,0,1-.42.59,1.85,1.85,0,0,1-.62.38,2.44,2.44,0,0,1-1.57,0,1.85,1.85,0,0,1-.62-.38,1.67,1.67,0,0,1-.42-.59,1.94,1.94,0,0,1-.15-.78,1.67,1.67,0,0,1,.09-.55,1.69,1.69,0,0,1,.23-.49,1.76,1.76,0,0,1,.39-.38,1.46,1.46,0,0,1,.54-.22h0a1.15,1.15,0,0,1-.43-.21,1.44,1.44,0,0,1-.32-.33,2,2,0,0,1-.2-.42,1.31,1.31,0,0,1-.07-.44m.37,3a1.4,1.4,0,0,0,.1.54,1.27,1.27,0,0,0,.28.44,1.19,1.19,0,0,0,.43.3,1.27,1.27,0,0,0,.56.11,1.32,1.32,0,0,0,.57-.11,1.19,1.19,0,0,0,.43-.3,1.27,1.27,0,0,0,.28-.44,1.4,1.4,0,0,0,.1-.54,1.32,1.32,0,0,0-.11-.57,1.35,1.35,0,0,0-.29-.44,1.21,1.21,0,0,0-.44-.29,1.53,1.53,0,0,0-.54-.1,1.62,1.62,0,0,0-.54.1,1.26,1.26,0,0,0-.43.29,1.35,1.35,0,0,0-.29.44,1.32,1.32,0,0,0-.11.57m.22-3a1.13,1.13,0,0,0,.09.45,1.16,1.16,0,0,0,.23.37,1,1,0,0,0,.36.25,1.15,1.15,0,0,0,.94,0,1,1,0,0,0,.37-.25,1.16,1.16,0,0,0,.23-.37,1.13,1.13,0,0,0,.09-.45,1.11,1.11,0,0,0-.33-.85,1.16,1.16,0,0,0-.83-.32,1.14,1.14,0,0,0-.82.32,1.11,1.11,0,0,0-.33.85"/><path class="cls-2" d="M209.25,46a1.64,1.64,0,0,0,.49.71,1.36,1.36,0,0,0,.85.24,1.72,1.72,0,0,0,.62-.1,1.31,1.31,0,0,0,.45-.3,1.39,1.39,0,0,0,.26-.44,1.61,1.61,0,0,0,.09-.54,1.11,1.11,0,0,0-.15-.6,1.07,1.07,0,0,0-.38-.41,1.45,1.45,0,0,0-.54-.23,2.55,2.55,0,0,0-.61-.08h-.23v-.54h.27a2.2,2.2,0,0,0,.5-.06,1.62,1.62,0,0,0,.46-.21,1,1,0,0,0,.33-.38,1.07,1.07,0,0,0,.13-.55,1.17,1.17,0,0,0-.32-.84,1.15,1.15,0,0,0-.86-.33,1.23,1.23,0,0,0-.71.2,1.47,1.47,0,0,0-.5.55l-.51-.29a1.6,1.6,0,0,1,.71-.72,2.27,2.27,0,0,1,1-.23,2.15,2.15,0,0,1,.68.11,1.55,1.55,0,0,1,.57.3,1.48,1.48,0,0,1,.38.51,1.74,1.74,0,0,1,.14.72,1.46,1.46,0,0,1-.29.92,1.5,1.5,0,0,1-.84.56h0a1.66,1.66,0,0,1,.55.21,1.59,1.59,0,0,1,.71.85,1.8,1.8,0,0,1,.1.57,1.87,1.87,0,0,1-.13.71,1.5,1.5,0,0,1-.36.58,1.79,1.79,0,0,1-.62.4,2.5,2.5,0,0,1-.86.14,2.32,2.32,0,0,1-1.22-.3,1.83,1.83,0,0,1-.76-.95Z"/><path class="cls-2" d="M215.19,44.13c0-.23,0-.47,0-.73a4.88,4.88,0,0,1,.12-.75,3.29,3.29,0,0,1,.23-.69,2.33,2.33,0,0,1,.38-.58,1.78,1.78,0,0,1,1.34-.55,1.87,1.87,0,0,1,.78.15,1.78,1.78,0,0,1,.57.4A2.33,2.33,0,0,1,219,42a4,4,0,0,1,.23.69,4.88,4.88,0,0,1,.12.75c0,.26,0,.5,0,.73s0,.47,0,.73a4.57,4.57,0,0,1-.12.74,4,4,0,0,1-.23.69,2.33,2.33,0,0,1-.38.58,1.78,1.78,0,0,1-.57.4,1.87,1.87,0,0,1-.78.15,1.78,1.78,0,0,1-1.34-.55,2.33,2.33,0,0,1-.38-.58,3.29,3.29,0,0,1-.23-.69,4.57,4.57,0,0,1-.12-.74c0-.26,0-.5,0-.73m.59,0c0,.17,0,.35,0,.55s0,.41.07.61a4.21,4.21,0,0,0,.16.61,2.2,2.2,0,0,0,.27.53,1.45,1.45,0,0,0,.41.37,1.18,1.18,0,0,0,.58.14,1.22,1.22,0,0,0,.59-.14,1.45,1.45,0,0,0,.41-.37,2.2,2.2,0,0,0,.27-.53,4.21,4.21,0,0,0,.16-.61c0-.2.06-.41.07-.61s0-.38,0-.55,0-.35,0-.55,0-.41-.07-.62a4.21,4.21,0,0,0-.16-.61,2,2,0,0,0-.27-.52,1.21,1.21,0,0,0-.41-.37,1.12,1.12,0,0,0-.59-.14,1.11,1.11,0,0,0-.58.14,1.21,1.21,0,0,0-.41.37,2,2,0,0,0-.27.52,4.21,4.21,0,0,0-.16.61c0,.21-.06.41-.07.62s0,.39,0,.55"/><path class="cls-2" d="M223.5,41.43h-2.62l0,2a1.39,1.39,0,0,1,.45-.14,2.59,2.59,0,0,1,.48,0,2,2,0,0,1,.83.17,1.87,1.87,0,0,1,.62.45,2.25,2.25,0,0,1,.4.67,2.48,2.48,0,0,1,.14.82,2.13,2.13,0,0,1-.19.9,1.93,1.93,0,0,1-.48.64,2.15,2.15,0,0,1-.66.37,2,2,0,0,1-.71.13,2.2,2.2,0,0,1-1.17-.29,2,2,0,0,1-.74-.79l.56-.28a1.79,1.79,0,0,0,.22.34,1.74,1.74,0,0,0,.32.28,1.76,1.76,0,0,0,.39.19,1.54,1.54,0,0,0,.42.07,1.42,1.42,0,0,0,.47-.1,1.63,1.63,0,0,0,.47-.28,1.78,1.78,0,0,0,.36-.48,1.57,1.57,0,0,0,.14-.67,1.73,1.73,0,0,0-.12-.64,1.57,1.57,0,0,0-.85-.88,1.45,1.45,0,0,0-.63-.13,1.93,1.93,0,0,0-.67.12,2.55,2.55,0,0,0-.59.31l.05-3.25h3.14Z"/><path class="cls-2" d="M224.55,42.49a1.68,1.68,0,0,1,.13-.68,1.64,1.64,0,0,1,.37-.52,2,2,0,0,1,.56-.34A2,2,0,0,1,227,41a2,2,0,0,1,.56.34,1.64,1.64,0,0,1,.37.52,1.68,1.68,0,0,1,.13.68,1.31,1.31,0,0,1-.07.44,2,2,0,0,1-.2.42,1.44,1.44,0,0,1-.32.33,1.15,1.15,0,0,1-.43.21h0a1.46,1.46,0,0,1,.54.22,1.76,1.76,0,0,1,.39.38,2,2,0,0,1,.24.49,2,2,0,0,1,.08.55,1.94,1.94,0,0,1-.15.78,1.67,1.67,0,0,1-.42.59,1.85,1.85,0,0,1-.62.38,2.44,2.44,0,0,1-1.57,0,1.85,1.85,0,0,1-.62-.38,1.67,1.67,0,0,1-.42-.59,1.94,1.94,0,0,1-.15-.78,1.67,1.67,0,0,1,.09-.55,1.69,1.69,0,0,1,.23-.49,1.76,1.76,0,0,1,.39-.38,1.46,1.46,0,0,1,.54-.22h0a1.15,1.15,0,0,1-.43-.21,1.44,1.44,0,0,1-.32-.33,2,2,0,0,1-.2-.42,1.31,1.31,0,0,1-.07-.44m.37,3a1.4,1.4,0,0,0,.1.54,1.27,1.27,0,0,0,.28.44,1.19,1.19,0,0,0,.43.3,1.27,1.27,0,0,0,.56.11,1.32,1.32,0,0,0,.57-.11,1.19,1.19,0,0,0,.43-.3,1.27,1.27,0,0,0,.28-.44,1.4,1.4,0,0,0,.1-.54,1.32,1.32,0,0,0-.11-.57,1.35,1.35,0,0,0-.29-.44,1.21,1.21,0,0,0-.44-.29,1.53,1.53,0,0,0-.54-.1,1.62,1.62,0,0,0-.54.1,1.26,1.26,0,0,0-.43.29A1.35,1.35,0,0,0,225,45a1.32,1.32,0,0,0-.11.57m.22-3a1.13,1.13,0,0,0,.09.45,1.16,1.16,0,0,0,.23.37,1,1,0,0,0,.36.25,1.15,1.15,0,0,0,.94,0,1,1,0,0,0,.37-.25,1.16,1.16,0,0,0,.23-.37,1.13,1.13,0,0,0,.09-.45,1.11,1.11,0,0,0-.33-.85,1.16,1.16,0,0,0-.83-.32,1.14,1.14,0,0,0-.82.32,1.11,1.11,0,0,0-.33.85"/><path class="cls-2" d="M279.78,29.63a.4.4,0,0,1,.12-.29.4.4,0,0,1,.69.29.42.42,0,0,1-.11.29.41.41,0,0,1-.58,0,.38.38,0,0,1-.12-.29m.14,1.65h.54v4.16h-.54Z"/><path class="cls-2" d="M281.9,32.45c0-.08,0-.17,0-.28s0-.23,0-.34,0-.22,0-.32,0-.18,0-.23h.54c0,.15,0,.31,0,.45a1.43,1.43,0,0,0,0,.28h0a1.44,1.44,0,0,1,.54-.59,1.52,1.52,0,0,1,.88-.25,1.79,1.79,0,0,1,.79.15,1.29,1.29,0,0,1,.48.4,1.6,1.6,0,0,1,.25.58,3.52,3.52,0,0,1,.06.66v2.48h-.54V33a2.63,2.63,0,0,0,0-.49,1.23,1.23,0,0,0-.16-.43.89.89,0,0,0-.31-.3,1.16,1.16,0,0,0-.53-.11,1.47,1.47,0,0,0-.56.1,1.13,1.13,0,0,0-.46.32,1.52,1.52,0,0,0-.31.53,2.37,2.37,0,0,0-.11.75v2.08h-.54Z"/><path class="cls-2" d="M287.12,31.77h-.86v-.49h.86V29.92a1.64,1.64,0,0,1,.12-.67,1.27,1.27,0,0,1,.3-.43,1.16,1.16,0,0,1,.4-.23,1.64,1.64,0,0,1,.42-.06,1.58,1.58,0,0,1,.62.1l-.11.47a1.08,1.08,0,0,0-.48-.09c-.49,0-.73.37-.73,1.11v1.16h1v.49h-1v3.67h-.54Z"/><path class="cls-2" d="M289.15,33.36a2.5,2.5,0,0,1,.16-.88,2,2,0,0,1,1.15-1.15,2.5,2.5,0,0,1,1.76,0,2.14,2.14,0,0,1,.69.46,1.8,1.8,0,0,1,.45.69,2.36,2.36,0,0,1,0,1.76,2,2,0,0,1-.45.69,2.11,2.11,0,0,1-.69.45,2.36,2.36,0,0,1-1.76,0,2.05,2.05,0,0,1-.7-.45,2.29,2.29,0,0,1-.45-.69,2.5,2.5,0,0,1-.16-.88m.54,0a1.84,1.84,0,0,0,.12.66,1.46,1.46,0,0,0,.32.54,1.51,1.51,0,0,0,.53.36,1.72,1.72,0,0,0,1.36,0,1.51,1.51,0,0,0,.53-.36,1.46,1.46,0,0,0,.32-.54,1.84,1.84,0,0,0,.12-.66,1.76,1.76,0,0,0-.12-.66,1.46,1.46,0,0,0-.32-.54,1.54,1.54,0,0,0-.53-.37,1.84,1.84,0,0,0-1.36,0,1.54,1.54,0,0,0-.53.37,1.46,1.46,0,0,0-.32.54,1.76,1.76,0,0,0-.12.66"/><path class="cls-2" d="M298.65,34.11a1.45,1.45,0,0,0-.07.26.67.67,0,0,0,0,.17.28.28,0,0,0,0,.15c0,.06.09.08.19.08a.76.76,0,0,0,.49-.2,2.14,2.14,0,0,0,.48-.51,2.79,2.79,0,0,0,.35-.69,2.09,2.09,0,0,0,.14-.77,2,2,0,0,0-.21-.92,2.08,2.08,0,0,0-.57-.71,2.55,2.55,0,0,0-.82-.47,2.9,2.9,0,0,0-1-.16,2.87,2.87,0,0,0-1.14.23,3.11,3.11,0,0,0-.91.64,3,3,0,0,0-.6.93,3,3,0,0,0-.21,1.1,2.9,2.9,0,0,0,.22,1.14,3,3,0,0,0,1.53,1.56,2.89,2.89,0,0,0,1.13.23,2.5,2.5,0,0,0,.66-.09,3.14,3.14,0,0,0,.64-.25,2.94,2.94,0,0,0,.55-.37A2.74,2.74,0,0,0,300,35h.52a2.58,2.58,0,0,1-.51.67,3.3,3.3,0,0,1-.67.51,3.66,3.66,0,0,1-.79.33,3.32,3.32,0,0,1-.83.11,3.49,3.49,0,0,1-1.35-.26,3.26,3.26,0,0,1-1.77-1.78,3.41,3.41,0,0,1-.25-1.32,3.33,3.33,0,0,1,1-2.37,3.24,3.24,0,0,1,1.06-.71,3.32,3.32,0,0,1,1.3-.26,3.47,3.47,0,0,1,1.22.21,3.28,3.28,0,0,1,1,.57,2.54,2.54,0,0,1,.64.85,2.43,2.43,0,0,1,.24,1.07,2.8,2.8,0,0,1-.19,1,2.88,2.88,0,0,1-.48.84,2.43,2.43,0,0,1-.68.57,1.66,1.66,0,0,1-.76.2.54.54,0,0,1-.39-.15.59.59,0,0,1-.17-.46h0a1.77,1.77,0,0,1-.5.42,1.33,1.33,0,0,1-.67.19,1.25,1.25,0,0,1-.53-.11.93.93,0,0,1-.37-.28,1.19,1.19,0,0,1-.23-.43,1.42,1.42,0,0,1-.08-.5,3.11,3.11,0,0,1,.57-1.78,2.41,2.41,0,0,1,.67-.6,1.64,1.64,0,0,1,.88-.24,1.08,1.08,0,0,1,.57.17,1.07,1.07,0,0,1,.39.58h0l.21-.57h.54Zm-2.44-.19a.91.91,0,0,0,.2.61.7.7,0,0,0,.56.24,1,1,0,0,0,.59-.21,1.84,1.84,0,0,0,.49-.51,3.18,3.18,0,0,0,.32-.67,2,2,0,0,0,.12-.65,1.09,1.09,0,0,0-.18-.67.62.62,0,0,0-.55-.25,1,1,0,0,0-.63.21,2,2,0,0,0-.49.52,2.72,2.72,0,0,0-.32.69,2.48,2.48,0,0,0-.11.69"/><path class="cls-2" d="M305,33.69c0,.21,0,.39,0,.55s0,.31,0,.45,0,.27,0,.39a2.2,2.2,0,0,0,0,.36h-.51a4.72,4.72,0,0,1-.05-.68h0a1.6,1.6,0,0,1-.58.6,1.88,1.88,0,0,1-.88.19,2.41,2.41,0,0,1-.53-.07,1.56,1.56,0,0,1-.47-.22,1,1,0,0,1-.33-.38,1.24,1.24,0,0,1,.11-1.32,1.42,1.42,0,0,1,.6-.42,2.58,2.58,0,0,1,.75-.18,6.32,6.32,0,0,1,.71,0h.63v-.26a.89.89,0,0,0-.33-.77,1.51,1.51,0,0,0-.84-.23,1.87,1.87,0,0,0-1.27.47l-.32-.37a2,2,0,0,1,.74-.44,2.68,2.68,0,0,1,.85-.15,1.87,1.87,0,0,1,1.2.36,1.36,1.36,0,0,1,.45,1.14Zm-1.08-.34a4.89,4.89,0,0,0-.66,0,2,2,0,0,0-.57.15,1,1,0,0,0-.41.29.69.69,0,0,0-.16.45.6.6,0,0,0,.09.33.88.88,0,0,0,.22.25,1,1,0,0,0,.3.14,1.33,1.33,0,0,0,.34.05,1.64,1.64,0,0,0,.71-.13,1.26,1.26,0,0,0,.45-.32,1.33,1.33,0,0,0,.23-.46,2.31,2.31,0,0,0,.06-.52v-.28Z"/><path class="cls-2" d="M306.22,31.28h.54V32h0a1.26,1.26,0,0,1,.31-.38,2.19,2.19,0,0,1,.41-.26,1.9,1.9,0,0,1,.46-.15,2.7,2.7,0,0,1,.48,0,2.3,2.3,0,0,1,.88.16,2,2,0,0,1,.69.46,1.94,1.94,0,0,1,.46.69,2.5,2.5,0,0,1,0,1.76,2.14,2.14,0,0,1-.46.69,2,2,0,0,1-.69.45,2.3,2.3,0,0,1-.88.17,2.7,2.7,0,0,1-.48,0,2.51,2.51,0,0,1-.46-.16,1.77,1.77,0,0,1-.41-.26,1.23,1.23,0,0,1-.31-.37h0v2.78h-.54Zm.48,2.08a1.66,1.66,0,0,0,.14.66,1.58,1.58,0,0,0,.37.54,1.59,1.59,0,0,0,.55.36,1.69,1.69,0,0,0,.68.14,1.65,1.65,0,0,0,.68-.14,1.51,1.51,0,0,0,.53-.36A1.46,1.46,0,0,0,310,34a1.84,1.84,0,0,0,.12-.66,1.76,1.76,0,0,0-.12-.66,1.46,1.46,0,0,0-.32-.54,1.54,1.54,0,0,0-.53-.37,1.65,1.65,0,0,0-.68-.13,1.68,1.68,0,0,0-.68.13,1.62,1.62,0,0,0-.55.37,1.58,1.58,0,0,0-.37.54,1.59,1.59,0,0,0-.14.66"/><path class="cls-2" d="M311.74,32.45c0-.08,0-.17,0-.28s0-.23,0-.34,0-.22,0-.32a2.2,2.2,0,0,1,0-.23h.54c0,.15,0,.31,0,.45s0,.24,0,.28a1.74,1.74,0,0,1,.54-.6,1.28,1.28,0,0,1,.79-.24h.16l.15,0-.06.53a.52.52,0,0,0-.21,0,1.57,1.57,0,0,0-.6.11,1.08,1.08,0,0,0-.43.32,1.36,1.36,0,0,0-.25.46,2.07,2.07,0,0,0-.08.57v2.27h-.54Z"/><path class="cls-2" d="M314.25,33.36a2.3,2.3,0,0,1,.17-.88,1.8,1.8,0,0,1,.45-.69,1.94,1.94,0,0,1,.69-.46,2.5,2.5,0,0,1,1.76,0,2,2,0,0,1,.69.46,1.94,1.94,0,0,1,.46.69,2.5,2.5,0,0,1,0,1.76,2.14,2.14,0,0,1-.46.69,2,2,0,0,1-.69.45,2.36,2.36,0,0,1-1.76,0,1.92,1.92,0,0,1-.69-.45,2,2,0,0,1-.45-.69,2.3,2.3,0,0,1-.17-.88m.54,0a1.84,1.84,0,0,0,.12.66,1.46,1.46,0,0,0,.32.54,1.51,1.51,0,0,0,.53.36,1.72,1.72,0,0,0,1.36,0,1.51,1.51,0,0,0,.53-.36A1.63,1.63,0,0,0,318,34a2.08,2.08,0,0,0,.11-.66,2,2,0,0,0-.11-.66,1.63,1.63,0,0,0-.33-.54,1.54,1.54,0,0,0-.53-.37,1.84,1.84,0,0,0-1.36,0,1.54,1.54,0,0,0-.53.37,1.46,1.46,0,0,0-.32.54,1.76,1.76,0,0,0-.12.66"/><path class="cls-2" d="M319.7,29.63a.4.4,0,0,1,.12-.29.39.39,0,0,1,.28-.11.42.42,0,0,1,.29.11.4.4,0,0,1,.12.29.41.41,0,0,1-.41.41.36.36,0,0,1-.28-.12.38.38,0,0,1-.12-.29m.13,1.65h.54v4.16h-.54Z"/><path class="cls-2" d="M323.85,31.77h-1.19v2.71a.52.52,0,0,0,.58.58,1.15,1.15,0,0,0,.31,0,1.82,1.82,0,0,0,.3-.11l0,.49a2.47,2.47,0,0,1-.35.1,1.63,1.63,0,0,1-.35,0,1.19,1.19,0,0,1-.49-.09.93.93,0,0,1-.34-.23,1,1,0,0,1-.18-.34,1.4,1.4,0,0,1-.06-.41V31.77h-.9v-.49h.9v-1.2h.54v1.2h1.19Z"/><path class="cls-2" d="M324.73,34.38a1.1,1.1,0,0,0,.5.5,1.5,1.5,0,0,0,.71.18,1.4,1.4,0,0,0,.34-.05,1.08,1.08,0,0,0,.3-.16.64.64,0,0,0,.22-.24.54.54,0,0,0,.09-.31.53.53,0,0,0-.18-.44,1.51,1.51,0,0,0-.46-.22,4.65,4.65,0,0,0-.59-.14,2.63,2.63,0,0,1-.6-.18,1.28,1.28,0,0,1-.45-.34.93.93,0,0,1-.19-.61,1.12,1.12,0,0,1,.13-.53,1.1,1.1,0,0,1,.33-.38,1.45,1.45,0,0,1,.45-.22,1.81,1.81,0,0,1,.52-.07,1.87,1.87,0,0,1,.88.19,1.38,1.38,0,0,1,.58.59l-.48.29a1,1,0,0,0-.39-.43,1.05,1.05,0,0,0-.59-.15,1.15,1.15,0,0,0-.31,0,.9.9,0,0,0-.28.13.8.8,0,0,0-.21.2.52.52,0,0,0-.09.29.5.5,0,0,0,.19.42,1.34,1.34,0,0,0,.45.21c.18,0,.38.09.6.13a1.93,1.93,0,0,1,.59.18,1.2,1.2,0,0,1,.46.35,1,1,0,0,1,.18.65,1.22,1.22,0,0,1-.12.56,1.16,1.16,0,0,1-.33.4,1.74,1.74,0,0,1-.49.25,2,2,0,0,1-.56.08,2.31,2.31,0,0,1-1-.21,1.53,1.53,0,0,1-.69-.64Z"/><path class="cls-2" d="M328.23,33.36a2.5,2.5,0,0,1,.16-.88,2,2,0,0,1,1.15-1.15,2.3,2.3,0,0,1,.88-.16,2.21,2.21,0,0,1,.87.16,2,2,0,0,1,1.15,1.15,2.28,2.28,0,0,1-.45,2.45,2.05,2.05,0,0,1-.7.45,2.21,2.21,0,0,1-.87.17,2.3,2.3,0,0,1-.88-.17,2.05,2.05,0,0,1-.7-.45,2.29,2.29,0,0,1-.45-.69,2.5,2.5,0,0,1-.16-.88m.54,0a2.08,2.08,0,0,0,.11.66,1.63,1.63,0,0,0,.33.54,1.57,1.57,0,0,0,.52.36,1.74,1.74,0,0,0,.69.14,1.65,1.65,0,0,0,.68-.14,1.39,1.39,0,0,0,.52-.36A1.36,1.36,0,0,0,332,34a1.83,1.83,0,0,0,.11-.66,1.76,1.76,0,0,0-.11-.66,1.36,1.36,0,0,0-.33-.54,1.41,1.41,0,0,0-.52-.37,1.65,1.65,0,0,0-.68-.13,1.73,1.73,0,0,0-.69.13,1.59,1.59,0,0,0-.52.37,1.63,1.63,0,0,0-.33.54,2,2,0,0,0-.11.66"/><rect class="cls-2" x="333.81" y="28.63" width="0.54" height="6.81"/><path class="cls-2" d="M339.31,34.27c0,.08,0,.17,0,.28s0,.22,0,.34,0,.22,0,.32,0,.17,0,.23h-.54c0-.16,0-.31,0-.45a1.35,1.35,0,0,0,0-.28h0a1.51,1.51,0,0,1-.54.59,1.59,1.59,0,0,1-.88.24,1.87,1.87,0,0,1-.8-.15,1.19,1.19,0,0,1-.48-.4,1.33,1.33,0,0,1-.24-.57,3.71,3.71,0,0,1-.06-.67V31.28h.54v2.45a2.63,2.63,0,0,0,0,.49,1.23,1.23,0,0,0,.16.43.89.89,0,0,0,.31.3,1.16,1.16,0,0,0,.53.11,1.3,1.3,0,0,0,.56-.11,1.11,1.11,0,0,0,.46-.31,1.61,1.61,0,0,0,.31-.53,2.37,2.37,0,0,0,.11-.75V31.28h.54Z"/><path class="cls-2" d="M342.74,31.77h-1.19v2.71a.59.59,0,0,0,.15.43.61.61,0,0,0,.43.15,1.15,1.15,0,0,0,.31,0,1.82,1.82,0,0,0,.3-.11l0,.49a2.47,2.47,0,0,1-.35.1,1.63,1.63,0,0,1-.35,0,1.19,1.19,0,0,1-.49-.09.93.93,0,0,1-.34-.23,1,1,0,0,1-.18-.34,1.4,1.4,0,0,1-.06-.41V31.77h-.9v-.49h.9v-1.2h.54v1.2h1.19Z"/><path class="cls-2" d="M343.58,29.63a.39.39,0,0,1,.11-.29.44.44,0,0,1,.29-.11.42.42,0,0,1,.29.11.4.4,0,0,1,.12.29A.41.41,0,0,1,344,30a.4.4,0,0,1-.29-.12.38.38,0,0,1-.11-.29m.13,1.65h.54v4.16h-.54Z"/><path class="cls-2" d="M345.46,33.36a2.3,2.3,0,0,1,.16-.88,2.06,2.06,0,0,1,.45-.69,1.94,1.94,0,0,1,.69-.46,2.33,2.33,0,0,1,.88-.16,2.3,2.3,0,0,1,.88.16,2.11,2.11,0,0,1,1.15,1.15,2.5,2.5,0,0,1,0,1.76,2.14,2.14,0,0,1-.46.69,1.92,1.92,0,0,1-.69.45,2.3,2.3,0,0,1-.88.17,2.34,2.34,0,0,1-.88-.17,1.92,1.92,0,0,1-.69-.45,2.17,2.17,0,0,1-.61-1.57m.54,0a1.83,1.83,0,0,0,.11.66,1.36,1.36,0,0,0,.33.54,1.47,1.47,0,0,0,.52.36,1.65,1.65,0,0,0,.68.14,1.7,1.7,0,0,0,.69-.14,1.47,1.47,0,0,0,.52-.36,1.63,1.63,0,0,0,.33-.54,2.08,2.08,0,0,0,.11-.66,2,2,0,0,0-.11-.66,1.63,1.63,0,0,0-.33-.54,1.5,1.5,0,0,0-.52-.37,1.7,1.7,0,0,0-.69-.13,1.65,1.65,0,0,0-.68.13,1.5,1.5,0,0,0-.52.37,1.36,1.36,0,0,0-.33.54,1.76,1.76,0,0,0-.11.66"/><path class="cls-2" d="M351,32.45c0-.08,0-.17,0-.28s0-.23,0-.34,0-.22,0-.32a2.2,2.2,0,0,1,0-.23h.54c0,.15,0,.31,0,.45a1.43,1.43,0,0,0,0,.28h0a1.44,1.44,0,0,1,.54-.59,1.57,1.57,0,0,1,.89-.25,1.82,1.82,0,0,1,.79.15,1.47,1.47,0,0,1,.48.4,1.43,1.43,0,0,1,.24.58,2.84,2.84,0,0,1,.07.66v2.48H354V33a2.63,2.63,0,0,0,0-.49,1.47,1.47,0,0,0-.16-.43.93.93,0,0,0-.32-.3,1.11,1.11,0,0,0-.52-.11,1.56,1.56,0,0,0-.57.1,1.1,1.1,0,0,0-.45.32,1.38,1.38,0,0,0-.31.53,2.12,2.12,0,0,0-.11.75v2.08H351Z"/><path class="cls-2" d="M355.87,34.38a1.1,1.1,0,0,0,.5.5,1.5,1.5,0,0,0,.71.18,1.4,1.4,0,0,0,.34-.05,1.08,1.08,0,0,0,.3-.16.64.64,0,0,0,.22-.24.54.54,0,0,0,.09-.31.53.53,0,0,0-.18-.44,1.51,1.51,0,0,0-.46-.22,4.65,4.65,0,0,0-.59-.14,2.63,2.63,0,0,1-.6-.18,1.28,1.28,0,0,1-.45-.34.93.93,0,0,1-.19-.61,1.12,1.12,0,0,1,.13-.53,1.1,1.1,0,0,1,.33-.38,1.45,1.45,0,0,1,.45-.22,1.81,1.81,0,0,1,.52-.07,1.87,1.87,0,0,1,.88.19,1.38,1.38,0,0,1,.58.59l-.48.29a1.09,1.09,0,0,0-.39-.43,1.05,1.05,0,0,0-.59-.15,1.15,1.15,0,0,0-.31,0,.9.9,0,0,0-.28.13.8.8,0,0,0-.21.2.52.52,0,0,0-.09.29.5.5,0,0,0,.19.42,1.34,1.34,0,0,0,.45.21c.18,0,.38.09.6.13a1.93,1.93,0,0,1,.59.18,1.2,1.2,0,0,1,.46.35,1,1,0,0,1,.18.65,1.22,1.22,0,0,1-.12.56,1.16,1.16,0,0,1-.33.4,1.74,1.74,0,0,1-.49.25,2,2,0,0,1-.56.08,2.31,2.31,0,0,1-1-.21,1.53,1.53,0,0,1-.69-.64Z"/><path class="cls-2" d="M359.62,35.06a.43.43,0,0,1,.44-.43.41.41,0,0,1,.3.12.43.43,0,0,1,0,.62.41.41,0,0,1-.3.12.43.43,0,0,1-.44-.43"/><path class="cls-2" d="M365.34,34.83a2.1,2.1,0,0,1-.7.54,1.9,1.9,0,0,1-.83.18,2.26,2.26,0,0,1-.88-.17,2,2,0,0,1-.7-.45,2.38,2.38,0,0,1-.45-2.45,2.06,2.06,0,0,1,.45-.69,1.9,1.9,0,0,1,.7-.46,2.26,2.26,0,0,1,.88-.16,1.89,1.89,0,0,1,.85.19,2.36,2.36,0,0,1,.7.53l-.44.33a1.85,1.85,0,0,0-.51-.42,1.39,1.39,0,0,0-.6-.14,1.73,1.73,0,0,0-.69.13,1.5,1.5,0,0,0-.52.37,1.63,1.63,0,0,0-.33.54,2,2,0,0,0-.11.66,2.08,2.08,0,0,0,.11.66,1.58,1.58,0,0,0,.85.91,1.93,1.93,0,0,0,.69.13,1.22,1.22,0,0,0,.62-.16,1.51,1.51,0,0,0,.49-.42Z"/><path class="cls-2" d="M365.86,33.36a2.3,2.3,0,0,1,.16-.88,2.06,2.06,0,0,1,.45-.69,1.94,1.94,0,0,1,.69-.46,2.35,2.35,0,0,1,.89-.16,2.25,2.25,0,0,1,.87.16,2,2,0,0,1,1.15,1.15,2.28,2.28,0,0,1-.45,2.45,2.05,2.05,0,0,1-.7.45,2.25,2.25,0,0,1-.87.17,2.35,2.35,0,0,1-.89-.17,1.92,1.92,0,0,1-.69-.45,2.17,2.17,0,0,1-.61-1.57m.54,0a2.08,2.08,0,0,0,.11.66,1.63,1.63,0,0,0,.33.54,1.47,1.47,0,0,0,.52.36,1.7,1.7,0,0,0,.69.14,1.65,1.65,0,0,0,.68-.14,1.47,1.47,0,0,0,.52-.36,1.36,1.36,0,0,0,.33-.54,1.83,1.83,0,0,0,.11-.66,1.76,1.76,0,0,0-.11-.66,1.36,1.36,0,0,0-.33-.54,1.5,1.5,0,0,0-.52-.37,1.65,1.65,0,0,0-.68-.13,1.7,1.7,0,0,0-.69.13,1.5,1.5,0,0,0-.52.37,1.63,1.63,0,0,0-.33.54,2,2,0,0,0-.11.66"/><path class="cls-2" d="M371.35,32.45c0-.08,0-.17,0-.28s0-.23,0-.34,0-.22,0-.32,0-.18,0-.23h.54c0,.15,0,.31,0,.45a1.43,1.43,0,0,0,0,.28h0a1.44,1.44,0,0,1,.54-.59,1.52,1.52,0,0,1,.88-.25,1.37,1.37,0,0,1,.75.21,1.18,1.18,0,0,1,.5.69,1.33,1.33,0,0,1,.59-.68,1.6,1.6,0,0,1,.82-.22,1.84,1.84,0,0,1,.8.15,1.47,1.47,0,0,1,.48.4,1.77,1.77,0,0,1,.24.58,3.51,3.51,0,0,1,.07.66v2.48H377V33a2.63,2.63,0,0,0-.05-.49,1.23,1.23,0,0,0-.16-.43.89.89,0,0,0-.31-.3,1.39,1.39,0,0,0-1.15,0,1.07,1.07,0,0,0-.38.35,1.63,1.63,0,0,0-.2.47,2.1,2.1,0,0,0-.06.48v2.34h-.54V32.93A1.77,1.77,0,0,0,374,32a.7.7,0,0,0-.65-.35,1.47,1.47,0,0,0-.56.1,1.13,1.13,0,0,0-.46.32,1.52,1.52,0,0,0-.31.53,2.37,2.37,0,0,0-.11.75v2.08h-.54Z"/><polygon class="cls-2" points="279.78 43.28 280.38 43.28 281.39 46.76 281.4 46.76 282.56 43.28 283.08 43.28 284.31 46.76 284.33 46.76 285.31 43.28 285.85 43.28 284.63 47.44 284.07 47.44 282.83 44.04 282.81 44.04 281.65 47.44 281.09 47.44 279.78 43.28"/><polygon class="cls-2" points="286.03 43.28 286.62 43.28 287.63 46.76 287.65 46.76 288.81 43.28 289.32 43.28 290.56 46.76 290.57 46.76 291.56 43.28 292.1 43.28 290.87 47.44 290.31 47.44 289.07 44.04 289.05 44.04 287.89 47.44 287.33 47.44 286.03 43.28"/><polygon class="cls-2" points="292.28 43.28 292.87 43.28 293.88 46.76 293.9 46.76 295.06 43.28 295.57 43.28 296.8 46.76 296.82 46.76 297.8 43.28 298.34 43.28 297.12 47.44 296.56 47.44 295.32 44.04 295.3 44.04 294.14 47.44 293.58 47.44 292.28 43.28"/><path class="cls-2" d="M298.63,47.06a.42.42,0,0,1,.13-.31.41.41,0,0,1,.3-.12.43.43,0,1,1,0,.86.41.41,0,0,1-.3-.12.42.42,0,0,1-.13-.31"/><path class="cls-2" d="M304.09,45.69c0,.21,0,.39,0,.55s0,.31,0,.45,0,.27,0,.39,0,.24,0,.36h-.5a3.62,3.62,0,0,1-.05-.68h0a1.6,1.6,0,0,1-.58.6,1.91,1.91,0,0,1-.88.19,2.33,2.33,0,0,1-.53-.07,1.56,1.56,0,0,1-.47-.22,1.14,1.14,0,0,1-.34-.38,1.23,1.23,0,0,1-.13-.57,1.06,1.06,0,0,1,.25-.75,1.46,1.46,0,0,1,.59-.42,2.72,2.72,0,0,1,.76-.18,6.32,6.32,0,0,1,.71,0h.63v-.26a.87.87,0,0,0-.34-.77,1.45,1.45,0,0,0-.83-.23,1.85,1.85,0,0,0-1.27.47l-.32-.37a2,2,0,0,1,.74-.44,2.63,2.63,0,0,1,.85-.15,1.87,1.87,0,0,1,1.2.36,1.36,1.36,0,0,1,.45,1.14ZM303,45.35a4.65,4.65,0,0,0-.66,0,2,2,0,0,0-.57.15,1,1,0,0,0-.41.29.64.64,0,0,0-.16.45.6.6,0,0,0,.09.33.88.88,0,0,0,.22.25,1,1,0,0,0,.3.14,1.27,1.27,0,0,0,.34.05,1.64,1.64,0,0,0,.71-.13,1.14,1.14,0,0,0,.44-.32,1.05,1.05,0,0,0,.23-.46,1.86,1.86,0,0,0,.07-.52v-.28Z"/><path class="cls-2" d="M305.33,43.28h.54V44h0a1.47,1.47,0,0,1,.32-.38,2.19,2.19,0,0,1,.41-.26,1.9,1.9,0,0,1,.46-.15,2.61,2.61,0,0,1,.48,0,2.3,2.3,0,0,1,.88.16,2.14,2.14,0,0,1,.69.46,1.92,1.92,0,0,1,.45.69,2.36,2.36,0,0,1,0,1.76,2,2,0,0,1-1.14,1.14,2.3,2.3,0,0,1-.88.17,2.61,2.61,0,0,1-.48,0,2.51,2.51,0,0,1-.46-.16,1.77,1.77,0,0,1-.41-.26,1.42,1.42,0,0,1-.32-.37h0v2.78h-.54Zm.48,2.08A1.66,1.66,0,0,0,306,46a1.58,1.58,0,0,0,.37.54,1.59,1.59,0,0,0,.55.36,1.69,1.69,0,0,0,.68.14,1.65,1.65,0,0,0,.68-.14,1.51,1.51,0,0,0,.53-.36,1.46,1.46,0,0,0,.32-.54,1.84,1.84,0,0,0,.12-.66,1.76,1.76,0,0,0-.12-.66,1.46,1.46,0,0,0-.32-.54,1.54,1.54,0,0,0-.53-.37,1.65,1.65,0,0,0-.68-.13,1.68,1.68,0,0,0-.68.13,1.62,1.62,0,0,0-.55.37,1.58,1.58,0,0,0-.37.54,1.59,1.59,0,0,0-.14.66"/><path class="cls-2" d="M310.85,44.45c0-.08,0-.17,0-.28s0-.23,0-.34,0-.22,0-.32a2.2,2.2,0,0,1,0-.23h.54c0,.15,0,.31,0,.45a1.43,1.43,0,0,0,0,.28,1.82,1.82,0,0,1,.53-.6,1.31,1.31,0,0,1,.8-.24h.15l.16,0-.06.53a.52.52,0,0,0-.21,0,1.66,1.66,0,0,0-.61.11,1.12,1.12,0,0,0-.42.32,1.36,1.36,0,0,0-.25.46,2.07,2.07,0,0,0-.08.57v2.27h-.54Z"/><path class="cls-2" d="M313.36,45.36a2.3,2.3,0,0,1,.17-.88,1.8,1.8,0,0,1,.45-.69,1.94,1.94,0,0,1,.69-.46,2.5,2.5,0,0,1,1.76,0,2,2,0,0,1,.69.46,1.94,1.94,0,0,1,.46.69,2.5,2.5,0,0,1,0,1.76,2.14,2.14,0,0,1-.46.69,2,2,0,0,1-.69.45,2.36,2.36,0,0,1-1.76,0,1.92,1.92,0,0,1-.69-.45,2,2,0,0,1-.45-.69,2.3,2.3,0,0,1-.17-.88m.54,0A1.84,1.84,0,0,0,314,46a1.46,1.46,0,0,0,.32.54,1.51,1.51,0,0,0,.53.36,1.72,1.72,0,0,0,1.36,0,1.51,1.51,0,0,0,.53-.36,1.63,1.63,0,0,0,.33-.54,2.08,2.08,0,0,0,.11-.66,2,2,0,0,0-.11-.66,1.63,1.63,0,0,0-.33-.54,1.54,1.54,0,0,0-.53-.37,1.84,1.84,0,0,0-1.36,0,1.54,1.54,0,0,0-.53.37,1.46,1.46,0,0,0-.32.54,1.76,1.76,0,0,0-.12.66"/><path class="cls-2" d="M318.81,41.63a.4.4,0,0,1,.12-.29.39.39,0,0,1,.28-.11.42.42,0,0,1,.29.11.4.4,0,0,1,.12.29.41.41,0,0,1-.41.41.36.36,0,0,1-.28-.12.38.38,0,0,1-.12-.29m.13,1.65h.54v4.16h-.54Z"/><path class="cls-2" d="M323,43.77h-1.19v2.71a.59.59,0,0,0,.15.43.58.58,0,0,0,.43.15,1.15,1.15,0,0,0,.31,0,1.82,1.82,0,0,0,.3-.11l0,.49a2.47,2.47,0,0,1-.35.1,1.63,1.63,0,0,1-.35,0,1.19,1.19,0,0,1-.49-.09.93.93,0,0,1-.34-.23,1,1,0,0,1-.18-.34,1.4,1.4,0,0,1-.06-.41V43.77h-.9v-.49h.9v-1.2h.54v1.2H323Z"/><path class="cls-2" d="M323.84,46.38a1.1,1.1,0,0,0,.5.5,1.49,1.49,0,0,0,.7.18,1.41,1.41,0,0,0,.35-.05,1.08,1.08,0,0,0,.3-.16.64.64,0,0,0,.22-.24.54.54,0,0,0,.09-.31.51.51,0,0,0-.19-.44,1.35,1.35,0,0,0-.45-.22,4.65,4.65,0,0,0-.59-.14,2.63,2.63,0,0,1-.6-.18,1.28,1.28,0,0,1-.45-.34.88.88,0,0,1-.19-.61,1,1,0,0,1,.13-.53,1.1,1.1,0,0,1,.33-.38,1.35,1.35,0,0,1,.45-.22,1.79,1.79,0,0,1,.51-.07,1.89,1.89,0,0,1,.89.19,1.38,1.38,0,0,1,.58.59l-.48.29a1.09,1.09,0,0,0-.39-.43,1.07,1.07,0,0,0-.6-.15,1.13,1.13,0,0,0-.3,0,.9.9,0,0,0-.28.13.8.8,0,0,0-.21.2.52.52,0,0,0-.09.29.47.47,0,0,0,.19.42,1.34,1.34,0,0,0,.45.21c.18,0,.38.09.6.13a1.93,1.93,0,0,1,.59.18,1.1,1.1,0,0,1,.45.35,1,1,0,0,1,.19.65,1.22,1.22,0,0,1-.12.56,1.09,1.09,0,0,1-.34.4,1.57,1.57,0,0,1-.48.25,2.1,2.1,0,0,1-.56.08,2.31,2.31,0,0,1-1-.21,1.48,1.48,0,0,1-.69-.64Z"/><path class="cls-2" d="M327.34,45.36a2.3,2.3,0,0,1,.16-.88,2.06,2.06,0,0,1,.45-.69,1.9,1.9,0,0,1,.7-.46,2.47,2.47,0,0,1,1.75,0,2,2,0,0,1,1.15,1.15,2.28,2.28,0,0,1-.45,2.45,2.05,2.05,0,0,1-.7.45,2.34,2.34,0,0,1-1.75,0,1.88,1.88,0,0,1-.7-.45,2.17,2.17,0,0,1-.61-1.57m.54,0A2.08,2.08,0,0,0,328,46a1.63,1.63,0,0,0,.33.54,1.47,1.47,0,0,0,.52.36,1.74,1.74,0,0,0,.69.14,1.65,1.65,0,0,0,.68-.14,1.47,1.47,0,0,0,.52-.36,1.36,1.36,0,0,0,.33-.54,1.83,1.83,0,0,0,.11-.66,1.76,1.76,0,0,0-.11-.66,1.36,1.36,0,0,0-.33-.54,1.5,1.5,0,0,0-.52-.37,1.65,1.65,0,0,0-.68-.13,1.73,1.73,0,0,0-.69.13,1.5,1.5,0,0,0-.52.37,1.63,1.63,0,0,0-.33.54,2,2,0,0,0-.11.66"/><rect class="cls-2" x="332.92" y="40.63" width="0.54" height="6.81"/><path class="cls-2" d="M338.42,46.27c0,.08,0,.17,0,.28s0,.22,0,.34,0,.22,0,.32a2.11,2.11,0,0,1,0,.23h-.54c0-.16,0-.31,0-.45a1.35,1.35,0,0,0,0-.28h0a1.51,1.51,0,0,1-.54.59,1.61,1.61,0,0,1-.88.24,1.84,1.84,0,0,1-.8-.15,1.19,1.19,0,0,1-.48-.4,1.33,1.33,0,0,1-.24-.57,3.71,3.71,0,0,1-.07-.67V43.28h.54v2.45a2.63,2.63,0,0,0,.05.49,1.23,1.23,0,0,0,.16.43.89.89,0,0,0,.31.3,1.16,1.16,0,0,0,.53.11A1.33,1.33,0,0,0,337,47a1.11,1.11,0,0,0,.46-.31,1.61,1.61,0,0,0,.31-.53,2.37,2.37,0,0,0,.11-.75V43.28h.54Z"/><path class="cls-2" d="M341.85,43.77h-1.19v2.71a.52.52,0,0,0,.58.58,1.15,1.15,0,0,0,.31,0,1.82,1.82,0,0,0,.3-.11l0,.49a2.47,2.47,0,0,1-.35.1,1.63,1.63,0,0,1-.35,0,1.19,1.19,0,0,1-.49-.09.93.93,0,0,1-.34-.23,1,1,0,0,1-.18-.34,1.4,1.4,0,0,1-.06-.41V43.77h-.9v-.49h.9v-1.2h.54v1.2h1.19Z"/><path class="cls-2" d="M342.68,41.63a.4.4,0,0,1,.12-.29.44.44,0,0,1,.58,0,.39.39,0,0,1,.11.29.38.38,0,0,1-.11.29.41.41,0,0,1-.58,0,.38.38,0,0,1-.12-.29m.14,1.65h.54v4.16h-.54Z"/><path class="cls-2" d="M344.57,45.36a2.3,2.3,0,0,1,.16-.88,2.06,2.06,0,0,1,.45-.69,1.94,1.94,0,0,1,.69-.46,2.5,2.5,0,0,1,1.76,0,2.11,2.11,0,0,1,1.15,1.15,2.5,2.5,0,0,1,0,1.76,2.14,2.14,0,0,1-.46.69,1.92,1.92,0,0,1-.69.45,2.36,2.36,0,0,1-1.76,0,1.92,1.92,0,0,1-.69-.45,2.17,2.17,0,0,1-.61-1.57m.54,0a1.83,1.83,0,0,0,.11.66,1.36,1.36,0,0,0,.33.54,1.47,1.47,0,0,0,.52.36,1.65,1.65,0,0,0,.68.14,1.74,1.74,0,0,0,.69-.14,1.57,1.57,0,0,0,.52-.36,1.63,1.63,0,0,0,.33-.54,2.08,2.08,0,0,0,.11-.66,2,2,0,0,0-.11-.66,1.63,1.63,0,0,0-.33-.54,1.59,1.59,0,0,0-.52-.37,1.73,1.73,0,0,0-.69-.13,1.65,1.65,0,0,0-.68.13,1.5,1.5,0,0,0-.52.37,1.36,1.36,0,0,0-.33.54,1.76,1.76,0,0,0-.11.66"/><path class="cls-2" d="M350.06,44.45c0-.08,0-.17,0-.28s0-.23,0-.34,0-.22,0-.32a2.2,2.2,0,0,1,0-.23h.54c0,.15,0,.31,0,.45a1.2,1.2,0,0,0,0,.28h0a1.44,1.44,0,0,1,.54-.59,1.57,1.57,0,0,1,.89-.25,1.82,1.82,0,0,1,.79.15,1.47,1.47,0,0,1,.48.4,1.43,1.43,0,0,1,.24.58,2.84,2.84,0,0,1,.07.66v2.48h-.54V45a2.63,2.63,0,0,0-.05-.49,1.46,1.46,0,0,0-.15-.43.93.93,0,0,0-.32-.3,1.11,1.11,0,0,0-.52-.11,1.56,1.56,0,0,0-.57.1,1.2,1.2,0,0,0-.46.32,1.36,1.36,0,0,0-.3.53,2.12,2.12,0,0,0-.11.75v2.08h-.54Z"/><path class="cls-2" d="M355,46.38a1.1,1.1,0,0,0,.5.5,1.49,1.49,0,0,0,.7.18,1.41,1.41,0,0,0,.35-.05,1.08,1.08,0,0,0,.3-.16.64.64,0,0,0,.22-.24.54.54,0,0,0,.09-.31.51.51,0,0,0-.19-.44,1.35,1.35,0,0,0-.45-.22,4.65,4.65,0,0,0-.59-.14,2.63,2.63,0,0,1-.6-.18,1.28,1.28,0,0,1-.45-.34.88.88,0,0,1-.19-.61,1,1,0,0,1,.13-.53,1.1,1.1,0,0,1,.33-.38,1.35,1.35,0,0,1,.45-.22,1.79,1.79,0,0,1,.51-.07,1.89,1.89,0,0,1,.89.19,1.38,1.38,0,0,1,.58.59l-.48.29a1.09,1.09,0,0,0-.39-.43,1.07,1.07,0,0,0-.6-.15,1.13,1.13,0,0,0-.3,0,.9.9,0,0,0-.28.13.8.8,0,0,0-.21.2.52.52,0,0,0-.09.29.47.47,0,0,0,.19.42,1.34,1.34,0,0,0,.45.21c.18,0,.38.09.6.13a1.93,1.93,0,0,1,.59.18,1.1,1.1,0,0,1,.45.35,1,1,0,0,1,.19.65,1.22,1.22,0,0,1-.12.56,1.09,1.09,0,0,1-.34.4,1.57,1.57,0,0,1-.48.25,2.1,2.1,0,0,1-.56.08,2.31,2.31,0,0,1-1-.21,1.48,1.48,0,0,1-.69-.64Z"/><path class="cls-2" d="M358.73,47.06a.42.42,0,0,1,.13-.31.41.41,0,0,1,.3-.12.43.43,0,0,1,.31.12.43.43,0,0,1,0,.62.43.43,0,0,1-.31.12.41.41,0,0,1-.3-.12.42.42,0,0,1-.13-.31"/><path class="cls-2" d="M364.45,46.83a2.1,2.1,0,0,1-.7.54,1.9,1.9,0,0,1-.83.18,2.26,2.26,0,0,1-.88-.17,2,2,0,0,1-.7-.45,2.38,2.38,0,0,1-.45-2.45,2.06,2.06,0,0,1,.45-.69,1.9,1.9,0,0,1,.7-.46,2.26,2.26,0,0,1,.88-.16,1.89,1.89,0,0,1,.85.19,2.36,2.36,0,0,1,.7.53l-.44.33a1.85,1.85,0,0,0-.51-.42,1.39,1.39,0,0,0-.6-.14,1.73,1.73,0,0,0-.69.13,1.5,1.5,0,0,0-.52.37,1.63,1.63,0,0,0-.33.54,2,2,0,0,0-.11.66,2.08,2.08,0,0,0,.11.66,1.58,1.58,0,0,0,.85.91,1.93,1.93,0,0,0,.69.13,1.22,1.22,0,0,0,.62-.16,1.51,1.51,0,0,0,.49-.42Z"/><path class="cls-2" d="M365,45.36a2.3,2.3,0,0,1,.16-.88,2.06,2.06,0,0,1,.45-.69,1.94,1.94,0,0,1,.69-.46,2.33,2.33,0,0,1,.88-.16,2.26,2.26,0,0,1,.88.16,2,2,0,0,1,1.15,1.15,2.28,2.28,0,0,1-.45,2.45,2.05,2.05,0,0,1-.7.45,2.26,2.26,0,0,1-.88.17,2.34,2.34,0,0,1-.88-.17,1.92,1.92,0,0,1-.69-.45,2.17,2.17,0,0,1-.61-1.57m.54,0a2.08,2.08,0,0,0,.11.66,1.63,1.63,0,0,0,.33.54,1.47,1.47,0,0,0,.52.36,1.69,1.69,0,0,0,.68.14,1.67,1.67,0,0,0,.69-.14,1.53,1.53,0,0,0,.85-.9,2.08,2.08,0,0,0,.11-.66,2,2,0,0,0-.11-.66,1.58,1.58,0,0,0-.85-.91,1.87,1.87,0,0,0-1.37,0,1.5,1.5,0,0,0-.52.37,1.63,1.63,0,0,0-.33.54,2,2,0,0,0-.11.66"/><path class="cls-2" d="M370.46,44.45c0-.08,0-.17,0-.28s0-.23,0-.34,0-.22,0-.32,0-.18,0-.23H371c0,.15,0,.31,0,.45a1.43,1.43,0,0,0,0,.28h0a1.32,1.32,0,0,1,.54-.59,1.52,1.52,0,0,1,.88-.25,1.39,1.39,0,0,1,.75.21,1.18,1.18,0,0,1,.5.69,1.33,1.33,0,0,1,.59-.68,1.6,1.6,0,0,1,.82-.22,1.76,1.76,0,0,1,.79.15,1.41,1.41,0,0,1,.49.4,1.77,1.77,0,0,1,.24.58,3.51,3.51,0,0,1,.07.66v2.48h-.54V45a2.63,2.63,0,0,0,0-.49,1.23,1.23,0,0,0-.16-.43.89.89,0,0,0-.31-.3,1.39,1.39,0,0,0-1.15,0,1.07,1.07,0,0,0-.38.35,1.63,1.63,0,0,0-.2.47,2.1,2.1,0,0,0-.06.48v2.34h-.54V44.93a1.77,1.77,0,0,0-.21-.92.7.7,0,0,0-.65-.35,1.47,1.47,0,0,0-.56.1,1.13,1.13,0,0,0-.46.32,1.52,1.52,0,0,0-.31.53,2.37,2.37,0,0,0-.11.75v2.08h-.54Z"/><line class="cls-3" x1="254.01" y1="27.07" x2="254.01" y2="49.57"/><rect class="cls-4" x="399" y="26.78" width="196.28" height="20.66"/></svg>