<!--
  - Copyright (c) 2022. Lorem ipsum dolor sit amet, consectetur adipiscing elit.
  - Morbi non lorem porttitor neque feugiat blandit. Ut vitae ipsum eget quam lacinia accumsan.
  - Etiam sed turpis ac ipsum condimentum fringilla. Maecenas magna.
  - Proin dapibus sapien vel ante. Aliquam erat volutpat. Pellentesque sagittis ligula eget metus.
  - Vestibulum commodo. Ut rhoncus gravida arcu.
  -->

<svg id="Layer_1" data-name="Layer 1" xmlns="http://www.w3.org/2000/svg" viewBox="0 0 595.28 107.23"><defs><style>.cls-1{fill:#fff;}.cls-2,.cls-3{fill:none;stroke:#0bb6d9;stroke-linecap:round;stroke-miterlimit:10;}.cls-2{stroke-width:4.22px;}.cls-3{stroke-width:4.92px;}.cls-4{fill:#0bb6d9;}.cls-5{fill:#001a2f;}.cls-6{fill:#97999c;}</style></defs><path class="cls-1" d="M559.15,70.06a3.4,3.4,0,1,1,3.39-3.4,3.4,3.4,0,0,1-3.39,3.4"/><path class="cls-2" d="M559.15,70.06a3.4,3.4,0,1,1,3.39-3.4A3.4,3.4,0,0,1,559.15,70.06Z"/><line class="cls-3" x1="533.79" y1="66.67" x2="555.39" y2="66.67"/><path class="cls-1" d="M545.5,79.17a3.4,3.4,0,1,1,3.39-3.4,3.4,3.4,0,0,1-3.39,3.4"/><path class="cls-2" d="M545.5,79.17a3.4,3.4,0,1,1,3.39-3.4A3.4,3.4,0,0,1,545.5,79.17Z"/><line class="cls-3" x1="524.82" y1="75.92" x2="541.84" y2="75.92"/><path class="cls-4" d="M534.73,83.39a1.61,1.61,0,1,0,0-3.22h-23l.59-3.22h8.11l.92-5h-8.12l.61-3.54h14.24A1.67,1.67,0,0,0,529.79,67c.16-1-.68-1.57-1.65-1.57h-5.63l.88-4.8h-8.2l.56-2.89H540a1.61,1.61,0,0,0,1.61-1.61,1.21,1.21,0,0,0-1.21-1.21h-16l.29-1.54a4.46,4.46,0,0,0-4.39-5.26H464.09A8.2,8.2,0,0,0,456,55.33l-3.38,28.06Z"/><path class="cls-5" d="M443.43,21.16l-2.92,24.11h-5.77l1.46-12a6,6,0,0,0-1.43-4.91,5.91,5.91,0,0,0-4.66-2,7.46,7.46,0,0,0-2.74.53A8.07,8.07,0,0,0,425,28.33a7.63,7.63,0,0,0-2.61,4.91,6,6,0,0,0,1.43,4.86,5.32,5.32,0,0,0,2.05,1.52,6.85,6.85,0,0,0,2.61.5H430a1.53,1.53,0,0,1,1.52,1.11l1,3.56a12.25,12.25,0,0,1-5.29,1.11,11.11,11.11,0,0,1-4.76-1,10,10,0,0,1-3.55-2.72,10.68,10.68,0,0,1-2.06-4,12.7,12.7,0,0,1-.32-4.91,14.61,14.61,0,0,1,1.52-5,14.8,14.8,0,0,1,3-4,14.11,14.11,0,0,1,4.2-2.72,13,13,0,0,1,5-1,10.66,10.66,0,0,1,4.1.72,10.86,10.86,0,0,1,3,1.83l.23-1.93Z"/><path class="cls-5" d="M460.06,20.54a11.27,11.27,0,0,1,4.77,1,10.06,10.06,0,0,1,3.54,2.72,10.75,10.75,0,0,1,2.06,4,12.73,12.73,0,0,1,.32,5,14.31,14.31,0,0,1-1.51,4.91,14.85,14.85,0,0,1-3,4,13.92,13.92,0,0,1-4.2,2.72,12.83,12.83,0,0,1-5,1,10.48,10.48,0,0,1-5-1.11l1.84-3.53A2.26,2.26,0,0,1,456.08,40a8.12,8.12,0,0,0,1.13.08,7.65,7.65,0,0,0,2.71-.5,8.08,8.08,0,0,0,2.44-1.52A7.59,7.59,0,0,0,465,33.24a6,6,0,0,0-1.42-4.91,6.1,6.1,0,0,0-4.67-2,7.51,7.51,0,0,0-5.15,2,7.69,7.69,0,0,0-2.62,4.91l-1.22,10.11-1.08,8.88a3.09,3.09,0,0,1-3,2.67h-3.1l4.08-33.74h5.78l-.24,1.93a14.52,14.52,0,0,1,3.45-1.83,12.07,12.07,0,0,1,4.27-.72"/><path class="cls-5" d="M483.68,21.21a10.57,10.57,0,0,1,4-.72l-.7,5.77a7.56,7.56,0,0,0-5.15,2,7.86,7.86,0,0,0-2.61,4.91l-1.12,9.24a3.3,3.3,0,0,1-3.18,2.84h-2.94l1.46-12.08,1.46-12h5.77L480.41,23a14.27,14.27,0,0,1,3.27-1.83"/><path class="cls-5" d="M500.39,20.54a11.79,11.79,0,0,1,4.84,1,10.7,10.7,0,0,1,5.94,6.76,12,12,0,0,1,.39,5A13.43,13.43,0,0,1,510,38.15a15,15,0,0,1-7.58,6.76,13.28,13.28,0,0,1-5.07,1,11.6,11.6,0,0,1-4.84-1,10.7,10.7,0,0,1-5.94-6.76,11.8,11.8,0,0,1-.39-4.91,13.67,13.67,0,0,1,1.58-5,15.39,15.39,0,0,1,3.21-4,15.2,15.2,0,0,1,4.37-2.72,13.55,13.55,0,0,1,5.08-1m-.7,5.77a7.51,7.51,0,0,0-5.15,2,7.69,7.69,0,0,0-2.62,4.91,6,6,0,0,0,1.43,4.86,5.35,5.35,0,0,0,2.06,1.52,6.85,6.85,0,0,0,2.61.5,7.65,7.65,0,0,0,2.71-.5,8.08,8.08,0,0,0,2.44-1.52,7.59,7.59,0,0,0,2.61-4.86,6,6,0,0,0-1.43-4.91,6.08,6.08,0,0,0-4.66-2"/><path class="cls-1" d="M466.15,56.7a7.69,7.69,0,0,1,2.85-.52l-.51,4.15a5.45,5.45,0,0,0-3.7,1.45,5.65,5.65,0,0,0-1.87,3.53L462.11,72a2.37,2.37,0,0,1-2.28,2h-2.11l1-8.67,1-8.64H464L463.8,58a10.55,10.55,0,0,1,2.35-1.32"/><path class="cls-1" d="M471.58,50.51h4.15l-.5,4.15h-4.15ZM468.74,74l2.09-17.28H475L472.89,74Z"/><path class="cls-1" d="M493.25,72.25a9.63,9.63,0,0,1-1.14,3.53,10.92,10.92,0,0,1-5.45,4.87,9.28,9.28,0,0,1-3.64.73,8.14,8.14,0,0,1-2.88-.49,7.81,7.81,0,0,1-2.39-1.38l2-1.77a2.69,2.69,0,0,1,2.47-.68,4.85,4.85,0,0,0,1.29.17,5.26,5.26,0,0,0,3.7-1.48,5.47,5.47,0,0,0,1.88-3.5l.84-6.94a4.45,4.45,0,0,0-1-3.53,4.25,4.25,0,0,0-3.34-1.45,5.75,5.75,0,0,0-5.58,5,4.29,4.29,0,0,0,1,3.52,4.37,4.37,0,0,0,3.35,1.45h1.13a1.1,1.1,0,0,1,1.1.82l.77,2.71a9.65,9.65,0,0,1-3.43.62h-.07a8.15,8.15,0,0,1-3.44-.71,7.69,7.69,0,0,1-2.67-2,8,8,0,0,1-1.62-2.9,8.42,8.42,0,0,1-.29-3.56,10.72,10.72,0,0,1,1.05-3.56,10.42,10.42,0,0,1,2.1-2.9,9.53,9.53,0,0,1,2.93-2,8.94,8.94,0,0,1,3.53-.71,8.2,8.2,0,0,1,3.11.54,8.43,8.43,0,0,1,2.26,1.33L491,56.7h4.15Z"/><path class="cls-1" d="M503.15,63.27a12.7,12.7,0,0,1,1.32.48,9.56,9.56,0,0,1,1.86,1.06,6.14,6.14,0,0,1,1.58,1.67,3.58,3.58,0,0,1,.47,2.39,6.47,6.47,0,0,1-.67,2.21,5.85,5.85,0,0,1-1.37,1.76,6.1,6.1,0,0,1-2,1.18,7.6,7.6,0,0,1-2.54.41,9.35,9.35,0,0,1-3.83-.76,7.68,7.68,0,0,1-2.69-1.86l1.8-1.61a2,2,0,0,1,2.42-.25,2.91,2.91,0,0,0,.75.37,5.58,5.58,0,0,0,1.67.31,2.79,2.79,0,0,0,1.64-.41,1.45,1.45,0,0,0,.64-1,.83.83,0,0,0-.26-.72,2.44,2.44,0,0,0-.75-.52,5,5,0,0,0-.91-.33c-.31-.08-.57-.15-.77-.22l-1.34-.49a8.18,8.18,0,0,1-1.88-1,5.83,5.83,0,0,1-1.58-1.66,3.57,3.57,0,0,1-.47-2.42,6.3,6.3,0,0,1,.81-2.5,5.94,5.94,0,0,1,1.54-1.75,6.31,6.31,0,0,1,2-1,7.92,7.92,0,0,1,2.26-.33,8.88,8.88,0,0,1,2.94.42,8.33,8.33,0,0,1,1.91.9,6.08,6.08,0,0,1,1.36,1.31l-1.79,1.6a2,2,0,0,1-2.48.2,2.5,2.5,0,0,0-.35-.21,3.54,3.54,0,0,0-1.71-.41,3.46,3.46,0,0,0-1.47.34,1.33,1.33,0,0,0-.85,1.11.85.85,0,0,0,.23.71,2.28,2.28,0,0,0,.7.48,6.1,6.1,0,0,0,.91.33l.89.24"/><path class="cls-6" d="M492.07,89.31l-.21-1.06h1.89c.42,0,.66-.13.71-.38v-.05c0-.18,0-.3-.09-.34a1.18,1.18,0,0,0-.49-.07h-4l.19-1.06h4.65c.83,0,1.21.51,1.09,1.06l-.18.87a.72.72,0,0,1-.53.53c.19,0,.39.2.29.66l-.14.69a1.49,1.49,0,0,1-1.52,1.06h-4.63l.67-3.27h1.32l-.45,2.21h2.63a1.47,1.47,0,0,0,.53-.07.5.5,0,0,0,.24-.39q0-.23-.09-.3a1,1,0,0,0-.5-.09Z"/><polygon class="cls-6" points="507.85 86.35 505.77 86.35 502.5 91.22 504.04 91.22 506.59 87.41 507.31 90.16 505.41 90.16 505.92 91.22 509.12 91.22 507.85 86.35"/><polygon class="cls-6" points="497.62 90.16 497.79 89.33 500.37 89.33 499.88 88.27 498.45 88.27 497.87 88.94 498.12 87.71 497.74 87.41 501.28 87.41 501.39 86.35 497.09 86.35 496.09 91.22 500.58 91.22 500.77 90.16 497.62 90.16"/><path class="cls-6" d="M530.81,86.35h-4a.68.68,0,0,0-.67.55l-.67,3.28c-.13.6.35,1,1.09,1h3.3a1.4,1.4,0,0,0,1.52-1l.57-2.77c.12-.58-.29-1.06-1.09-1.06M530.46,88l-.31,1.54a.68.68,0,0,1-.76.58h-2c-.42,0-.59-.19-.51-.58l.36-1.78-.49-.39h3.2q.68,0,.54.63"/><path class="cls-6" d="M517,86.35h-4.66l-1,4.87h1.32l.72-3.52-.37-.29h3.11a1,1,0,0,1,.49.09c.09.06.12.18.08.35s-.29.41-.71.41h-2.06l.51,1.06h2a1.49,1.49,0,0,0,1.52-1l.17-.87c.13-.61-.32-1.06-1.09-1.06"/><path class="cls-6" d="M523.94,86.35h-4.71l-1,4.87h1.31l.72-3.52-.37-.29h3.16a1,1,0,0,1,.49.09c.09.06.12.18.09.35s-.3.41-.72.41h-2.06l.51,1.06H522l1,1.9h1.63l-1-1.92a1.42,1.42,0,0,0,1.29-1l.17-.87c.13-.61-.32-1.06-1.09-1.06"/><path class="cls-1" d="M546.84,56a3.3,3.3,0,1,1-3.3-3.3,3.3,3.3,0,0,1,3.3,3.3"/><path class="cls-2" d="M546.84,56a3.3,3.3,0,1,1-3.3-3.3A3.3,3.3,0,0,1,546.84,56Z"/></svg>